STARTFONT 2.1
FONT -JDECW-Screen-Medium-R-Normal--24-240-75-75-M-240-JISX0208-Kanji00
SIZE 24 75 75
FONTBOUNDINGBOX 24 24 0 -4

STARTPROPERTIES 26
FONTNAME_REGISTRY ""
FAMILY_NAME "Screen"
FOUNDRY "JDECW"
WEIGHT_NAME "Medium"
SLANT "R"
SETWIDTH_NAME "Normal"
ADD_STYLE_NAME ""
PIXEL_SIZE 24
POINT_SIZE 240
RESOLUTION_X 75
RESOLUTION_Y 75
SPACING "M"
AVERAGE_WIDTH 240
CHARSET_REGISTRY "JISX0208"
CHARSET_ENCODING "Kanji00"
DEVICE_FONT_NAME "Screen-JISX0208-Kanji00"
CHARSET_COLLECTIONS "JISX0208 Kanji00"
FULL_NAME "Screen JISX0208 Kanji00"
COPYRIGHT "Copyright (c) 1988 Digital Equipment Corporation Japan."
CAP_HEIGHT 18
X_HEIGHT 13
WEIGHT 10
QUAD_WIDTH 24
DEFAULT_CHAR 8738
FONT_DESCENT 4
FONT_ASCENT 20
ENDPROPERTIES

CHARS 7896

STARTCHAR C2121
ENCODING 8481
SWIDTH 1000 0
DWIDTH 24 0
BBX 24 24 0 -4
BITMAP
000000
000000
000000
000000
000000
000000
000000
000000
000000
000000
000000
000000
000000
000000
000000
000000
000000
000000
000000
000000
000000
000000
000000
000000
ENDCHAR

STARTCHAR C2122
ENCODING 8482
SWIDTH 1000 0
DWIDTH 24 0
BBX 24 24 0 -4
BITMAP
000000
000000
000000
000000
000000
000000
000000
000000
000000
000000
000000
000000
000000
000000
000000
000000
000000
300000
180000
0C0000
0E0000
060000
060000
000000
ENDCHAR

STARTCHAR C2123
ENCODING 8483
SWIDTH 1000 0
DWIDTH 24 0
BBX 24 24 0 -4
BITMAP
000000
000000
000000
000000
000000
000000
000000
000000
000000
000000
000000
000000
000000
000000
000000
000000
1C0000
360000
630000
410000
630000
360000
1C0000
000000
ENDCHAR

STARTCHAR C2124
ENCODING 8484
SWIDTH 1000 0
DWIDTH 24 0
BBX 24 24 0 -4
BITMAP
000000
000000
000000
000000
000000
000000
000000
000000
000000
000000
000000
000000
000000
000000
000000
000000
000000
300000
380000
080000
180000
300000
200000
000000
ENDCHAR

STARTCHAR C2125
ENCODING 8485
SWIDTH 1000 0
DWIDTH 24 0
BBX 24 24 0 -4
BITMAP
000000
000000
000000
000000
000000
000000
000000
000000
000000
000000
000000
000000
000000
000000
000000
000000
000000
000000
180000
3C0000
3C0000
180000
000000
000000
ENDCHAR

STARTCHAR C2126
ENCODING 8486
SWIDTH 1000 0
DWIDTH 24 0
BBX 24 24 0 -4
BITMAP
000000
000000
000000
000000
000000
000000
000000
000000
000000
000000
001C00
003E00
003E00
003E00
001C00
000000
000000
000000
000000
000000
000000
000000
000000
000000
ENDCHAR

STARTCHAR C2127
ENCODING 8487
SWIDTH 1000 0
DWIDTH 24 0
BBX 24 24 0 -4
BITMAP
000000
000000
000000
000000
000000
000000
000000
000000
001800
003C00
003C00
001800
000000
000000
000000
000000
000000
000000
001800
003C00
003C00
001800
000000
000000
ENDCHAR

STARTCHAR C2128
ENCODING 8488
SWIDTH 1000 0
DWIDTH 24 0
BBX 24 24 0 -4
BITMAP
000000
000000
000000
000000
000000
000000
000000
001800
003C00
003C00
001800
000000
000000
000000
000000
000000
000000
000000
001800
003C00
001C00
001800
003000
000000
ENDCHAR

STARTCHAR C2129
ENCODING 8489
SWIDTH 1000 0
DWIDTH 24 0
BBX 24 24 0 -4
BITMAP
000000
000000
003E00
007F00
00C180
0180C0
0180C0
0180C0
0180C0
000180
000700
000C00
000C00
001800
001800
001800
000000
000000
001800
003C00
003C00
001800
000000
000000
ENDCHAR

STARTCHAR C212a
ENCODING 8490
SWIDTH 1000 0
DWIDTH 24 0
BBX 24 24 0 -4
BITMAP
000000
000000
000800
001C00
001C00
001C00
001C00
001C00
001C00
001C00
001C00
001C00
000800
000800
000800
000800
000000
000000
000800
001C00
001C00
000800
000000
000000
ENDCHAR

STARTCHAR C212b
ENCODING 8491
SWIDTH 1000 0
DWIDTH 24 0
BBX 24 24 0 -4
BITMAP
000000
000000
180000
0E0000
070000
030000
300000
1C0000
0E0000
060000
000000
000000
000000
000000
000000
000000
000000
000000
000000
000000
000000
000000
000000
000000
ENDCHAR

STARTCHAR C212c
ENCODING 8492
SWIDTH 1000 0
DWIDTH 24 0
BBX 24 24 0 -4
BITMAP
000000
000000
000000
0E0000
1B0000
110000
1B0000
0E0000
000000
000000
000000
000000
000000
000000
000000
000000
000000
000000
000000
000000
000000
000000
000000
000000
ENDCHAR

STARTCHAR C212d
ENCODING 8493
SWIDTH 1000 0
DWIDTH 24 0
BBX 24 24 0 -4
BITMAP
000000
000C00
001E00
003800
006000
000000
000000
000000
000000
000000
000000
000000
000000
000000
000000
000000
000000
000000
000000
000000
000000
000000
000000
000000
ENDCHAR

STARTCHAR C212e
ENCODING 8494
SWIDTH 1000 0
DWIDTH 24 0
BBX 24 24 0 -4
BITMAP
000000
003000
007800
001C00
000600
000000
000000
000000
000000
000000
000000
000000
000000
000000
000000
000000
000000
000000
000000
000000
000000
000000
000000
000000
ENDCHAR

STARTCHAR C212f
ENCODING 8495
SWIDTH 1000 0
DWIDTH 24 0
BBX 24 24 0 -4
BITMAP
000000
018180
03C3C0
03C3C0
018180
000000
000000
000000
000000
000000
000000
000000
000000
000000
000000
000000
000000
000000
000000
000000
000000
000000
000000
000000
ENDCHAR

STARTCHAR C2130
ENCODING 8496
SWIDTH 1000 0
DWIDTH 24 0
BBX 24 24 0 -4
BITMAP
000000
003800
007C00
00C600
018300
000000
000000
000000
000000
000000
000000
000000
000000
000000
000000
000000
000000
000000
000000
000000
000000
000000
000000
000000
ENDCHAR

STARTCHAR C2131
ENCODING 8497
SWIDTH 1000 0
DWIDTH 24 0
BBX 24 24 0 -4
BITMAP
000000
7FFFFE
000000
000000
000000
000000
000000
000000
000000
000000
000000
000000
000000
000000
000000
000000
000000
000000
000000
000000
000000
000000
000000
000000
ENDCHAR

STARTCHAR C2132
ENCODING 8498
SWIDTH 1000 0
DWIDTH 24 0
BBX 24 24 0 -4
BITMAP
000000
000000
000000
000000
000000
000000
000000
000000
000000
000000
000000
000000
000000
000000
000000
000000
000000
000000
000000
000000
000000
000000
7FFFFE
000000
ENDCHAR

STARTCHAR C2133
ENCODING 8499
SWIDTH 1000 0
DWIDTH 24 0
BBX 24 24 0 -4
BITMAP
000000
000000
000000
000000
000000
000000
000000
000000
018000
00C000
007000
003800
001C00
000F00
000780
000380
000180
000000
000000
000000
000000
000000
000000
000000
ENDCHAR

STARTCHAR C2134
ENCODING 8500
SWIDTH 1000 0
DWIDTH 24 0
BBX 24 24 0 -4
BITMAP
000000
000000
000000
000000
000060
000330
000198
0000C8
018040
00C000
007000
003800
001C00
000F00
000780
000380
000180
000000
000000
000000
000000
000000
000000
000000
ENDCHAR

STARTCHAR C2135
ENCODING 8501
SWIDTH 1000 0
DWIDTH 24 0
BBX 24 24 0 -4
BITMAP
000000
000000
000000
000000
000000
008000
008000
00C000
004000
006000
002000
003000
001800
001C00
000E00
000700
000F80
003F80
01F000
000000
000000
000000
000000
000000
ENDCHAR

STARTCHAR C2136
ENCODING 8502
SWIDTH 1000 0
DWIDTH 24 0
BBX 24 24 0 -4
BITMAP
000000
000000
000000
0000C0
000060
008630
008310
00C180
004080
006000
002000
003000
001800
001C00
000E00
000700
000F80
003F80
01F000
000000
000000
000000
000000
000000
ENDCHAR

STARTCHAR C2137
ENCODING 8503
SWIDTH 1000 0
DWIDTH 24 0
BBX 24 24 0 -4
BITMAP
000000
000000
000000
000000
000000
000000
000000
003060
0078F0
0070E0
00E1C0
01C380
018300
030600
060C00
0C1800
183000
000000
000000
000000
000000
000000
000000
000000
ENDCHAR

STARTCHAR C2138
ENCODING 8504
SWIDTH 1000 0
DWIDTH 24 0
BBX 24 24 0 -4
BITMAP
000000
001E00
001800
003C00
007600
006300
00C180
0180C0
030060
060038
0C001E
18000C
300030
0FFFF8
001800
001800
001800
001800
001800
001800
00180C
7FFFFE
000000
000000
ENDCHAR

STARTCHAR C2139
ENCODING 8505
SWIDTH 1000 0
DWIDTH 24 0
BBX 24 24 0 -4
BITMAP
000000
000000
000000
000000
001800
001C00
003800
003060
007FF0
00E038
00C070
018060
0300C0
060180
0C4300
183600
201C00
000E00
000700
000300
000000
000000
000000
000000
ENDCHAR

STARTCHAR C213a
ENCODING 8506
SWIDTH 1000 0
DWIDTH 24 0
BBX 24 24 0 -4
BITMAP
000000
000000
000060
000038
00001C
000038
000060
0000C0
030180
01C300
007600
003C00
001E00
001F00
003380
0061C0
00C0C0
218000
230000
360000
3C0000
180000
000000
000000
ENDCHAR

STARTCHAR C213b
ENCODING 8507
SWIDTH 1000 0
DWIDTH 24 0
BBX 24 24 0 -4
BITMAP
000000
000000
00FF00
0381C0
060060
0C0030
180018
100008
30000C
200004
200004
200004
200004
200004
200004
30000C
100008
180018
0C0030
060060
0381C0
00FF00
000000
000000
ENDCHAR

STARTCHAR C213c
ENCODING 8508
SWIDTH 1000 0
DWIDTH 24 0
BBX 24 24 0 -4
BITMAP
000000
000000
000000
000000
000000
000000
000000
000000
000000
000000
100000
1FFFF0
0FFFF8
000000
000000
000000
000000
000000
000000
000000
000000
000000
000000
000000
ENDCHAR

STARTCHAR C213d
ENCODING 8509
SWIDTH 1000 0
DWIDTH 24 0
BBX 24 24 0 -4
BITMAP
000000
000000
000000
000000
000000
000000
000000
000000
000000
000000
000000
000000
7FFFFE
000000
000000
000000
000000
000000
000000
000000
000000
000000
000000
000000
ENDCHAR

STARTCHAR C213e
ENCODING 8510
SWIDTH 1000 0
DWIDTH 24 0
BBX 24 24 0 -4
BITMAP
000000
000000
000000
000000
000000
000000
000000
000000
000000
000000
000000
000000
003E00
000000
000000
000000
000000
000000
000000
000000
000000
000000
000000
000000
ENDCHAR

STARTCHAR C213f
ENCODING 8511
SWIDTH 1000 0
DWIDTH 24 0
BBX 24 24 0 -4
BITMAP
000000
000000
000004
00000C
000018
000030
000060
0000C0
000180
000300
000600
000C00
001800
003000
006000
00C000
018000
030000
060000
0C0000
180000
300000
000000
000000
ENDCHAR

STARTCHAR C2140
ENCODING 8512
SWIDTH 1000 0
DWIDTH 24 0
BBX 24 24 0 -4
BITMAP
000000
000000
200000
300000
180000
0C0000
060000
030000
018000
00C000
006000
003000
001800
000C00
000600
000300
000180
0000C0
000060
000030
000018
00000C
000000
000000
ENDCHAR

STARTCHAR C2141
ENCODING 8513
SWIDTH 1000 0
DWIDTH 24 0
BBX 24 24 0 -4
BITMAP
000000
000000
000000
000000
000000
000000
000000
000000
000000
038000
0FE004
18780C
301E18
2007F0
0001C0
000000
000000
000000
000000
000000
000000
000000
000000
000000
ENDCHAR

STARTCHAR C2142
ENCODING 8514
SWIDTH 1000 0
DWIDTH 24 0
BBX 24 24 0 -4
BITMAP
000000
004200
004200
004200
004200
004200
004200
004200
004200
004200
004200
004200
004200
004200
004200
004200
004200
004200
004200
004200
004200
004200
004200
000000
ENDCHAR

STARTCHAR C2143
ENCODING 8515
SWIDTH 1000 0
DWIDTH 24 0
BBX 24 24 0 -4
BITMAP
000000
001000
001000
001000
001000
001000
001000
001000
001000
001000
001000
001000
001000
001000
001000
001000
001000
001000
001000
001000
001000
001000
001000
000000
ENDCHAR

STARTCHAR C2144
ENCODING 8516
SWIDTH 1000 0
DWIDTH 24 0
BBX 24 24 0 -4
BITMAP
000000
000000
000000
000000
000000
000000
000000
000000
000000
000000
181818
3C3C3C
3C3C3C
181818
000000
000000
000000
000000
000000
000000
000000
000000
000000
000000
ENDCHAR

STARTCHAR C2145
ENCODING 8517
SWIDTH 1000 0
DWIDTH 24 0
BBX 24 24 0 -4
BITMAP
000000
000000
000000
000000
000000
000000
000000
000000
000000
000000
060060
0F00F0
0F00F0
060060
000000
000000
000000
000000
000000
000000
000000
000000
000000
000000
ENDCHAR

STARTCHAR C2146
ENCODING 8518
SWIDTH 1000 0
DWIDTH 24 0
BBX 24 24 0 -4
BITMAP
000000
000004
00000C
000018
000010
00001C
00000C
000000
000000
000000
000000
000000
000000
000000
000000
000000
000000
000000
000000
000000
000000
000000
000000
000000
ENDCHAR

STARTCHAR C2147
ENCODING 8519
SWIDTH 1000 0
DWIDTH 24 0
BBX 24 24 0 -4
BITMAP
000000
300000
380000
080000
180000
300000
200000
000000
000000
000000
000000
000000
000000
000000
000000
000000
000000
000000
000000
000000
000000
000000
000000
000000
ENDCHAR

STARTCHAR C2148
ENCODING 8520
SWIDTH 1000 0
DWIDTH 24 0
BBX 24 24 0 -4
BITMAP
000000
000084
00018C
000318
000210
00039C
00018C
000000
000000
000000
000000
000000
000000
000000
000000
000000
000000
000000
000000
000000
000000
000000
000000
000000
ENDCHAR

STARTCHAR C2149
ENCODING 8521
SWIDTH 1000 0
DWIDTH 24 0
BBX 24 24 0 -4
BITMAP
000000
000000
318000
39C000
084000
18C000
318000
210000
000000
000000
000000
000000
000000
000000
000000
000000
000000
000000
000000
000000
000000
000000
000000
000000
ENDCHAR

STARTCHAR C214a
ENCODING 8522
SWIDTH 1000 0
DWIDTH 24 0
BBX 24 24 0 -4
BITMAP
000000
000004
00000C
000018
000030
000020
000060
000060
000040
0000C0
0000C0
0000C0
0000C0
0000C0
0000C0
000040
000060
000060
000020
000030
000018
00000C
000004
000000
ENDCHAR

STARTCHAR C214b
ENCODING 8523
SWIDTH 1000 0
DWIDTH 24 0
BBX 24 24 0 -4
BITMAP
000000
200000
300000
180000
0C0000
040000
060000
060000
020000
030000
030000
030000
030000
030000
030000
020000
060000
060000
040000
0C0000
180000
300000
200000
000000
ENDCHAR

STARTCHAR C214c
ENCODING 8524
SWIDTH 1000 0
DWIDTH 24 0
BBX 24 24 0 -4
BITMAP
000000
000006
00001C
000070
000040
000040
000040
000040
000040
000040
000040
000040
000040
000040
000040
000040
000040
000040
000040
000040
000070
00001C
000006
000000
ENDCHAR

STARTCHAR C214d
ENCODING 8525
SWIDTH 1000 0
DWIDTH 24 0
BBX 24 24 0 -4
BITMAP
000000
600000
380000
0E0000
020000
020000
020000
020000
020000
020000
020000
020000
020000
020000
020000
020000
020000
020000
020000
020000
0E0000
380000
600000
000000
ENDCHAR

STARTCHAR C214e
ENCODING 8526
SWIDTH 1000 0
DWIDTH 24 0
BBX 24 24 0 -4
BITMAP
000000
00007E
000040
000040
000040
000040
000040
000040
000040
000040
000040
000040
000040
000040
000040
000040
000040
000040
000040
000040
000040
000040
00007E
000000
ENDCHAR

STARTCHAR C214f
ENCODING 8527
SWIDTH 1000 0
DWIDTH 24 0
BBX 24 24 0 -4
BITMAP
000000
7E0000
020000
020000
020000
020000
020000
020000
020000
020000
020000
020000
020000
020000
020000
020000
020000
020000
020000
020000
020000
020000
7E0000
000000
ENDCHAR

STARTCHAR C2150
ENCODING 8528
SWIDTH 1000 0
DWIDTH 24 0
BBX 24 24 0 -4
BITMAP
000000
000006
00000C
000008
000018
000018
000018
000018
000018
000010
000030
000060
000030
000010
000018
000018
000018
000018
000018
000018
000008
00000C
000006
000000
ENDCHAR

STARTCHAR C2151
ENCODING 8529
SWIDTH 1000 0
DWIDTH 24 0
BBX 24 24 0 -4
BITMAP
000000
600000
300000
100000
180000
180000
180000
180000
180000
080000
0C0000
060000
0C0000
080000
180000
180000
180000
180000
180000
180000
100000
300000
600000
000000
ENDCHAR

STARTCHAR C2152
ENCODING 8530
SWIDTH 1000 0
DWIDTH 24 0
BBX 24 24 0 -4
BITMAP
000000
000002
000006
000004
00000C
000008
000018
000010
000030
000020
000060
000040
000060
000020
000030
000010
000018
000008
00000C
000004
000006
000002
000002
000000
ENDCHAR

STARTCHAR C2153
ENCODING 8531
SWIDTH 1000 0
DWIDTH 24 0
BBX 24 24 0 -4
BITMAP
000000
400000
600000
200000
300000
100000
180000
080000
0C0000
040000
060000
020000
060000
040000
0C0000
080000
180000
100000
300000
200000
600000
400000
400000
000000
ENDCHAR

STARTCHAR C2154
ENCODING 8532
SWIDTH 1000 0
DWIDTH 24 0
BBX 24 24 0 -4
BITMAP
000000
000012
000036
000024
00006C
000048
0000D8
000090
0001B0
000120
000360
000240
000360
000120
0001B0
000090
0000D8
000048
00006C
000024
000036
000012
000012
000000
ENDCHAR

STARTCHAR C2155
ENCODING 8533
SWIDTH 1000 0
DWIDTH 24 0
BBX 24 24 0 -4
BITMAP
000000
480000
6C0000
240000
360000
120000
1B0000
090000
0D8000
048000
06C000
024000
06C000
048000
0D8000
090000
1B0000
120000
360000
240000
6C0000
480000
480000
000000
ENDCHAR

STARTCHAR C2156
ENCODING 8534
SWIDTH 1000 0
DWIDTH 24 0
BBX 24 24 0 -4
BITMAP
000000
00007E
000040
000040
000040
000040
000040
000040
000040
000040
000040
000040
000040
000040
000040
000040
000040
000040
000040
000040
000040
000040
000040
000000
ENDCHAR

STARTCHAR C2157
ENCODING 8535
SWIDTH 1000 0
DWIDTH 24 0
BBX 24 24 0 -4
BITMAP
000000
020000
020000
020000
020000
020000
020000
020000
020000
020000
020000
020000
020000
020000
020000
020000
020000
020000
020000
020000
020000
020000
7E0000
000000
ENDCHAR

STARTCHAR C2158
ENCODING 8536
SWIDTH 1000 0
DWIDTH 24 0
BBX 24 24 0 -4
BITMAP
000000
0000FE
000082
0000BE
0000A0
0000A0
0000A0
0000A0
0000A0
0000A0
0000A0
0000A0
0000A0
0000A0
0000A0
0000A0
0000A0
0000A0
0000A0
0000E0
000000
000000
000000
000000
ENDCHAR

STARTCHAR C2159
ENCODING 8537
SWIDTH 1000 0
DWIDTH 24 0
BBX 24 24 0 -4
BITMAP
000000
000000
000000
000000
000000
070000
050000
050000
050000
050000
050000
050000
050000
050000
050000
050000
050000
050000
050000
050000
7D0000
410000
7F0000
000000
ENDCHAR

STARTCHAR C215a
ENCODING 8538
SWIDTH 1000 0
DWIDTH 24 0
BBX 24 24 0 -4
BITMAP
000000
0001FE
0001FC
0001F8
0001F0
0001E0
0001E0
0001C0
0001C0
0001C0
0001C0
0001C0
0001C0
0001C0
0001C0
0001C0
0001C0
0001E0
0001E0
0001F0
0001F8
0001FC
0001FE
000000
ENDCHAR

STARTCHAR C215b
ENCODING 8539
SWIDTH 1000 0
DWIDTH 24 0
BBX 24 24 0 -4
BITMAP
000000
7F8000
3F8000
1F8000
0F8000
078000
078000
038000
038000
038000
038000
038000
038000
038000
038000
038000
038000
078000
078000
0F8000
1F8000
3F8000
7F8000
000000
ENDCHAR

STARTCHAR C215c
ENCODING 8540
SWIDTH 1000 0
DWIDTH 24 0
BBX 24 24 0 -4
BITMAP
000000
000000
000000
000000
000800
000800
000800
000800
000800
000800
000800
07FFF0
000800
000800
000800
000800
000800
000800
000800
000800
000000
000000
000000
000000
ENDCHAR

STARTCHAR C215d
ENCODING 8541
SWIDTH 1000 0
DWIDTH 24 0
BBX 24 24 0 -4
BITMAP
000000
000000
000000
000000
000000
000000
000000
000000
000000
000000
000000
07FFF0
000000
000000
000000
000000
000000
000000
000000
000000
000000
000000
000000
000000
ENDCHAR

STARTCHAR C215e
ENCODING 8542
SWIDTH 1000 0
DWIDTH 24 0
BBX 24 24 0 -4
BITMAP
000000
000000
000000
000000
000000
000800
000800
000800
000800
000800
000800
07FFF0
000800
000800
000800
000800
000800
000800
000000
000000
07FFF0
000000
000000
000000
ENDCHAR

STARTCHAR C215f
ENCODING 8543
SWIDTH 1000 0
DWIDTH 24 0
BBX 24 24 0 -4
BITMAP
000000
000000
000000
000000
000000
000000
030060
0180C0
00C180
006300
003600
001C00
001C00
003600
006300
00C180
0180C0
030060
020020
000000
000000
000000
000000
000000
ENDCHAR

STARTCHAR C2160
ENCODING 8544
SWIDTH 1000 0
DWIDTH 24 0
BBX 24 24 0 -4
BITMAP
000000
000000
000000
000000
000000
001800
003C00
003C00
001800
000000
000000
0FFFF0
000000
000000
001800
003C00
003C00
001800
000000
000000
000000
000000
000000
000000
ENDCHAR

STARTCHAR C2161
ENCODING 8545
SWIDTH 1000 0
DWIDTH 24 0
BBX 24 24 0 -4
BITMAP
000000
000000
000000
000000
000000
000000
000000
000000
000000
0FFFF0
000000
000000
000000
0FFFF0
000000
000000
000000
000000
000000
000000
000000
000000
000000
000000
ENDCHAR

STARTCHAR C2162
ENCODING 8546
SWIDTH 1000 0
DWIDTH 24 0
BBX 24 24 0 -4
BITMAP
000000
000000
000000
000000
000000
000080
000180
000100
000300
0FFFF0
000400
000C00
000800
0FFFF0
003000
002000
006000
004000
00C000
000000
000000
000000
000000
000000
ENDCHAR

STARTCHAR C2163
ENCODING 8547
SWIDTH 1000 0
DWIDTH 24 0
BBX 24 24 0 -4
BITMAP
000000
000000
000000
00000C
000038
0000E0
000380
000E00
003800
00E000
038000
0E0000
180000
0E0000
038000
00E000
003800
000E00
000380
0000E0
000038
00000C
000000
000000
ENDCHAR

STARTCHAR C2164
ENCODING 8548
SWIDTH 1000 0
DWIDTH 24 0
BBX 24 24 0 -4
BITMAP
000000
000000
000000
300000
1C0000
070000
01C000
007000
001C00
000700
0001C0
000070
000018
000070
0001C0
000700
001C00
007000
01C000
070000
1C0000
300000
000000
000000
ENDCHAR

STARTCHAR C2165
ENCODING 8549
SWIDTH 1000 0
DWIDTH 24 0
BBX 24 24 0 -4
BITMAP
000000
000000
000000
000000
000038
0001E0
000F00
007800
03C000
1E0000
03C000
007800
000F00
0001E0
000038
000000
000000
1FFFF8
000000
000000
1FFFF8
000000
000000
000000
ENDCHAR

STARTCHAR C2166
ENCODING 8550
SWIDTH 1000 0
DWIDTH 24 0
BBX 24 24 0 -4
BITMAP
000000
000000
000000
000000
1C0000
078000
00F000
001E00
0003C0
000078
0003C0
001E00
00F000
078000
1C0000
000000
000000
1FFFF8
000000
000000
1FFFF8
000000
000000
000000
ENDCHAR

STARTCHAR C2167
ENCODING 8551
SWIDTH 1000 0
DWIDTH 24 0
BBX 24 24 0 -4
BITMAP
000000
000000
000000
000000
000000
000000
000000
000000
000000
0781E0
0CC330
186618
303C0C
30180C
303C0C
186618
0CC330
0781E0
000000
000000
000000
000000
000000
000000
ENDCHAR

STARTCHAR C2168
ENCODING 8552
SWIDTH 1000 0
DWIDTH 24 0
BBX 24 24 0 -4
BITMAP
000000
000000
000000
000000
000000
001800
003C00
003C00
001800
000000
000000
000000
000000
000000
000000
060060
0F00F0
0F00F0
060060
000000
000000
000000
000000
000000
ENDCHAR

STARTCHAR C2169
ENCODING 8553
SWIDTH 1000 0
DWIDTH 24 0
BBX 24 24 0 -4
BITMAP
000000
000000
000000
0007F8
000038
000068
0000C8
000188
000308
000608
000C00
001800
003000
006000
00C000
1F8000
318000
208000
208000
208000
318000
1F0000
000000
000000
ENDCHAR

STARTCHAR C216a
ENCODING 8554
SWIDTH 1000 0
DWIDTH 24 0
BBX 24 24 0 -4
BITMAP
000000
000000
000000
003E00
006300
004100
004100
004100
006300
003E00
000800
000800
000800
07FFF0
000800
000800
000800
000800
000800
000800
000800
000800
000000
000000
ENDCHAR

STARTCHAR C216b
ENCODING 8555
SWIDTH 1000 0
DWIDTH 24 0
BBX 24 24 0 -4
BITMAP
000000
000000
1C0000
360000
220000
360000
1C0000
000000
000000
000000
000000
000000
000000
000000
000000
000000
000000
000000
000000
000000
000000
000000
000000
000000
ENDCHAR

STARTCHAR C216c
ENCODING 8556
SWIDTH 1000 0
DWIDTH 24 0
BBX 24 24 0 -4
BITMAP
000000
180000
180000
300000
300000
600000
400000
000000
000000
000000
000000
000000
000000
000000
000000
000000
000000
000000
000000
000000
000000
000000
000000
000000
ENDCHAR

STARTCHAR C216d
ENCODING 8557
SWIDTH 1000 0
DWIDTH 24 0
BBX 24 24 0 -4
BITMAP
000000
18C000
18C000
318000
318000
630000
420000
000000
000000
000000
000000
000000
000000
000000
000000
000000
000000
000000
000000
000000
000000
000000
000000
000000
ENDCHAR

STARTCHAR C216e
ENCODING 8558
SWIDTH 1000 0
DWIDTH 24 0
BBX 24 24 0 -4
BITMAP
000000
000000
000000
1C0000
360000
220F88
3638E8
1C6038
006018
00C008
00C008
00C000
00C000
00C000
00C000
00C000
00C008
006008
006018
003030
001CE0
000780
000000
000000
ENDCHAR

STARTCHAR C216f
ENCODING 8559
SWIDTH 1000 0
DWIDTH 24 0
BBX 24 24 0 -4
BITMAP
000000
000000
000000
0FE1F8
018020
018020
00C060
00C040
00C0C0
006080
07FFF0
003100
003300
001A00
07FFF0
000C00
000C00
000C00
000C00
000C00
007F80
000000
000000
000000
ENDCHAR

STARTCHAR C2170
ENCODING 8560
SWIDTH 1000 0
DWIDTH 24 0
BBX 24 24 0 -4
BITMAP
000000
000000
000800
000800
00FF00
018980
0308C0
0308C0
030800
038800
01E800
007C00
001F00
000BC0
0008C0
000860
060860
060860
030860
01C9C0
007F00
000800
000800
000000
ENDCHAR

STARTCHAR C2171
ENCODING 8561
SWIDTH 1000 0
DWIDTH 24 0
BBX 24 24 0 -4
BITMAP
000000
000000
000000
000200
000200
003E40
00E740
0184C0
018440
030440
030C40
030800
030800
030800
030800
031840
019040
0190C0
00F180
003F00
002000
002000
000000
000000
ENDCHAR

STARTCHAR C2172
ENCODING 8562
SWIDTH 1000 0
DWIDTH 24 0
BBX 24 24 0 -4
BITMAP
000000
000000
000000
000F80
0038C0
003060
006060
006060
006000
006000
006000
003000
0FFF80
003000
003000
003000
07B000
0CE008
086008
087018
0CDC70
0787C0
000000
000000
ENDCHAR

STARTCHAR C2173
ENCODING 8563
SWIDTH 1000 0
DWIDTH 24 0
BBX 24 24 0 -4
BITMAP
000000
000004
0F000C
198018
108030
30C060
30C0C0
30C180
30C300
108600
198C00
0F1800
0031E0
006330
00C210
018618
030618
060618
0C0618
180210
300330
6001E0
400000
000000
ENDCHAR

STARTCHAR C2174
ENCODING 8564
SWIDTH 1000 0
DWIDTH 24 0
BBX 24 24 0 -4
BITMAP
000000
000000
000000
000000
002040
002040
0060C0
004080
0FFFF8
0FFFF8
008100
008100
018300
010200
1FFFF0
1FFFF0
020400
020400
060C00
040800
040800
000000
000000
000000
ENDCHAR

STARTCHAR C2175
ENCODING 8565
SWIDTH 1000 0
DWIDTH 24 0
BBX 24 24 0 -4
BITMAP
000000
000000
00F800
018C00
030600
030600
030600
030600
018C00
0199F0
00B040
00E040
03E040
0730C0
0C1880
180D80
180700
18078C
1C0CF8
0FF830
03E000
000000
000000
000000
ENDCHAR

STARTCHAR C2176
ENCODING 8566
SWIDTH 1000 0
DWIDTH 24 0
BBX 24 24 0 -4
BITMAP
000000
000000
000000
000000
001C00
003E00
003E00
061C30
0F0878
0788F0
01C9C0
006B00
001C00
006B00
01C9C0
0788F0
0F1C78
063E30
003E00
001C00
000000
000000
000000
000000
ENDCHAR

STARTCHAR C2177
ENCODING 8567
SWIDTH 1000 0
DWIDTH 24 0
BBX 24 24 0 -4
BITMAP
000000
000000
00FF00
0381C0
060060
0C0030
180010
181E98
307388
30C188
30C188
318108
318318
318312
308732
30CDE6
187804
18000C
0C0018
060030
0380E0
00FF80
000000
000000
ENDCHAR

STARTCHAR C2178
ENCODING 8568
SWIDTH 1000 0
DWIDTH 24 0
BBX 24 24 0 -4
BITMAP
000000
007E00
00C300
018180
018180
018180
00C000
007000
007C00
00C700
018380
018180
018180
01C180
00E380
003F00
000E00
000300
000180
018180
018180
00C300
007E00
000000
ENDCHAR

STARTCHAR C2179
ENCODING 8569
SWIDTH 1000 0
DWIDTH 24 0
BBX 24 24 0 -4
BITMAP
000000
000000
000000
000000
001000
001000
003800
002800
006C00
004400
1FC7F0
0C0060
0600C0
030180
018300
011100
033980
026C80
02C680
0783C0
0600C0
000000
000000
000000
ENDCHAR

STARTCHAR C217a
ENCODING 8570
SWIDTH 1000 0
DWIDTH 24 0
BBX 24 24 0 -4
BITMAP
000000
000000
000000
000000
001000
001000
003800
003800
007C00
007C00
1FFFF0
0FFFE0
07FFC0
03FF80
01FF00
01FF00
01FF00
03EF80
03C780
0701C0
0600C0
000000
000000
000000
ENDCHAR

STARTCHAR C217b
ENCODING 8571
SWIDTH 1000 0
DWIDTH 24 0
BBX 24 24 0 -4
BITMAP
000000
00FF00
0381C0
060060
0C0030
180018
30000C
200004
600006
400002
400002
400002
400002
400002
400002
600006
200004
30000C
180018
0C0030
060060
0381C0
00FF00
000000
ENDCHAR

STARTCHAR C217c
ENCODING 8572
SWIDTH 1000 0
DWIDTH 24 0
BBX 24 24 0 -4
BITMAP
000000
00FF00
03FFC0
07FFE0
0FFFF0
1FFFF8
3FFFFC
3FFFFC
7FFFFE
7FFFFE
7FFFFE
7FFFFE
7FFFFE
7FFFFE
7FFFFE
7FFFFE
3FFFFC
3FFFFC
1FFFF8
0FFFF0
07FFE0
03FFC0
00FF00
000000
ENDCHAR

STARTCHAR C217d
ENCODING 8573
SWIDTH 1000 0
DWIDTH 24 0
BBX 24 24 0 -4
BITMAP
000000
00FF00
0381C0
060060
0C0030
180018
303C0C
20E704
618186
410082
4300C2
420042
420042
4300C2
410082
618186
20E704
303C0C
180018
0C0030
060060
0381C0
00FF00
000000
ENDCHAR

STARTCHAR C217e
ENCODING 8574
SWIDTH 1000 0
DWIDTH 24 0
BBX 24 24 0 -4
BITMAP
000000
000000
001800
003C00
006600
00C300
018180
0300C0
060060
0C0030
180018
30000C
30000C
180018
0C0030
060060
0300C0
018180
00C300
006600
003C00
001800
000000
000000
ENDCHAR

STARTCHAR C2221
ENCODING 8737
SWIDTH 1000 0
DWIDTH 24 0
BBX 24 24 0 -4
BITMAP
000000
000000
001800
003C00
007E00
00FF00
01FF80
03FFC0
07FFE0
0FFFF0
1FFFF8
3FFFFC
3FFFFC
1FFFF8
0FFFF0
07FFE0
03FFC0
01FF80
00FF00
007E00
003C00
001800
000000
000000
ENDCHAR

STARTCHAR C2222
ENCODING 8738
SWIDTH 1000 0
DWIDTH 24 0
BBX 24 24 0 -4
BITMAP
000000
000000
000000
1FFFF8
100008
100008
100008
100008
100008
100008
100008
100008
100008
100008
100008
100008
100008
100008
100008
100008
1FFFF8
000000
000000
000000
ENDCHAR

STARTCHAR C2223
ENCODING 8739
SWIDTH 1000 0
DWIDTH 24 0
BBX 24 24 0 -4
BITMAP
000000
000000
000000
1FFFF8
1FFFF8
1FFFF8
1FFFF8
1FFFF8
1FFFF8
1FFFF8
1FFFF8
1FFFF8
1FFFF8
1FFFF8
1FFFF8
1FFFF8
1FFFF8
1FFFF8
1FFFF8
1FFFF8
1FFFF8
000000
000000
000000
ENDCHAR

STARTCHAR C2224
ENCODING 8740
SWIDTH 1000 0
DWIDTH 24 0
BBX 24 24 0 -4
BITMAP
000000
000000
001800
003C00
002400
006600
004200
00C300
008100
018180
010080
0300C0
020040
060060
040020
0C0030
080010
180018
100008
30000C
3FFFFC
000000
000000
000000
ENDCHAR

STARTCHAR C2225
ENCODING 8741
SWIDTH 1000 0
DWIDTH 24 0
BBX 24 24 0 -4
BITMAP
000000
000000
001800
003C00
003C00
007E00
007E00
00FF00
00FF00
01FF80
01FF80
03FFC0
03FFC0
07FFE0
07FFE0
0FFFF0
0FFFF0
1FFFF8
1FFFF8
3FFFFC
3FFFFC
000000
000000
000000
ENDCHAR

STARTCHAR C2226
ENCODING 8742
SWIDTH 1000 0
DWIDTH 24 0
BBX 24 24 0 -4
BITMAP
000000
000000
000000
3FFFFC
30000C
100008
180018
080010
0C0030
040020
060060
020040
0300C0
010080
018180
008100
00C300
004200
006600
002400
003C00
001800
000000
000000
ENDCHAR

STARTCHAR C2227
ENCODING 8743
SWIDTH 1000 0
DWIDTH 24 0
BBX 24 24 0 -4
BITMAP
000000
000000
000000
3FFFFC
3FFFFC
1FFFF8
1FFFF8
0FFFF0
0FFFF0
07FFE0
07FFE0
03FFC0
03FFC0
01FF80
01FF80
00FF00
00FF00
007E00
007E00
003C00
003C00
001800
000000
000000
ENDCHAR

STARTCHAR C2228
ENCODING 8744
SWIDTH 1000 0
DWIDTH 24 0
BBX 24 24 0 -4
BITMAP
000000
000000
000000
101808
183C18
0C3C30
061860
0300C0
018180
00C300
0C6630
1E3C78
1E3C78
0C6630
00C300
018180
0300C0
061860
0C3C30
183C18
101808
000000
000000
000000
ENDCHAR

STARTCHAR C2229
ENCODING 8745
SWIDTH 1000 0
DWIDTH 24 0
BBX 24 24 0 -4
BITMAP
000000
000000
000000
000000
1FFFF8
1FFFF8
000000
000000
000000
1FFFF8
1FFFF8
001800
001800
001800
001800
001800
001800
001800
001800
001800
001800
000000
000000
000000
ENDCHAR

STARTCHAR C222a
ENCODING 8746
SWIDTH 1000 0
DWIDTH 24 0
BBX 24 24 0 -4
BITMAP
000000
000000
000000
000000
000000
000000
000000
000000
0000C0
000060
000038
7FFFFE
000038
000060
0000C0
000000
000000
000000
000000
000000
000000
000000
000000
000000
ENDCHAR

STARTCHAR C222b
ENCODING 8747
SWIDTH 1000 0
DWIDTH 24 0
BBX 24 24 0 -4
BITMAP
000000
000000
000000
000000
000000
000000
000000
000000
030000
060000
1C0000
7FFFFE
1C0000
060000
030000
000000
000000
000000
000000
000000
000000
000000
000000
000000
ENDCHAR

STARTCHAR C222c
ENCODING 8748
SWIDTH 1000 0
DWIDTH 24 0
BBX 24 24 0 -4
BITMAP
000000
000800
000800
001C00
001C00
003E00
006B00
004900
000800
000800
000800
000800
000800
000800
000800
000800
000800
000800
000800
000800
000800
000800
000800
000000
ENDCHAR

STARTCHAR C222d
ENCODING 8749
SWIDTH 1000 0
DWIDTH 24 0
BBX 24 24 0 -4
BITMAP
000000
000800
000800
000800
000800
000800
000800
000800
000800
000800
000800
000800
000800
000800
000800
000800
004900
006B00
003E00
001C00
001C00
000800
000800
000000
ENDCHAR

STARTCHAR C222e
ENCODING 8750
SWIDTH 1000 0
DWIDTH 24 0
BBX 24 24 0 -4
BITMAP
000000
000000
000000
000000
1FFFF8
1FFFF8
1FFFF8
1FFFF8
1FFFF8
1FFFF8
000000
000000
000000
000000
1FFFF8
1FFFF8
1FFFF8
1FFFF8
1FFFF8
1FFFF8
000000
000000
000000
000000
ENDCHAR

STARTCHAR C222f
ENCODING 8751
SWIDTH 1000 0
DWIDTH 24 0
BBX 24 24 0 -4
BITMAP
000000
000000
000000
000000
000000
000000
000000
000000
000000
000000
000000
000000
000000
000000
000000
000000
000000
000000
000000
000000
000000
000000
000000
000000
ENDCHAR

STARTCHAR C2230
ENCODING 8752
SWIDTH 1000 0
DWIDTH 24 0
BBX 24 24 0 -4
BITMAP
000000
000000
000000
000000
000000
000000
000000
000000
000000
000000
000000
000000
000000
000000
000000
000000
000000
000000
000000
000000
000000
000000
000000
000000
ENDCHAR

STARTCHAR C2231
ENCODING 8753
SWIDTH 1000 0
DWIDTH 24 0
BBX 24 24 0 -4
BITMAP
000000
000000
000000
000000
000000
000000
000000
000000
000000
000000
000000
000000
000000
000000
000000
000000
000000
000000
000000
000000
000000
000000
000000
000000
ENDCHAR

STARTCHAR C2232
ENCODING 8754
SWIDTH 1000 0
DWIDTH 24 0
BBX 24 24 0 -4
BITMAP
000000
000000
000000
000000
000000
000000
000000
000000
000000
000000
000000
000000
000000
000000
000000
000000
000000
000000
000000
000000
000000
000000
000000
000000
ENDCHAR

STARTCHAR C2233
ENCODING 8755
SWIDTH 1000 0
DWIDTH 24 0
BBX 24 24 0 -4
BITMAP
000000
000000
000000
000000
000000
000000
000000
000000
000000
000000
000000
000000
000000
000000
000000
000000
000000
000000
000000
000000
000000
000000
000000
000000
ENDCHAR

STARTCHAR C2234
ENCODING 8756
SWIDTH 1000 0
DWIDTH 24 0
BBX 24 24 0 -4
BITMAP
000000
000000
000000
000000
000000
000000
000000
000000
000000
000000
000000
000000
000000
000000
000000
000000
000000
000000
000000
000000
000000
000000
000000
000000
ENDCHAR

STARTCHAR C2235
ENCODING 8757
SWIDTH 1000 0
DWIDTH 24 0
BBX 24 24 0 -4
BITMAP
000000
000000
000000
000000
000000
000000
000000
000000
000000
000000
000000
000000
000000
000000
000000
000000
000000
000000
000000
000000
000000
000000
000000
000000
ENDCHAR

STARTCHAR C2236
ENCODING 8758
SWIDTH 1000 0
DWIDTH 24 0
BBX 24 24 0 -4
BITMAP
000000
000000
000000
000000
000000
000000
000000
000000
000000
000000
000000
000000
000000
000000
000000
000000
000000
000000
000000
000000
000000
000000
000000
000000
ENDCHAR

STARTCHAR C2237
ENCODING 8759
SWIDTH 1000 0
DWIDTH 24 0
BBX 24 24 0 -4
BITMAP
000000
000000
000000
000000
000000
000000
000000
000000
000000
000000
000000
000000
000000
000000
000000
000000
000000
000000
000000
000000
000000
000000
000000
000000
ENDCHAR

STARTCHAR C2238
ENCODING 8760
SWIDTH 1000 0
DWIDTH 24 0
BBX 24 24 0 -4
BITMAP
000000
000000
000000
000000
000000
000000
000000
000000
000000
000000
000000
000000
000000
000000
000000
000000
000000
000000
000000
000000
000000
000000
000000
000000
ENDCHAR

STARTCHAR C2239
ENCODING 8761
SWIDTH 1000 0
DWIDTH 24 0
BBX 24 24 0 -4
BITMAP
000000
000000
000000
000000
000000
000000
000000
000000
000000
000000
000000
000000
000000
000000
000000
000000
000000
000000
000000
000000
000000
000000
000000
000000
ENDCHAR

STARTCHAR C223a
ENCODING 8762
SWIDTH 1000 0
DWIDTH 24 0
BBX 24 24 0 -4
BITMAP
000000
000000
000000
000000
000000
007FE0
01C000
030000
020000
060000
040000
07FFE0
040000
060000
020000
030000
01C000
007FE0
000000
000000
000000
000000
000000
000000
ENDCHAR

STARTCHAR C223b
ENCODING 8763
SWIDTH 1000 0
DWIDTH 24 0
BBX 24 24 0 -4
BITMAP
000000
000000
000000
000000
000000
07FE00
000380
0000C0
000040
000060
000020
07FFE0
000020
000060
000040
0000C0
000380
07FE00
000000
000000
000000
000000
000000
000000
ENDCHAR

STARTCHAR C223c
ENCODING 8764
SWIDTH 1000 0
DWIDTH 24 0
BBX 24 24 0 -4
BITMAP
000000
000000
000000
000000
000000
00FFF0
038000
060000
0C0000
080000
080000
080000
0C0000
060000
038000
00FFF0
000000
000000
0FFFF0
000000
000000
000000
000000
000000
ENDCHAR

STARTCHAR C223d
ENCODING 8765
SWIDTH 1000 0
DWIDTH 24 0
BBX 24 24 0 -4
BITMAP
000000
000000
000000
000000
000000
0FFF00
0001C0
000060
000030
000010
000010
000010
000030
000060
0001C0
0FFF00
000000
000000
0FFFF0
000000
000000
000000
000000
000000
ENDCHAR

STARTCHAR C223e
ENCODING 8766
SWIDTH 1000 0
DWIDTH 24 0
BBX 24 24 0 -4
BITMAP
000000
000000
000000
000000
000000
000000
00FFF0
038000
060000
040000
0C0000
080000
080000
0C0000
040000
060000
038000
00FFF0
000000
000000
000000
000000
000000
000000
ENDCHAR

STARTCHAR C223f
ENCODING 8767
SWIDTH 1000 0
DWIDTH 24 0
BBX 24 24 0 -4
BITMAP
000000
000000
000000
000000
000000
000000
0FFF00
0001C0
000060
000020
000030
000010
000010
000030
000020
000060
0001C0
0FFF00
000000
000000
000000
000000
000000
000000
ENDCHAR

STARTCHAR C2240
ENCODING 8768
SWIDTH 1000 0
DWIDTH 24 0
BBX 24 24 0 -4
BITMAP
000000
000000
000000
000000
020040
020040
020040
020040
020040
020040
020040
020040
020040
020040
020040
0300C0
010080
018180
00E700
003C00
000000
000000
000000
000000
ENDCHAR

STARTCHAR C2241
ENCODING 8769
SWIDTH 1000 0
DWIDTH 24 0
BBX 24 24 0 -4
BITMAP
000000
000000
000000
000000
003C00
00E700
018180
010080
0300C0
020040
020040
020040
020040
020040
020040
020040
020040
020040
020040
020040
000000
000000
000000
000000
ENDCHAR

STARTCHAR C2242
ENCODING 8770
SWIDTH 1000 0
DWIDTH 24 0
BBX 24 24 0 -4
BITMAP
000000
000000
000000
000000
000000
000000
000000
000000
000000
000000
000000
000000
000000
000000
000000
000000
000000
000000
000000
000000
000000
000000
000000
000000
ENDCHAR

STARTCHAR C2243
ENCODING 8771
SWIDTH 1000 0
DWIDTH 24 0
BBX 24 24 0 -4
BITMAP
000000
000000
000000
000000
000000
000000
000000
000000
000000
000000
000000
000000
000000
000000
000000
000000
000000
000000
000000
000000
000000
000000
000000
000000
ENDCHAR

STARTCHAR C2244
ENCODING 8772
SWIDTH 1000 0
DWIDTH 24 0
BBX 24 24 0 -4
BITMAP
000000
000000
000000
000000
000000
000000
000000
000000
000000
000000
000000
000000
000000
000000
000000
000000
000000
000000
000000
000000
000000
000000
000000
000000
ENDCHAR

STARTCHAR C2245
ENCODING 8773
SWIDTH 1000 0
DWIDTH 24 0
BBX 24 24 0 -4
BITMAP
000000
000000
000000
000000
000000
000000
000000
000000
000000
000000
000000
000000
000000
000000
000000
000000
000000
000000
000000
000000
000000
000000
000000
000000
ENDCHAR

STARTCHAR C2246
ENCODING 8774
SWIDTH 1000 0
DWIDTH 24 0
BBX 24 24 0 -4
BITMAP
000000
000000
000000
000000
000000
000000
000000
000000
000000
000000
000000
000000
000000
000000
000000
000000
000000
000000
000000
000000
000000
000000
000000
000000
ENDCHAR

STARTCHAR C2247
ENCODING 8775
SWIDTH 1000 0
DWIDTH 24 0
BBX 24 24 0 -4
BITMAP
000000
000000
000000
000000
000000
000000
000000
000000
000000
000000
000000
000000
000000
000000
000000
000000
000000
000000
000000
000000
000000
000000
000000
000000
ENDCHAR

STARTCHAR C2248
ENCODING 8776
SWIDTH 1000 0
DWIDTH 24 0
BBX 24 24 0 -4
BITMAP
000000
000000
000000
000000
000000
000000
000000
000000
000000
000000
000000
000000
000000
000000
000000
000000
000000
000000
000000
000000
000000
000000
000000
000000
ENDCHAR

STARTCHAR C2249
ENCODING 8777
SWIDTH 1000 0
DWIDTH 24 0
BBX 24 24 0 -4
BITMAP
000000
000000
000000
000000
000000
000000
000000
000000
000000
000000
000000
000000
000000
000000
000000
000000
000000
000000
000000
000000
000000
000000
000000
000000
ENDCHAR

STARTCHAR C224a
ENCODING 8778
SWIDTH 1000 0
DWIDTH 24 0
BBX 24 24 0 -4
BITMAP
000000
000000
000000
001000
001000
003800
002800
006C00
004400
00C600
008200
018300
010100
030180
020080
0600C0
040040
0C0060
080020
080020
000000
000000
000000
000000
ENDCHAR

STARTCHAR C224b
ENCODING 8779
SWIDTH 1000 0
DWIDTH 24 0
BBX 24 24 0 -4
BITMAP
000000
000000
000000
080020
080020
0C0060
040040
0600C0
020080
030180
010100
018300
008200
00C600
004400
006C00
002800
003800
001000
001000
000000
000000
000000
000000
ENDCHAR

STARTCHAR C224c
ENCODING 8780
SWIDTH 1000 0
DWIDTH 24 0
BBX 24 24 0 -4
BITMAP
000000
000000
000000
000000
000000
000000
000000
000000
000000
000000
0FFFF0
000010
000010
000010
000010
000010
000010
000000
000000
000000
000000
000000
000000
000000
ENDCHAR

STARTCHAR C224d
ENCODING 8781
SWIDTH 1000 0
DWIDTH 24 0
BBX 24 24 0 -4
BITMAP
000000
000000
000000
000000
000000
000180
0000C0
000060
7FFFF0
000018
00000C
000006
00000C
000018
7FFFF0
000060
0000C0
000180
000000
000000
000000
000000
000000
000000
ENDCHAR

STARTCHAR C224e
ENCODING 8782
SWIDTH 1000 0
DWIDTH 24 0
BBX 24 24 0 -4
BITMAP
000000
000000
000000
000000
000000
018180
0300C0
060060
0FFFF0
180018
30000C
600006
30000C
180018
0FFFF0
060060
0300C0
018180
000000
000000
000000
000000
000000
000000
ENDCHAR

STARTCHAR C224f
ENCODING 8783
SWIDTH 1000 0
DWIDTH 24 0
BBX 24 24 0 -4
BITMAP
000000
000000
100010
100010
180030
080020
0C0060
040040
07FFC0
020080
030180
010100
018300
008200
00C600
004400
006C00
002800
003800
001000
001000
000000
000000
000000
ENDCHAR

STARTCHAR C2250
ENCODING 8784
SWIDTH 1000 0
DWIDTH 24 0
BBX 24 24 0 -4
BITMAP
000000
000000
000000
000000
07FFE0
000020
000020
000020
000020
000020
000020
07FFE0
000020
000020
000020
000020
000020
000020
07FFE0
000000
000000
000000
000000
000000
ENDCHAR

STARTCHAR C2251
ENCODING 8785
SWIDTH 1000 0
DWIDTH 24 0
BBX 24 24 0 -4
BITMAP
000000
000000
000000
000000
000000
000000
000000
000000
000000
000000
000000
000000
000000
000000
000000
000000
000000
000000
000000
000000
000000
000000
000000
000000
ENDCHAR

STARTCHAR C2252
ENCODING 8786
SWIDTH 1000 0
DWIDTH 24 0
BBX 24 24 0 -4
BITMAP
000000
000000
000000
000000
000000
000000
000000
000000
000000
000000
000000
000000
000000
000000
000000
000000
000000
000000
000000
000000
000000
000000
000000
000000
ENDCHAR

STARTCHAR C2253
ENCODING 8787
SWIDTH 1000 0
DWIDTH 24 0
BBX 24 24 0 -4
BITMAP
000000
000000
000000
000000
000000
000000
000000
000000
000000
000000
000000
000000
000000
000000
000000
000000
000000
000000
000000
000000
000000
000000
000000
000000
ENDCHAR

STARTCHAR C2254
ENCODING 8788
SWIDTH 1000 0
DWIDTH 24 0
BBX 24 24 0 -4
BITMAP
000000
000000
000000
000000
000000
000000
000000
000000
000000
000000
000000
000000
000000
000000
000000
000000
000000
000000
000000
000000
000000
000000
000000
000000
ENDCHAR

STARTCHAR C2255
ENCODING 8789
SWIDTH 1000 0
DWIDTH 24 0
BBX 24 24 0 -4
BITMAP
000000
000000
000000
000000
000000
000000
000000
000000
000000
000000
000000
000000
000000
000000
000000
000000
000000
000000
000000
000000
000000
000000
000000
000000
ENDCHAR

STARTCHAR C2256
ENCODING 8790
SWIDTH 1000 0
DWIDTH 24 0
BBX 24 24 0 -4
BITMAP
000000
000000
000000
000000
000000
000000
000000
000000
000000
000000
000000
000000
000000
000000
000000
000000
000000
000000
000000
000000
000000
000000
000000
000000
ENDCHAR

STARTCHAR C2257
ENCODING 8791
SWIDTH 1000 0
DWIDTH 24 0
BBX 24 24 0 -4
BITMAP
000000
000000
000000
000000
000000
000000
000000
000000
000000
000000
000000
000000
000000
000000
000000
000000
000000
000000
000000
000000
000000
000000
000000
000000
ENDCHAR

STARTCHAR C2258
ENCODING 8792
SWIDTH 1000 0
DWIDTH 24 0
BBX 24 24 0 -4
BITMAP
000000
000000
000000
000000
000000
000000
000000
000000
000000
000000
000000
000000
000000
000000
000000
000000
000000
000000
000000
000000
000000
000000
000000
000000
ENDCHAR

STARTCHAR C2259
ENCODING 8793
SWIDTH 1000 0
DWIDTH 24 0
BBX 24 24 0 -4
BITMAP
000000
000000
000000
000000
000000
000000
000000
000000
000000
000000
000000
000000
000000
000000
000000
000000
000000
000000
000000
000000
000000
000000
000000
000000
ENDCHAR

STARTCHAR C225a
ENCODING 8794
SWIDTH 1000 0
DWIDTH 24 0
BBX 24 24 0 -4
BITMAP
000000
000000
000000
000000
000000
000000
000000
000000
000000
000000
000000
000000
000000
000000
000000
000000
000000
000000
000000
000000
000000
000000
000000
000000
ENDCHAR

STARTCHAR C225b
ENCODING 8795
SWIDTH 1000 0
DWIDTH 24 0
BBX 24 24 0 -4
BITMAP
000000
000000
000000
000000
000000
000000
000000
000000
000000
000000
000000
000000
000000
000000
000000
000000
000000
000000
000000
000000
000000
000000
000000
000000
ENDCHAR

STARTCHAR C225c
ENCODING 8796
SWIDTH 1000 0
DWIDTH 24 0
BBX 24 24 0 -4
BITMAP
000000
000000
000000
000000
000040
0000C0
000180
000300
000600
000C00
001800
003000
006000
00C000
018000
030000
060000
0C0000
1FFFF0
000000
000000
000000
000000
000000
ENDCHAR

STARTCHAR C225d
ENCODING 8797
SWIDTH 1000 0
DWIDTH 24 0
BBX 24 24 0 -4
BITMAP
000000
000000
000000
000000
001000
001000
001000
001000
001000
001000
001000
001000
001000
001000
001000
001000
001000
001000
0FFFF0
000000
000000
000000
000000
000000
ENDCHAR

STARTCHAR C225e
ENCODING 8798
SWIDTH 1000 0
DWIDTH 24 0
BBX 24 24 0 -4
BITMAP
000000
03FFC0
1E0078
70000E
000000
000000
000000
000000
000000
000000
000000
000000
000000
000000
000000
000000
000000
000000
000000
000000
000000
000000
000000
000000
ENDCHAR

STARTCHAR C225f
ENCODING 8799
SWIDTH 1000 0
DWIDTH 24 0
BBX 24 24 0 -4
BITMAP
000000
000000
000000
000700
001F80
0030C0
004040
000060
000060
003E60
00C1C0
0180C0
0300C0
030180
060180
060300
060300
060600
030C00
00F000
000000
000000
000000
000000
ENDCHAR

STARTCHAR C2260
ENCODING 8800
SWIDTH 1000 0
DWIDTH 24 0
BBX 24 24 0 -4
BITMAP
000000
000000
000000
1FFFF0
1FFFF0
0C0020
0C0060
060040
0600C0
030080
030180
018100
018300
00C200
00C600
006400
006C00
003800
003800
001000
001000
000000
000000
000000
ENDCHAR

STARTCHAR C2261
ENCODING 8801
SWIDTH 1000 0
DWIDTH 24 0
BBX 24 24 0 -4
BITMAP
000000
000000
000000
000000
000000
000000
0FFFF0
000000
000000
000000
000000
0FFFF0
000000
000000
000000
000000
0FFFF0
000000
000000
000000
000000
000000
000000
000000
ENDCHAR

STARTCHAR C2262
ENCODING 8802
SWIDTH 1000 0
DWIDTH 24 0
BBX 24 24 0 -4
BITMAP
000000
000000
000000
000000
000000
030000
030000
000000
000000
0FFFF0
000000
000000
000000
000000
0FFFF0
000000
000000
0000C0
0000C0
000000
000000
000000
000000
000000
ENDCHAR

STARTCHAR C2263
ENCODING 8803
SWIDTH 1000 0
DWIDTH 24 0
BBX 24 24 0 -4
BITMAP
000000
000000
000000
00030C
000E38
001860
0071C0
00C300
038E00
061800
1C7000
30C000
1C7000
061800
038E00
00C300
0071C0
001860
000E38
00030C
000000
000000
000000
000000
ENDCHAR

STARTCHAR C2264
ENCODING 8804
SWIDTH 1000 0
DWIDTH 24 0
BBX 24 24 0 -4
BITMAP
000000
000000
000000
30C000
1C7000
061800
038E00
00C300
0071C0
001860
000E38
00030C
000E38
001860
0071C0
00C300
038E00
061800
1C7000
30C000
000000
000000
000000
000000
ENDCHAR

STARTCHAR C2265
ENCODING 8805
SWIDTH 1000 0
DWIDTH 24 0
BBX 24 24 0 -4
BITMAP
000000
0007FE
000400
000C00
000800
000800
001800
001000
001000
003000
002000
002000
006000
004000
004000
08C000
188000
3C8000
6D8000
0D0000
0F0000
070000
060000
000000
ENDCHAR

STARTCHAR C2266
ENCODING 8806
SWIDTH 1000 0
DWIDTH 24 0
BBX 24 24 0 -4
BITMAP
000000
000000
000000
000000
000000
000000
000000
0781E0
1CC738
100C08
30080C
201804
201004
30100C
103008
1CE338
0781E0
000000
000000
000000
000000
000000
000000
000000
ENDCHAR

STARTCHAR C2267
ENCODING 8807
SWIDTH 1000 0
DWIDTH 24 0
BBX 24 24 0 -4
BITMAP
000000
000000
000000
000000
000000
000000
000000
07C1F0
1C771C
101404
301C00
200800
200800
301C00
101404
1C771C
07C1F0
000000
000000
000000
000000
000000
000000
000000
ENDCHAR

STARTCHAR C2268
ENCODING 8808
SWIDTH 1000 0
DWIDTH 24 0
BBX 24 24 0 -4
BITMAP
000000
000000
000000
000000
000000
060060
0F00F0
0F00F0
060060
000000
000000
000000
000000
000000
000000
001800
003C00
003C00
001800
000000
000000
000000
000000
000000
ENDCHAR

STARTCHAR C2269
ENCODING 8809
SWIDTH 1000 0
DWIDTH 24 0
BBX 24 24 0 -4
BITMAP
000000
001C00
002600
002600
002000
002000
003000
003000
003000
001000
001800
001800
001800
001800
000800
000C00
000C00
000C00
000400
000400
006400
006400
003800
000000
ENDCHAR

STARTCHAR C226a
ENCODING 8810
SWIDTH 1000 0
DWIDTH 24 0
BBX 24 24 0 -4
BITMAP
000000
01C1C0
026260
026260
020200
020200
030300
030300
030300
010100
018180
018180
018180
018180
008080
00C0C0
00C0C0
00C0C0
004040
004040
064640
064640
038380
000000
ENDCHAR

STARTCHAR C226b
ENCODING 8811
SWIDTH 1000 0
DWIDTH 24 0
BBX 24 24 0 -4
BITMAP
000000
000000
000000
000000
000000
000000
000000
000000
000000
000000
000000
000000
000000
000000
000000
000000
000000
000000
000000
000000
000000
000000
000000
000000
ENDCHAR

STARTCHAR C226c
ENCODING 8812
SWIDTH 1000 0
DWIDTH 24 0
BBX 24 24 0 -4
BITMAP
000000
000000
000000
000000
000000
000000
000000
000000
000000
000000
000000
000000
000000
000000
000000
000000
000000
000000
000000
000000
000000
000000
000000
000000
ENDCHAR

STARTCHAR C226d
ENCODING 8813
SWIDTH 1000 0
DWIDTH 24 0
BBX 24 24 0 -4
BITMAP
000000
000000
000000
000000
000000
000000
000000
000000
000000
000000
000000
000000
000000
000000
000000
000000
000000
000000
000000
000000
000000
000000
000000
000000
ENDCHAR

STARTCHAR C226e
ENCODING 8814
SWIDTH 1000 0
DWIDTH 24 0
BBX 24 24 0 -4
BITMAP
000000
000000
000000
000000
000000
000000
000000
000000
000000
000000
000000
000000
000000
000000
000000
000000
000000
000000
000000
000000
000000
000000
000000
000000
ENDCHAR

STARTCHAR C226f
ENCODING 8815
SWIDTH 1000 0
DWIDTH 24 0
BBX 24 24 0 -4
BITMAP
000000
000000
000000
000000
000000
000000
000000
000000
000000
000000
000000
000000
000000
000000
000000
000000
000000
000000
000000
000000
000000
000000
000000
000000
ENDCHAR

STARTCHAR C2270
ENCODING 8816
SWIDTH 1000 0
DWIDTH 24 0
BBX 24 24 0 -4
BITMAP
000000
000000
000000
000000
000000
000000
000000
000000
000000
000000
000000
000000
000000
000000
000000
000000
000000
000000
000000
000000
000000
000000
000000
000000
ENDCHAR

STARTCHAR C2271
ENCODING 8817
SWIDTH 1000 0
DWIDTH 24 0
BBX 24 24 0 -4
BITMAP
000000
000000
000000
000000
000000
000000
000000
000000
000000
000000
000000
000000
000000
000000
000000
000000
000000
000000
000000
000000
000000
000000
000000
000000
ENDCHAR

STARTCHAR C2272
ENCODING 8818
SWIDTH 1000 0
DWIDTH 24 0
BBX 24 24 0 -4
BITMAP
000000
003C00
006600
004200
004200
006600
003C00
001800
001800
003800
002C00
006C00
004600
00C600
008300
018300
01FF80
030180
0200C0
0600E0
1F81F8
000000
000000
000000
ENDCHAR

STARTCHAR C2273
ENCODING 8819
SWIDTH 1000 0
DWIDTH 24 0
BBX 24 24 0 -4
BITMAP
000000
000000
1C0400
360400
220C00
631800
631000
633000
226000
364000
1CC000
018000
010000
033838
066C6C
044444
0CC6C6
18C6C6
10C6C6
304444
606C6C
403838
000000
000000
ENDCHAR

STARTCHAR C2274
ENCODING 8820
SWIDTH 1000 0
DWIDTH 24 0
BBX 24 24 0 -4
BITMAP
000000
000000
000000
000000
000100
008100
008100
0081F0
00FFF0
0FFF00
0F8100
008100
008100
008100
0081F0
00FFF0
0FFF00
0F8100
008100
008100
008000
000000
000000
000000
ENDCHAR

STARTCHAR C2275
ENCODING 8821
SWIDTH 1000 0
DWIDTH 24 0
BBX 24 24 0 -4
BITMAP
000000
008000
008000
008000
008000
008000
008000
008000
008000
008F00
00B180
00C0C0
0080C0
0080C0
0080C0
008180
008180
008300
008600
008C00
00B800
00E000
008000
000000
ENDCHAR

STARTCHAR C2276
ENCODING 8822
SWIDTH 1000 0
DWIDTH 24 0
BBX 24 24 0 -4
BITMAP
000000
000800
000800
000C00
000E00
000F00
000BC0
0008E0
000830
000810
000810
000810
000820
000820
000840
000880
000800
00F800
03F800
07F000
07F000
07E000
038000
000000
ENDCHAR

STARTCHAR C2277
ENCODING 8823
SWIDTH 1000 0
DWIDTH 24 0
BBX 24 24 0 -4
BITMAP
000000
001000
003800
003800
001000
019300
03FF80
019300
001000
001000
007C00
003800
003800
003800
001000
001000
001000
001000
001000
001000
001000
001000
001000
000000
ENDCHAR

STARTCHAR C2278
ENCODING 8824
SWIDTH 1000 0
DWIDTH 24 0
BBX 24 24 0 -4
BITMAP
000000
001000
003800
003800
001000
019300
03FF80
019300
001000
003800
003800
001000
001000
003800
003800
001000
019300
03FF80
019300
001000
003800
003800
001000
000000
ENDCHAR

STARTCHAR C2279
ENCODING 8825
SWIDTH 1000 0
DWIDTH 24 0
BBX 24 24 0 -4
BITMAP
000000
000000
00FF80
03F180
03F180
07F180
07F180
07F180
03F180
03F180
00F180
003180
003180
003180
003180
003180
003180
003180
003180
003180
003180
003180
003180
000000
ENDCHAR

STARTCHAR C227a
ENCODING 8826
SWIDTH 1000 0
DWIDTH 24 0
BBX 24 24 0 -4
BITMAP
000000
000000
000000
000000
000000
000000
000000
000000
000000
000000
000000
000000
000000
000000
000000
000000
000000
000000
000000
000000
000000
000000
000000
000000
ENDCHAR

STARTCHAR C227b
ENCODING 8827
SWIDTH 1000 0
DWIDTH 24 0
BBX 24 24 0 -4
BITMAP
000000
000000
000000
000000
000000
000000
000000
000000
000000
000000
000000
000000
000000
000000
000000
000000
000000
000000
000000
000000
000000
000000
000000
000000
ENDCHAR

STARTCHAR C227c
ENCODING 8828
SWIDTH 1000 0
DWIDTH 24 0
BBX 24 24 0 -4
BITMAP
000000
000000
000000
000000
000000
000000
000000
000000
000000
000000
000000
000000
000000
000000
000000
000000
000000
000000
000000
000000
000000
000000
000000
000000
ENDCHAR

STARTCHAR C227d
ENCODING 8829
SWIDTH 1000 0
DWIDTH 24 0
BBX 24 24 0 -4
BITMAP
000000
000000
000000
000000
000000
000000
000000
000000
000000
000000
000000
000000
000000
000000
000000
000000
000000
000000
000000
000000
000000
000000
000000
000000
ENDCHAR

STARTCHAR C227e
ENCODING 8830
SWIDTH 1000 0
DWIDTH 24 0
BBX 24 24 0 -4
BITMAP
000000
00FF00
0300C0
040020
080010
100008
200004
200004
400002
400002
400002
400002
400002
400002
400002
400002
200004
200004
100008
080010
040020
0300C0
00FF00
000000
ENDCHAR

STARTCHAR C2321
ENCODING 8993
SWIDTH 1000 0
DWIDTH 24 0
BBX 24 24 0 -4
BITMAP
000000
000000
000000
000000
000000
000000
000000
000000
000000
000000
000000
000000
000000
000000
000000
000000
000000
000000
000000
000000
000000
000000
000000
000000
ENDCHAR

STARTCHAR C2322
ENCODING 8994
SWIDTH 1000 0
DWIDTH 24 0
BBX 24 24 0 -4
BITMAP
000000
000000
000000
000000
000000
000000
000000
000000
000000
000000
000000
000000
000000
000000
000000
000000
000000
000000
000000
000000
000000
000000
000000
000000
ENDCHAR

STARTCHAR C2323
ENCODING 8995
SWIDTH 1000 0
DWIDTH 24 0
BBX 24 24 0 -4
BITMAP
000000
000000
000000
000000
000000
000000
000000
000000
000000
000000
000000
000000
000000
000000
000000
000000
000000
000000
000000
000000
000000
000000
000000
000000
ENDCHAR

STARTCHAR C2324
ENCODING 8996
SWIDTH 1000 0
DWIDTH 24 0
BBX 24 24 0 -4
BITMAP
000000
000000
000000
000000
000000
000000
000000
000000
000000
000000
000000
000000
000000
000000
000000
000000
000000
000000
000000
000000
000000
000000
000000
000000
ENDCHAR

STARTCHAR C2325
ENCODING 8997
SWIDTH 1000 0
DWIDTH 24 0
BBX 24 24 0 -4
BITMAP
000000
000000
000000
000000
000000
000000
000000
000000
000000
000000
000000
000000
000000
000000
000000
000000
000000
000000
000000
000000
000000
000000
000000
000000
ENDCHAR

STARTCHAR C2326
ENCODING 8998
SWIDTH 1000 0
DWIDTH 24 0
BBX 24 24 0 -4
BITMAP
000000
000000
000000
000000
000000
000000
000000
000000
000000
000000
000000
000000
000000
000000
000000
000000
000000
000000
000000
000000
000000
000000
000000
000000
ENDCHAR

STARTCHAR C2327
ENCODING 8999
SWIDTH 1000 0
DWIDTH 24 0
BBX 24 24 0 -4
BITMAP
000000
000000
000000
000000
000000
000000
000000
000000
000000
000000
000000
000000
000000
000000
000000
000000
000000
000000
000000
000000
000000
000000
000000
000000
ENDCHAR

STARTCHAR C2328
ENCODING 9000
SWIDTH 1000 0
DWIDTH 24 0
BBX 24 24 0 -4
BITMAP
000000
000000
000000
000000
000000
000000
000000
000000
000000
000000
000000
000000
000000
000000
000000
000000
000000
000000
000000
000000
000000
000000
000000
000000
ENDCHAR

STARTCHAR C2329
ENCODING 9001
SWIDTH 1000 0
DWIDTH 24 0
BBX 24 24 0 -4
BITMAP
000000
000000
000000
000000
000000
000000
000000
000000
000000
000000
000000
000000
000000
000000
000000
000000
000000
000000
000000
000000
000000
000000
000000
000000
ENDCHAR

STARTCHAR C232a
ENCODING 9002
SWIDTH 1000 0
DWIDTH 24 0
BBX 24 24 0 -4
BITMAP
000000
000000
000000
000000
000000
000000
000000
000000
000000
000000
000000
000000
000000
000000
000000
000000
000000
000000
000000
000000
000000
000000
000000
000000
ENDCHAR

STARTCHAR C232b
ENCODING 9003
SWIDTH 1000 0
DWIDTH 24 0
BBX 24 24 0 -4
BITMAP
000000
000000
000000
000000
000000
000000
000000
000000
000000
000000
000000
000000
000000
000000
000000
000000
000000
000000
000000
000000
000000
000000
000000
000000
ENDCHAR

STARTCHAR C232c
ENCODING 9004
SWIDTH 1000 0
DWIDTH 24 0
BBX 24 24 0 -4
BITMAP
000000
000000
000000
000000
000000
000000
000000
000000
000000
000000
000000
000000
000000
000000
000000
000000
000000
000000
000000
000000
000000
000000
000000
000000
ENDCHAR

STARTCHAR C232d
ENCODING 9005
SWIDTH 1000 0
DWIDTH 24 0
BBX 24 24 0 -4
BITMAP
000000
000000
000000
000000
000000
000000
000000
000000
000000
000000
000000
000000
000000
000000
000000
000000
000000
000000
000000
000000
000000
000000
000000
000000
ENDCHAR

STARTCHAR C232e
ENCODING 9006
SWIDTH 1000 0
DWIDTH 24 0
BBX 24 24 0 -4
BITMAP
000000
000000
000000
000000
000000
000000
000000
000000
000000
000000
000000
000000
000000
000000
000000
000000
000000
000000
000000
000000
000000
000000
000000
000000
ENDCHAR

STARTCHAR C232f
ENCODING 9007
SWIDTH 1000 0
DWIDTH 24 0
BBX 24 24 0 -4
BITMAP
000000
000000
000000
000000
000000
000000
000000
000000
000000
000000
000000
000000
000000
000000
000000
000000
000000
000000
000000
000000
000000
000000
000000
000000
ENDCHAR

STARTCHAR C2330
ENCODING 9008
SWIDTH 1000 0
DWIDTH 24 0
BBX 24 24 0 -4
BITMAP
000000
000000
000000
003C00
00E700
018180
018180
0300C0
0300C0
0300C0
0300C0
0300C0
0300C0
0300C0
0300C0
0300C0
0300C0
018180
018180
00E700
003C00
000000
000000
000000
ENDCHAR

STARTCHAR C2331
ENCODING 9009
SWIDTH 1000 0
DWIDTH 24 0
BBX 24 24 0 -4
BITMAP
000000
000000
000000
001800
007800
01F800
001800
001800
001800
001800
001800
001800
001800
001800
001800
001800
001800
001800
001800
001800
00FF00
000000
000000
000000
ENDCHAR

STARTCHAR C2332
ENCODING 9010
SWIDTH 1000 0
DWIDTH 24 0
BBX 24 24 0 -4
BITMAP
000000
000000
000000
007E00
01C380
018180
0300C0
0300C0
0000C0
000180
000180
000300
000600
000C00
001800
003000
006040
00C040
0180C0
03FFC0
03FFC0
000000
000000
000000
ENDCHAR

STARTCHAR C2333
ENCODING 9011
SWIDTH 1000 0
DWIDTH 24 0
BBX 24 24 0 -4
BITMAP
000000
000000
000000
007C00
01C700
030380
000180
000180
000180
000300
000E00
007C00
000700
000180
0001C0
0000C0
0000C0
0200C0
030180
01C780
007E00
000000
000000
000000
ENDCHAR

STARTCHAR C2334
ENCODING 9012
SWIDTH 1000 0
DWIDTH 24 0
BBX 24 24 0 -4
BITMAP
000000
000000
000000
000E00
000E00
001E00
001600
003600
002600
006600
004600
00C600
008600
018600
010600
030600
03FFC0
000600
000600
000600
003FC0
000000
000000
000000
ENDCHAR

STARTCHAR C2335
ENCODING 9013
SWIDTH 1000 0
DWIDTH 24 0
BBX 24 24 0 -4
BITMAP
000000
000000
000000
01FF80
01FF00
010000
010000
010000
010000
017C00
01C700
030180
020180
0000C0
0000C0
0000C0
0000C0
0001C0
030180
01C700
007C00
000000
000000
000000
ENDCHAR

STARTCHAR C2336
ENCODING 9014
SWIDTH 1000 0
DWIDTH 24 0
BBX 24 24 0 -4
BITMAP
000000
000000
000000
003C00
00E700
018180
018180
030000
030000
033C00
03E700
038180
038180
0300C0
0300C0
0300C0
0300C0
018180
018180
00E700
003C00
000000
000000
000000
ENDCHAR

STARTCHAR C2337
ENCODING 9015
SWIDTH 1000 0
DWIDTH 24 0
BBX 24 24 0 -4
BITMAP
000000
000000
000000
03FFC0
03FFC0
0200C0
020180
000300
000600
000600
000C00
000C00
001800
001800
001800
003000
003000
003000
003000
003000
003000
000000
000000
000000
ENDCHAR

STARTCHAR C2338
ENCODING 9016
SWIDTH 1000 0
DWIDTH 24 0
BBX 24 24 0 -4
BITMAP
000000
000000
000000
007E00
01E780
0381C0
0300C0
0300C0
0300C0
0381C0
01E780
007E00
00E700
018180
0300C0
0300C0
0300C0
0300C0
0381C0
01E780
007E00
000000
000000
000000
ENDCHAR

STARTCHAR C2339
ENCODING 9017
SWIDTH 1000 0
DWIDTH 24 0
BBX 24 24 0 -4
BITMAP
000000
000000
000000
003C00
00E700
018180
018180
0300C0
0300C0
0300C0
0300C0
0181C0
0181C0
00E7C0
003CC0
0000C0
0000C0
018180
018180
00E700
003C00
000000
000000
000000
ENDCHAR

STARTCHAR C233a
ENCODING 9018
SWIDTH 1000 0
DWIDTH 24 0
BBX 24 24 0 -4
BITMAP
000000
000000
000000
000000
000000
000000
000000
000000
000000
000000
000000
000000
000000
000000
000000
000000
000000
000000
000000
000000
000000
000000
000000
000000
ENDCHAR

STARTCHAR C233b
ENCODING 9019
SWIDTH 1000 0
DWIDTH 24 0
BBX 24 24 0 -4
BITMAP
000000
000000
000000
000000
000000
000000
000000
000000
000000
000000
000000
000000
000000
000000
000000
000000
000000
000000
000000
000000
000000
000000
000000
000000
ENDCHAR

STARTCHAR C233c
ENCODING 9020
SWIDTH 1000 0
DWIDTH 24 0
BBX 24 24 0 -4
BITMAP
000000
000000
000000
000000
000000
000000
000000
000000
000000
000000
000000
000000
000000
000000
000000
000000
000000
000000
000000
000000
000000
000000
000000
000000
ENDCHAR

STARTCHAR C233d
ENCODING 9021
SWIDTH 1000 0
DWIDTH 24 0
BBX 24 24 0 -4
BITMAP
000000
000000
000000
000000
000000
000000
000000
000000
000000
000000
000000
000000
000000
000000
000000
000000
000000
000000
000000
000000
000000
000000
000000
000000
ENDCHAR

STARTCHAR C233e
ENCODING 9022
SWIDTH 1000 0
DWIDTH 24 0
BBX 24 24 0 -4
BITMAP
000000
000000
000000
000000
000000
000000
000000
000000
000000
000000
000000
000000
000000
000000
000000
000000
000000
000000
000000
000000
000000
000000
000000
000000
ENDCHAR

STARTCHAR C233f
ENCODING 9023
SWIDTH 1000 0
DWIDTH 24 0
BBX 24 24 0 -4
BITMAP
000000
000000
000000
000000
000000
000000
000000
000000
000000
000000
000000
000000
000000
000000
000000
000000
000000
000000
000000
000000
000000
000000
000000
000000
ENDCHAR

STARTCHAR C2340
ENCODING 9024
SWIDTH 1000 0
DWIDTH 24 0
BBX 24 24 0 -4
BITMAP
000000
000000
000000
000000
000000
000000
000000
000000
000000
000000
000000
000000
000000
000000
000000
000000
000000
000000
000000
000000
000000
000000
000000
000000
ENDCHAR

STARTCHAR C2341
ENCODING 9025
SWIDTH 1000 0
DWIDTH 24 0
BBX 24 24 0 -4
BITMAP
000000
000000
000000
000800
001800
001C00
003C00
002E00
006600
004700
00C300
008380
018180
0101C0
03FFC0
0200E0
060060
040070
0C0030
080038
3E00FC
000000
000000
000000
ENDCHAR

STARTCHAR C2342
ENCODING 9026
SWIDTH 1000 0
DWIDTH 24 0
BBX 24 24 0 -4
BITMAP
000000
000000
000000
0FFF00
0303C0
0300E0
030060
030060
030060
0300C0
030380
03FE00
030380
0300E0
030070
030030
030030
030030
030070
0301E0
0FFF80
000000
000000
000000
ENDCHAR

STARTCHAR C2343
ENCODING 9027
SWIDTH 1000 0
DWIDTH 24 0
BBX 24 24 0 -4
BITMAP
000000
000000
000000
003F00
00E1C0
018060
030030
060030
060000
0C0000
0C0000
0C0000
0C0000
0C0000
0C0010
060010
060020
030060
01C1C0
00FF80
003E00
000000
000000
000000
ENDCHAR

STARTCHAR C2344
ENCODING 9028
SWIDTH 1000 0
DWIDTH 24 0
BBX 24 24 0 -4
BITMAP
000000
000000
000000
0FFC00
030700
0301C0
0300E0
030060
030070
030030
030030
030030
030030
030030
030030
030070
030060
0300E0
0301C0
030700
0FFC00
000000
000000
000000
ENDCHAR

STARTCHAR C2345
ENCODING 9029
SWIDTH 1000 0
DWIDTH 24 0
BBX 24 24 0 -4
BITMAP
000000
000000
000000
0FFFE0
018060
018030
018010
018010
018100
018100
018300
01FF00
018300
018100
018100
018000
018010
018010
018030
018060
0FFFE0
000000
000000
000000
ENDCHAR

STARTCHAR C2346
ENCODING 9030
SWIDTH 1000 0
DWIDTH 24 0
BBX 24 24 0 -4
BITMAP
000000
000000
000000
0FFFE0
018060
018030
018010
018010
018100
018100
018300
01FF00
018300
018100
018100
018000
018000
018000
018000
018000
0FF000
000000
000000
000000
ENDCHAR

STARTCHAR C2347
ENCODING 9031
SWIDTH 1000 0
DWIDTH 24 0
BBX 24 24 0 -4
BITMAP
000000
000000
000000
003F00
00E1C0
018060
030030
060030
060000
0C0000
0C0000
0C0000
0C0000
0C01FC
0C0030
060030
060030
030030
01C0F0
00FFB0
003E10
000000
000000
000000
ENDCHAR

STARTCHAR C2348
ENCODING 9032
SWIDTH 1000 0
DWIDTH 24 0
BBX 24 24 0 -4
BITMAP
000000
000000
000000
0FC3F0
0300C0
0300C0
0300C0
0300C0
0300C0
0300C0
0300C0
03FFC0
0300C0
0300C0
0300C0
0300C0
0300C0
0300C0
0300C0
0300C0
0FC3F0
000000
000000
000000
ENDCHAR

STARTCHAR C2349
ENCODING 9033
SWIDTH 1000 0
DWIDTH 24 0
BBX 24 24 0 -4
BITMAP
000000
000000
000000
007E00
001800
001800
001800
001800
001800
001800
001800
001800
001800
001800
001800
001800
001800
001800
001800
001800
007E00
000000
000000
000000
ENDCHAR

STARTCHAR C234a
ENCODING 9034
SWIDTH 1000 0
DWIDTH 24 0
BBX 24 24 0 -4
BITMAP
000000
000000
000000
001F80
000600
000600
000600
000600
000600
000600
000600
000600
000600
000600
000600
000600
000600
018600
018600
00CC00
007800
000000
000000
000000
ENDCHAR

STARTCHAR C234b
ENCODING 9035
SWIDTH 1000 0
DWIDTH 24 0
BBX 24 24 0 -4
BITMAP
000000
000000
000000
0FC3F0
0300C0
030180
030300
030600
030C00
031800
033000
036000
03F000
03B800
031C00
030E00
030700
030380
0301C0
0300E0
0FC3F8
000000
000000
000000
ENDCHAR

STARTCHAR C234c
ENCODING 9036
SWIDTH 1000 0
DWIDTH 24 0
BBX 24 24 0 -4
BITMAP
000000
000000
000000
07E000
018000
018000
018000
018000
018000
018000
018000
018000
018000
018000
018000
018000
018010
018010
018030
018060
07FFE0
000000
000000
000000
ENDCHAR

STARTCHAR C234d
ENCODING 9037
SWIDTH 1000 0
DWIDTH 24 0
BBX 24 24 0 -4
BITMAP
000000
000000
000000
7E007E
160078
130058
1300D8
130098
118098
118198
118118
10C118
10C318
10C218
106218
106618
106418
103418
103C18
101818
7E187E
000000
000000
000000
ENDCHAR

STARTCHAR C234e
ENCODING 9038
SWIDTH 1000 0
DWIDTH 24 0
BBX 24 24 0 -4
BITMAP
000000
000000
000000
1E00F8
070020
078020
05C020
04C020
046020
047020
043820
041C20
040C20
040E20
040720
0403A0
0401E0
0400E0
0400E0
040060
1F0020
000000
000000
000000
ENDCHAR

STARTCHAR C234f
ENCODING 9039
SWIDTH 1000 0
DWIDTH 24 0
BBX 24 24 0 -4
BITMAP
000000
000000
000000
007E00
01C380
0300C0
060060
060060
0C0030
0C0030
0C0030
0C0030
0C0030
0C0030
0C0030
0C0030
060060
060060
0300C0
01C380
007E00
000000
000000
000000
ENDCHAR

STARTCHAR C2350
ENCODING 9040
SWIDTH 1000 0
DWIDTH 24 0
BBX 24 24 0 -4
BITMAP
000000
000000
000000
0FFE00
030380
0300C0
030060
030060
030060
030060
0300C0
030380
03FE00
030000
030000
030000
030000
030000
030000
030000
0FC000
000000
000000
000000
ENDCHAR

STARTCHAR C2351
ENCODING 9041
SWIDTH 1000 0
DWIDTH 24 0
BBX 24 24 0 -4
BITMAP
000000
000000
000000
007E00
01C380
0300C0
060060
060060
0C0030
0C0030
0C0030
0C0030
0C0030
0C0030
0C0030
0C7830
06CE60
068360
0381C4
01C3FC
007E38
000000
000000
000000
ENDCHAR

STARTCHAR C2352
ENCODING 9042
SWIDTH 1000 0
DWIDTH 24 0
BBX 24 24 0 -4
BITMAP
000000
000000
000000
0FFE00
030380
0300C0
030060
030060
030060
030060
0300C0
030380
03FE00
030C00
030600
030600
030300
030300
030180
0301C0
0FC0F0
000000
000000
000000
ENDCHAR

STARTCHAR C2353
ENCODING 9043
SWIDTH 1000 0
DWIDTH 24 0
BBX 24 24 0 -4
BITMAP
000000
000000
000000
007E40
01C3C0
0180C0
030040
030000
030000
038000
01F000
007E00
000F80
0001C0
0000E0
000060
020060
020060
030060
03C1C0
027F00
000000
000000
000000
ENDCHAR

STARTCHAR C2354
ENCODING 9044
SWIDTH 1000 0
DWIDTH 24 0
BBX 24 24 0 -4
BITMAP
000000
000000
000000
0FFFF0
0C1830
181818
101808
101808
001800
001800
001800
001800
001800
001800
001800
001800
001800
001800
001800
001800
007E00
000000
000000
000000
ENDCHAR

STARTCHAR C2355
ENCODING 9045
SWIDTH 1000 0
DWIDTH 24 0
BBX 24 24 0 -4
BITMAP
000000
000000
000000
0FC0F8
030020
030020
030020
030020
030020
030020
030020
030020
030020
030020
030020
030020
030060
018040
0180C0
00E380
003E00
000000
000000
000000
ENDCHAR

STARTCHAR C2356
ENCODING 9046
SWIDTH 1000 0
DWIDTH 24 0
BBX 24 24 0 -4
BITMAP
000000
000000
000000
0FC1F0
030040
030040
0180C0
018080
018080
00C180
00C100
00C100
006300
006200
006200
003600
003400
003400
001C00
001800
000800
000000
000000
000000
ENDCHAR

STARTCHAR C2357
ENCODING 9047
SWIDTH 1000 0
DWIDTH 24 0
BBX 24 24 0 -4
BITMAP
000000
000000
000000
3F3F3E
0C0C08
0C0C08
0C0C08
060C08
060E18
061E10
061610
031610
031310
033330
032320
01A1A0
01A1A0
01E1E0
00C0C0
00C0C0
008080
000000
000000
000000
ENDCHAR

STARTCHAR C2358
ENCODING 9048
SWIDTH 1000 0
DWIDTH 24 0
BBX 24 24 0 -4
BITMAP
000000
000000
000000
0FC1F8
030060
0380C0
01C080
00C180
00E300
007200
003600
003C00
001C00
003E00
006E00
004700
00C380
018380
0101C0
0300E0
0FC3F8
000000
000000
000000
ENDCHAR

STARTCHAR C2359
ENCODING 9049
SWIDTH 1000 0
DWIDTH 24 0
BBX 24 24 0 -4
BITMAP
000000
000000
000000
1F80FC
060030
070060
030040
0180C0
01C180
00C100
006300
007600
003400
001C00
001800
001800
001800
001800
001800
001800
007E00
000000
000000
000000
ENDCHAR

STARTCHAR C235a
ENCODING 9050
SWIDTH 1000 0
DWIDTH 24 0
BBX 24 24 0 -4
BITMAP
000000
000000
000000
03FFF0
030070
0600E0
0401C0
000180
000380
000700
000E00
000C00
001C00
003800
007000
006000
00E010
01C010
038030
070060
07FFE0
000000
000000
000000
ENDCHAR

STARTCHAR C235b
ENCODING 9051
SWIDTH 1000 0
DWIDTH 24 0
BBX 24 24 0 -4
BITMAP
000000
000000
000000
000000
000000
000000
000000
000000
000000
000000
000000
000000
000000
000000
000000
000000
000000
000000
000000
000000
000000
000000
000000
000000
ENDCHAR

STARTCHAR C235c
ENCODING 9052
SWIDTH 1000 0
DWIDTH 24 0
BBX 24 24 0 -4
BITMAP
000000
000000
000000
000000
000000
000000
000000
000000
000000
000000
000000
000000
000000
000000
000000
000000
000000
000000
000000
000000
000000
000000
000000
000000
ENDCHAR

STARTCHAR C235d
ENCODING 9053
SWIDTH 1000 0
DWIDTH 24 0
BBX 24 24 0 -4
BITMAP
000000
000000
000000
000000
000000
000000
000000
000000
000000
000000
000000
000000
000000
000000
000000
000000
000000
000000
000000
000000
000000
000000
000000
000000
ENDCHAR

STARTCHAR C235e
ENCODING 9054
SWIDTH 1000 0
DWIDTH 24 0
BBX 24 24 0 -4
BITMAP
000000
000000
000000
000000
000000
000000
000000
000000
000000
000000
000000
000000
000000
000000
000000
000000
000000
000000
000000
000000
000000
000000
000000
000000
ENDCHAR

STARTCHAR C235f
ENCODING 9055
SWIDTH 1000 0
DWIDTH 24 0
BBX 24 24 0 -4
BITMAP
000000
000000
000000
000000
000000
000000
000000
000000
000000
000000
000000
000000
000000
000000
000000
000000
000000
000000
000000
000000
000000
000000
000000
000000
ENDCHAR

STARTCHAR C2360
ENCODING 9056
SWIDTH 1000 0
DWIDTH 24 0
BBX 24 24 0 -4
BITMAP
000000
000000
000000
000000
000000
000000
000000
000000
000000
000000
000000
000000
000000
000000
000000
000000
000000
000000
000000
000000
000000
000000
000000
000000
ENDCHAR

STARTCHAR C2361
ENCODING 9057
SWIDTH 1000 0
DWIDTH 24 0
BBX 24 24 0 -4
BITMAP
000000
000000
000000
000000
000000
000000
000000
000000
007800
01CE00
030200
030300
000300
003F00
00E300
018300
030300
030300
030700
039BC0
01F180
000000
000000
000000
ENDCHAR

STARTCHAR C2362
ENCODING 9058
SWIDTH 1000 0
DWIDTH 24 0
BBX 24 24 0 -4
BITMAP
000000
000000
000000
018000
078000
018000
018000
018000
01BE00
01C380
018180
0180C0
0180C0
0180C0
0180C0
0180C0
0180C0
0180C0
018180
01C380
013E00
000000
000000
000000
ENDCHAR

STARTCHAR C2363
ENCODING 9059
SWIDTH 1000 0
DWIDTH 24 0
BBX 24 24 0 -4
BITMAP
000000
000000
000000
000000
000000
000000
000000
000000
003E00
00E380
00C0C0
0180C0
018000
018000
018000
018000
018000
018040
00C0C0
00E180
003F00
000000
000000
000000
ENDCHAR

STARTCHAR C2364
ENCODING 9060
SWIDTH 1000 0
DWIDTH 24 0
BBX 24 24 0 -4
BITMAP
000000
000000
000000
000180
000780
000180
000180
000180
007D80
01C380
018180
030180
030180
030180
030180
030180
030180
030180
018180
01C2C0
007C60
000000
000000
000000
ENDCHAR

STARTCHAR C2365
ENCODING 9061
SWIDTH 1000 0
DWIDTH 24 0
BBX 24 24 0 -4
BITMAP
000000
000000
000000
000000
000000
000000
000000
000000
003E00
00E380
00C180
0180C0
0180C0
01FFC0
018000
018000
018000
018040
00C0C0
00E180
003F00
000000
000000
000000
ENDCHAR

STARTCHAR C2366
ENCODING 9062
SWIDTH 1000 0
DWIDTH 24 0
BBX 24 24 0 -4
BITMAP
000000
000000
000000
000700
000D80
001980
001800
001800
007E00
001800
001800
001800
001800
001800
001800
001800
001800
001800
001800
001800
007E00
000000
000000
000000
ENDCHAR

STARTCHAR C2367
ENCODING 9063
SWIDTH 1000 0
DWIDTH 24 0
BBX 24 24 0 -4
BITMAP
000000
000000
000000
000000
000000
000000
000000
000000
007DC0
00C740
018300
018300
018300
00C600
007C00
00C000
008000
01FE00
038300
030180
030180
018300
00FE00
000000
ENDCHAR

STARTCHAR C2368
ENCODING 9064
SWIDTH 1000 0
DWIDTH 24 0
BBX 24 24 0 -4
BITMAP
000000
000000
000000
018000
078000
018000
018000
018000
01BE00
01C300
018180
018180
018180
018180
018180
018180
018180
018180
018180
018180
07C3E0
000000
000000
000000
ENDCHAR

STARTCHAR C2369
ENCODING 9065
SWIDTH 1000 0
DWIDTH 24 0
BBX 24 24 0 -4
BITMAP
000000
000000
000000
001000
003800
003800
001000
000000
000000
001800
007800
001800
001800
001800
001800
001800
001800
001800
001800
001800
007E00
000000
000000
000000
ENDCHAR

STARTCHAR C236a
ENCODING 9066
SWIDTH 1000 0
DWIDTH 24 0
BBX 24 24 0 -4
BITMAP
000000
000000
000000
000800
001C00
001C00
000800
000000
000000
000C00
003C00
000C00
000C00
000C00
000C00
000C00
000C00
000C00
000C00
000C00
00CC00
00D800
007000
000000
ENDCHAR

STARTCHAR C236b
ENCODING 9067
SWIDTH 1000 0
DWIDTH 24 0
BBX 24 24 0 -4
BITMAP
000000
000000
000000
018000
078000
018000
018000
018000
0187C0
018300
018600
018C00
019800
01B000
01F800
01DC00
018E00
018700
018380
0181C0
07E3F0
000000
000000
000000
ENDCHAR

STARTCHAR C236c
ENCODING 9068
SWIDTH 1000 0
DWIDTH 24 0
BBX 24 24 0 -4
BITMAP
000000
000000
000000
001800
007800
001800
001800
001800
001800
001800
001800
001800
001800
001800
001800
001800
001800
001800
001800
001800
007E00
000000
000000
000000
ENDCHAR

STARTCHAR C236d
ENCODING 9069
SWIDTH 1000 0
DWIDTH 24 0
BBX 24 24 0 -4
BITMAP
000000
000000
000000
000000
000000
000000
000000
000000
09E3C0
3E3460
0C1830
0C1830
0C1830
0C1830
0C1830
0C1830
0C1830
0C1830
0C1830
0C1830
3E3C7C
000000
000000
000000
ENDCHAR

STARTCHAR C236e
ENCODING 9070
SWIDTH 1000 0
DWIDTH 24 0
BBX 24 24 0 -4
BITMAP
000000
000000
000000
000000
000000
000000
000000
000000
011E00
07B300
01C180
018180
018180
018180
018180
018180
018180
018180
018180
018180
07C3E0
000000
000000
000000
ENDCHAR

STARTCHAR C236f
ENCODING 9071
SWIDTH 1000 0
DWIDTH 24 0
BBX 24 24 0 -4
BITMAP
000000
000000
000000
000000
000000
000000
000000
000000
003C00
00E700
00C300
018180
018180
018180
018180
018180
018180
018180
00C300
00E700
003C00
000000
000000
000000
ENDCHAR

STARTCHAR C2370
ENCODING 9072
SWIDTH 1000 0
DWIDTH 24 0
BBX 24 24 0 -4
BITMAP
000000
000000
000000
000000
000000
000000
000000
000000
00DE00
03E380
00C180
00C0C0
00C0C0
00C0C0
00C0C0
00C0C0
00C180
00E380
00DE00
00C000
00C000
00C000
03F000
000000
ENDCHAR

STARTCHAR C2371
ENCODING 9073
SWIDTH 1000 0
DWIDTH 24 0
BBX 24 24 0 -4
BITMAP
000000
000000
000000
000000
000000
000000
000000
000000
007980
01C700
018300
030300
030300
030300
030300
030300
018300
01C700
007B00
000300
000300
000300
000FC0
000000
ENDCHAR

STARTCHAR C2372
ENCODING 9074
SWIDTH 1000 0
DWIDTH 24 0
BBX 24 24 0 -4
BITMAP
000000
000000
000000
000000
000000
000000
000000
000000
003380
00F4C0
0038C0
003000
003000
003000
003000
003000
003000
003000
003000
003000
00FC00
000000
000000
000000
ENDCHAR

STARTCHAR C2373
ENCODING 9075
SWIDTH 1000 0
DWIDTH 24 0
BBX 24 24 0 -4
BITMAP
000000
000000
000000
000000
000000
000000
000000
000000
003E80
006380
00C180
00C080
00E000
007800
001E00
000700
000380
010180
018180
00E300
00BE00
000000
000000
000000
ENDCHAR

STARTCHAR C2374
ENCODING 9076
SWIDTH 1000 0
DWIDTH 24 0
BBX 24 24 0 -4
BITMAP
000000
000000
000000
000000
000000
001000
003000
003000
003000
00FF00
003000
003000
003000
003000
003000
003000
003000
003000
003080
003B00
001E00
000000
000000
000000
ENDCHAR

STARTCHAR C2375
ENCODING 9077
SWIDTH 1000 0
DWIDTH 24 0
BBX 24 24 0 -4
BITMAP
000000
000000
000000
000000
000000
000000
000000
000000
000000
018180
078780
018180
018180
018180
018180
018180
018180
018180
018180
00C380
007CE0
000000
000000
000000
ENDCHAR

STARTCHAR C2376
ENCODING 9078
SWIDTH 1000 0
DWIDTH 24 0
BBX 24 24 0 -4
BITMAP
000000
000000
000000
000000
000000
000000
000000
000000
0FC1E0
030080
030180
018100
018300
00C200
00C600
006400
006C00
003800
003800
001000
001000
000000
000000
000000
ENDCHAR

STARTCHAR C2377
ENCODING 9079
SWIDTH 1000 0
DWIDTH 24 0
BBX 24 24 0 -4
BITMAP
000000
000000
000000
000000
000000
000000
000000
000000
3F3CF8
0C1820
0C1820
0C3860
062C40
062C40
066CC0
034680
034680
03C780
018300
018300
010200
000000
000000
000000
ENDCHAR

STARTCHAR C2378
ENCODING 9080
SWIDTH 1000 0
DWIDTH 24 0
BBX 24 24 0 -4
BITMAP
000000
000000
000000
000000
000000
000000
000000
000000
07C1E0
018080
01C180
00E300
007600
003C00
001C00
003E00
006700
00C380
0181C0
0100C0
07C3F0
000000
000000
000000
ENDCHAR

STARTCHAR C2379
ENCODING 9081
SWIDTH 1000 0
DWIDTH 24 0
BBX 24 24 0 -4
BITMAP
000000
000000
000000
000000
000000
000000
000000
000000
07E3E0
018080
018080
00C180
00C100
006100
006300
003200
003600
001C00
001C00
000800
019800
01B000
00E000
000000
ENDCHAR

STARTCHAR C237a
ENCODING 9082
SWIDTH 1000 0
DWIDTH 24 0
BBX 24 24 0 -4
BITMAP
000000
000000
000000
000000
000000
000000
000000
000000
00FFC0
0181C0
010380
010700
000E00
000C00
001800
003800
007000
00E040
01C040
0380C0
03FF80
000000
000000
000000
ENDCHAR

STARTCHAR C237b
ENCODING 9083
SWIDTH 1000 0
DWIDTH 24 0
BBX 24 24 0 -4
BITMAP
000000
000000
000000
000000
000000
000000
000000
000000
000000
000000
000000
000000
000000
000000
000000
000000
000000
000000
000000
000000
000000
000000
000000
000000
ENDCHAR

STARTCHAR C237c
ENCODING 9084
SWIDTH 1000 0
DWIDTH 24 0
BBX 24 24 0 -4
BITMAP
000000
000000
000000
000000
000000
000000
000000
000000
000000
000000
000000
000000
000000
000000
000000
000000
000000
000000
000000
000000
000000
000000
000000
000000
ENDCHAR

STARTCHAR C237d
ENCODING 9085
SWIDTH 1000 0
DWIDTH 24 0
BBX 24 24 0 -4
BITMAP
000000
000000
000000
000000
000000
000000
000000
000000
000000
000000
000000
000000
000000
000000
000000
000000
000000
000000
000000
000000
000000
000000
000000
000000
ENDCHAR

STARTCHAR C237e
ENCODING 9086
SWIDTH 1000 0
DWIDTH 24 0
BBX 24 24 0 -4
BITMAP
000000
000000
000000
000000
000000
000000
000000
000000
000000
000000
000000
000000
000000
000000
000000
000000
000000
000000
000000
000000
000000
000000
000000
000000
ENDCHAR

STARTCHAR C2421
ENCODING 9249
SWIDTH 1000 0
DWIDTH 24 0
BBX 24 24 0 -4
BITMAP
000000
000000
000000
000000
000000
000000
003000
001800
0419C0
061F80
03F000
003200
002200
003F00
00E3C0
03C660
064C30
0C5830
087030
08F060
0798C0
000300
000000
000000
ENDCHAR

STARTCHAR C2422
ENCODING 9250
SWIDTH 1000 0
DWIDTH 24 0
BBX 24 24 0 -4
BITMAP
000000
000000
003000
001800
001800
081870
0C1FE0
07F800
003080
003080
007FC0
01E170
076318
0C620C
18660C
186C0C
30380C
30300C
307818
19D830
0F08E0
000380
000000
000000
ENDCHAR

STARTCHAR C2423
ENCODING 9251
SWIDTH 1000 0
DWIDTH 24 0
BBX 24 24 0 -4
BITMAP
000000
000000
000000
000000
000000
000000
000000
000000
000000
180000
0C0180
0E00C0
0C0040
0C0060
080020
080030
080030
082020
0C6000
04C000
078000
030000
000000
000000
ENDCHAR

STARTCHAR C2424
ENCODING 9252
SWIDTH 1000 0
DWIDTH 24 0
BBX 24 24 0 -4
BITMAP
000000
000000
000000
180000
0C0180
0E00C0
0C0060
0C0060
180030
180030
180030
180018
180018
180018
182018
186010
0CC000
0D8000
078000
070000
030000
000000
000000
000000
ENDCHAR

STARTCHAR C2425
ENCODING 9253
SWIDTH 1000 0
DWIDTH 24 0
BBX 24 24 0 -4
BITMAP
000000
000000
000000
000000
000000
008000
00C000
007E00
001800
003000
000000
003E00
0CE300
078180
030180
000180
000180
000300
000600
000C00
003800
006000
000000
000000
ENDCHAR

STARTCHAR C2426
ENCODING 9254
SWIDTH 1000 0
DWIDTH 24 0
BBX 24 24 0 -4
BITMAP
000000
000000
008000
00C000
007E00
001C00
003000
000000
000000
003E00
0CE380
078180
0300C0
0000C0
0000C0
0000C0
000180
000180
000300
000600
001C00
007000
000000
000000
ENDCHAR

STARTCHAR C2427
ENCODING 9255
SWIDTH 1000 0
DWIDTH 24 0
BBX 24 24 0 -4
BITMAP
000000
000000
000000
000000
000000
000000
018000
00F800
006000
00C000
000300
043F80
07E600
030C00
001800
003000
007800
00CC00
018C00
030600
0607F0
0E01F8
000000
000000
ENDCHAR

STARTCHAR C2428
ENCODING 9256
SWIDTH 1000 0
DWIDTH 24 0
BBX 24 24 0 -4
BITMAP
000000
000000
010000
01C000
007000
00FC00
038000
000000
000180
001FC0
18E700
0F8C00
061800
003000
006000
00F800
018C00
030C00
060600
0C0600
1C07F8
1803FC
000000
000000
ENDCHAR

STARTCHAR C2429
ENCODING 9257
SWIDTH 1000 0
DWIDTH 24 0
BBX 24 24 0 -4
BITMAP
000000
000000
000000
000000
000000
000000
000000
00C000
0060C0
002660
083C30
0FE030
062000
002000
003FC0
00F060
03A030
062030
0C2030
1E2060
19E0C0
006300
000000
000000
ENDCHAR

STARTCHAR C242a
ENCODING 9258
SWIDTH 1000 0
DWIDTH 24 0
BBX 24 24 0 -4
BITMAP
000000
000000
018000
00C040
00E020
00C030
00CC18
20FE18
3FC07C
18C00C
00C000
00C000
008FC0
00F870
01E030
034018
064018
0C4018
184018
30C030
37C0E0
018780
000000
000000
ENDCHAR

STARTCHAR C242b
ENCODING 9259
SWIDTH 1000 0
DWIDTH 24 0
BBX 24 24 0 -4
BITMAP
000000
000000
00C000
006000
007000
006000
00C000
00C0C0
20F860
3F8C30
198418
030618
03060C
06060C
06060C
0C063C
0C0C0C
190C00
199800
30F800
307000
006000
000000
000000
ENDCHAR

STARTCHAR C242c
ENCODING 9260
SWIDTH 1000 0
DWIDTH 24 0
BBX 24 24 0 -4
BITMAP
000000
000018
00C0CC
006066
007032
006010
00C000
00C080
20F860
3F8C30
198418
030618
03060C
06060C
06060C
0C063C
0C0C0C
190C00
199800
30F800
307000
006000
000000
000000
ENDCHAR

STARTCHAR C242d
ENCODING 9261
SWIDTH 1000 0
DWIDTH 24 0
BBX 24 24 0 -4
BITMAP
000000
000000
006000
003800
001800
0019C0
040F80
07FC00
030600
000638
0803F0
0C1F00
07F180
030180
0000C0
0000C0
03FFE0
0600E0
040000
070000
03FE00
00FF00
000000
000000
ENDCHAR

STARTCHAR C242e
ENCODING 9262
SWIDTH 1000 0
DWIDTH 24 0
BBX 24 24 0 -4
BITMAP
000000
00000C
00C066
007032
003010
003380
081F00
0FF800
060C00
000C70
1007E0
183E00
0FE300
060300
000180
000180
07FFC0
0C01C0
080000
0E0000
07FC00
01FE00
000000
000000
ENDCHAR

STARTCHAR C242f
ENCODING 9263
SWIDTH 1000 0
DWIDTH 24 0
BBX 24 24 0 -4
BITMAP
000000
000000
000C00
000600
000700
000E00
000C00
001800
003000
006000
00C000
018000
030000
030000
018000
00C000
006000
003000
001800
001C00
000E00
000600
000000
000000
ENDCHAR

STARTCHAR C2430
ENCODING 9264
SWIDTH 1000 0
DWIDTH 24 0
BBX 24 24 0 -4
BITMAP
000000
00000C
000C66
000632
000710
000E00
000C00
001800
003000
006000
00C000
018000
030000
030000
018000
00C000
006000
003000
001800
001C00
000E00
000600
000000
000000
ENDCHAR

STARTCHAR C2431
ENCODING 9265
SWIDTH 1000 0
DWIDTH 24 0
BBX 24 24 0 -4
BITMAP
000000
000000
100300
180180
1C01C0
180180
180180
10819C
30C1F8
307F80
303180
200180
210180
210180
230180
220180
360180
340300
1C0300
180600
080C00
001000
000000
000000
ENDCHAR

STARTCHAR C2432
ENCODING 9266
SWIDTH 1000 0
DWIDTH 24 0
BBX 24 24 0 -4
BITMAP
000000
00000C
100606
180332
1C0198
180188
180180
10819C
30C1F8
307F80
303180
200180
210180
210180
230180
220180
360180
340300
1C0300
180600
080C00
001000
000000
000000
ENDCHAR

STARTCHAR C2433
ENCODING 9267
SWIDTH 1000 0
DWIDTH 24 0
BBX 24 24 0 -4
BITMAP
000000
000000
000000
040000
0600C0
03FFE0
00E0F0
0001C0
000700
000C00
000000
000000
000000
000000
100000
100000
180000
0C0000
070038
03FFFC
00FFF0
000000
000000
000000
ENDCHAR

STARTCHAR C2434
ENCODING 9268
SWIDTH 1000 0
DWIDTH 24 0
BBX 24 24 0 -4
BITMAP
000000
00000C
000066
040032
060310
03FF80
00E1C0
000380
000E00
001800
000000
000000
000000
000000
100000
100000
180000
0C0000
070038
03FFFC
00FFF0
000000
000000
000000
ENDCHAR

STARTCHAR C2435
ENCODING 9269
SWIDTH 1000 0
DWIDTH 24 0
BBX 24 24 0 -4
BITMAP
000000
000000
003800
001800
001800
000C00
080C70
0C07E0
07FE00
01C300
000300
000180
000180
0000C0
01FEC0
0703E0
0C0060
080000
0C0000
070000
03FF80
00FFC0
000000
000000
ENDCHAR

STARTCHAR C2436
ENCODING 9270
SWIDTH 1000 0
DWIDTH 24 0
BBX 24 24 0 -4
BITMAP
000000
00000C
003866
001832
001810
000C00
080C70
0C07E0
07FE00
01C300
000300
000180
000180
0000C0
01FEC0
0703E0
0C0060
080000
0C0000
070000
03FF80
00FFC0
000000
000000
ENDCHAR

STARTCHAR C2437
ENCODING 9271
SWIDTH 1000 0
DWIDTH 24 0
BBX 24 24 0 -4
BITMAP
000000
000000
060000
0F0000
038000
030000
030000
030000
030000
030000
030000
020000
020000
020000
020008
020018
020030
030060
0100C0
018380
00FE00
007800
000000
000000
ENDCHAR

STARTCHAR C2438
ENCODING 9272
SWIDTH 1000 0
DWIDTH 24 0
BBX 24 24 0 -4
BITMAP
000000
000000
060180
0F00C0
038C40
030600
030200
030000
030000
030000
030000
020000
020000
020000
020008
020018
020030
030060
0100C0
018380
00FE00
007800
000000
000000
ENDCHAR

STARTCHAR C2439
ENCODING 9273
SWIDTH 1000 0
DWIDTH 24 0
BBX 24 24 0 -4
BITMAP
000000
000000
000E00
000700
000600
100618
1807FC
0FFE00
070600
000600
003E00
00E600
018600
010600
018E00
00F600
000600
000C00
000C00
001800
007000
01C000
000000
000000
ENDCHAR

STARTCHAR C243a
ENCODING 9274
SWIDTH 1000 0
DWIDTH 24 0
BBX 24 24 0 -4
BITMAP
000000
0000CC
000E66
000722
000600
200618
3007FC
1FFE00
0E0600
000600
003E00
00E600
018600
010600
018E00
00F600
000600
000C00
000C00
001800
007000
03C000
000000
000000
ENDCHAR

STARTCHAR C243b
ENCODING 9275
SWIDTH 1000 0
DWIDTH 24 0
BBX 24 24 0 -4
BITMAP
000000
000000
030300
018180
01C1C0
018180
018180
018198
2181FC
319F80
1FF180
0D8180
018180
018180
018180
018F80
018300
018000
018000
01C000
00FFF0
003FF8
000000
000000
ENDCHAR

STARTCHAR C243c
ENCODING 9276
SWIDTH 1000 0
DWIDTH 24 0
BBX 24 24 0 -4
BITMAP
000000
00000C
000006
030332
018198
01C1C8
018180
018180
018198
2181FC
319F80
1FF180
0D8180
018180
018180
018F80
018300
018000
018000
01C000
00FFF0
003FF8
000000
000000
ENDCHAR

STARTCHAR C243d
ENCODING 9277
SWIDTH 1000 0
DWIDTH 24 0
BBX 24 24 0 -4
BITMAP
000000
000000
000000
000600
063F80
03E700
018C00
001800
003000
006030
00C1F8
019FC0
07FE00
3E3800
306000
00C000
008000
008000
00C000
007FC0
001FF0
000000
000000
000000
ENDCHAR

STARTCHAR C243e
ENCODING 9278
SWIDTH 1000 0
DWIDTH 24 0
BBX 24 24 0 -4
BITMAP
000000
000000
00000C
000606
063FB2
03E718
018C08
001800
003000
006030
00C1F8
019FC0
07FE00
3F3800
386000
00C000
008000
008000
00C000
007FC0
001FF0
000000
000000
000000
ENDCHAR

STARTCHAR C243f
ENCODING 9279
SWIDTH 1000 0
DWIDTH 24 0
BBX 24 24 0 -4
BITMAP
000000
000000
018000
00C000
00E000
00C000
20CF00
31FC00
1F8000
0181F8
01871C
03003C
0300E0
030000
060000
062000
0C2000
0C3000
181C00
180FF8
3003FC
300000
000000
000000
ENDCHAR

STARTCHAR C2440
ENCODING 9280
SWIDTH 1000 0
DWIDTH 24 0
BBX 24 24 0 -4
BITMAP
000000
000018
01800C
00C064
00E030
00C010
20C700
31FE00
1F8000
0181F8
01871C
03003C
0300E0
030000
060000
062000
0C2000
0C3000
181C00
180FF8
3003FC
300000
000000
000000
ENDCHAR

STARTCHAR C2441
ENCODING 9281
SWIDTH 1000 0
DWIDTH 24 0
BBX 24 24 0 -4
BITMAP
000000
000000
006000
003000
003800
003000
103380
187F00
0FE000
006000
00C000
00C000
018000
018FE0
03F830
03C018
070018
060018
000038
0000F0
0007C0
007C00
000000
000000
ENDCHAR

STARTCHAR C2442
ENCODING 9282
SWIDTH 1000 0
DWIDTH 24 0
BBX 24 24 0 -4
BITMAP
000000
00000C
00C066
006032
007010
006000
206700
30FE00
1FC000
00C000
018000
018000
030000
031FC0
07F060
078030
0E0030
0C0030
000070
0001E0
000F80
00F800
000000
000000
ENDCHAR

STARTCHAR C2443
ENCODING 9283
SWIDTH 1000 0
DWIDTH 24 0
BBX 24 24 0 -4
BITMAP
000000
000000
000000
000000
000000
000000
000000
000000
000000
000000
000000
083F00
0FE1C0
070060
000030
000030
000030
000070
0000E0
0003C0
001F00
00F000
000000
000000
ENDCHAR

STARTCHAR C2444
ENCODING 9284
SWIDTH 1000 0
DWIDTH 24 0
BBX 24 24 0 -4
BITMAP
000000
000000
000000
000000
000000
003FC0
23E070
3F0018
1C0018
00000C
00000C
00000C
00001C
000018
000038
000070
0001C0
000700
003C00
000000
000000
000000
000000
000000
ENDCHAR

STARTCHAR C2445
ENCODING 9285
SWIDTH 1000 0
DWIDTH 24 0
BBX 24 24 0 -4
BITMAP
000000
00000C
000006
000032
000018
000008
003FC0
23E070
3F0018
1C0018
00000C
00000C
00000C
00001C
000018
000038
000070
0001C0
000700
003C00
000000
000000
000000
000000
ENDCHAR

STARTCHAR C2446
ENCODING 9286
SWIDTH 1000 0
DWIDTH 24 0
BBX 24 24 0 -4
BITMAP
000000
000000
000000
000078
201FFC
3FF3E0
1E0700
001C00
003000
006000
004000
00C000
008000
008000
008000
008000
00C000
004000
007000
003E00
000FF0
0001F8
000000
000000
ENDCHAR

STARTCHAR C2447
ENCODING 9287
SWIDTH 1000 0
DWIDTH 24 0
BBX 24 24 0 -4
BITMAP
000000
000000
000000
000078
201FFC
3FF3E0
1E0700
001C18
0030CC
006064
004020
00C000
008000
008000
008000
008000
00C000
004000
007000
003E00
000FF0
0001F8
000000
000000
ENDCHAR

STARTCHAR C2448
ENCODING 9288
SWIDTH 1000 0
DWIDTH 24 0
BBX 24 24 0 -4
BITMAP
000000
000000
00C000
006000
007000
006000
006000
006000
002020
0021E0
002F80
007C00
01E000
070000
0C0000
180000
100000
100000
180000
0E0000
07FFE0
01FFF0
000000
000000
ENDCHAR

STARTCHAR C2449
ENCODING 9289
SWIDTH 1000 0
DWIDTH 24 0
BBX 24 24 0 -4
BITMAP
000000
000000
00C018
00600C
007064
006030
006010
006000
002020
0021E0
002F80
007C00
01E000
070000
0C0000
180000
100000
100000
180000
0E0000
07FFE0
01FFF0
000000
000000
ENDCHAR

STARTCHAR C244a
ENCODING 9290
SWIDTH 1000 0
DWIDTH 24 0
BBX 24 24 0 -4
BITMAP
000000
000000
018000
00E000
00C000
20CE00
30FC70
1FC01C
018038
018060
018100
030100
030100
030180
060180
060F80
0639E0
0C60B0
0C4098
18418C
18630C
003E00
000000
000000
ENDCHAR

STARTCHAR C244b
ENCODING 9291
SWIDTH 1000 0
DWIDTH 24 0
BBX 24 24 0 -4
BITMAP
000000
000000
100000
182000
0C3030
0C1FF8
080C60
1800C0
180180
100000
300000
300000
200000
200000
210000
212000
232000
323000
161C18
1C0FFC
0C03F0
080000
000000
000000
ENDCHAR

STARTCHAR C244c
ENCODING 9292
SWIDTH 1000 0
DWIDTH 24 0
BBX 24 24 0 -4
BITMAP
000000
000000
001800
000E00
000C00
180C00
0C0C00
0C1F80
0478E0
05D830
071818
061018
0E300C
1B300C
11200C
31E00C
20C3C8
20E678
31A43C
1F066C
0E03C0
000000
000000
000000
ENDCHAR

STARTCHAR C244d
ENCODING 9293
SWIDTH 1000 0
DWIDTH 24 0
BBX 24 24 0 -4
BITMAP
000000
000000
030000
018000
018000
0103C0
010E60
31D820
1FB030
016030
01C030
038030
030030
070030
0D0030
1903F0
310E78
31183C
21106C
0D19C0
070F00
020000
000000
000000
ENDCHAR

STARTCHAR C244e
ENCODING 9294
SWIDTH 1000 0
DWIDTH 24 0
BBX 24 24 0 -4
BITMAP
000000
000000
000000
00FF80
0390E0
061830
0C1818
181818
18180C
30180C
30300C
30300C
30300C
30600C
30600C
30C018
10C018
198030
0F0060
0601C0
000700
000000
000000
000000
ENDCHAR

STARTCHAR C244f
ENCODING 9295
SWIDTH 1000 0
DWIDTH 24 0
BBX 24 24 0 -4
BITMAP
000000
000000
100600
180380
1C01C0
1C0180
180180
18819C
18C1F8
307F80
300180
300180
200180
200180
200180
220180
223F80
2661E0
3441B8
14631C
1C3E0C
080000
000000
000000
ENDCHAR

STARTCHAR C2450
ENCODING 9296
SWIDTH 1000 0
DWIDTH 24 0
BBX 24 24 0 -4
BITMAP
000000
000018
00000C
100664
180330
1C0190
1C0180
180180
18819C
30C1F8
307F80
300180
200180
200180
200180
220180
220180
263F80
3461E0
1441B8
1C631C
083E0C
000000
000000
ENDCHAR

STARTCHAR C2451
ENCODING 9297
SWIDTH 1000 0
DWIDTH 24 0
BBX 24 24 0 -4
BITMAP
000000
00001C
000036
100622
180336
1C019C
1C0180
180180
18819C
30C1F8
307F80
300180
200180
200180
200180
220180
220180
263F80
3461E0
1441B8
1C631C
083E0C
000000
000000
ENDCHAR

STARTCHAR C2452
ENCODING 9298
SWIDTH 1000 0
DWIDTH 24 0
BBX 24 24 0 -4
BITMAP
000000
000000
000000
006000
11F000
1F38C0
0C60C0
00C0C0
0180E0
0300A0
0200B0
060098
04009C
0C018C
080180
080100
080300
080300
0C0600
061C00
07F800
01E000
000000
000000
ENDCHAR

STARTCHAR C2453
ENCODING 9299
SWIDTH 1000 0
DWIDTH 24 0
BBX 24 24 0 -4
BITMAP
000000
000000
00000C
00C066
23E032
3E7010
18C100
018180
030180
0601C0
040140
0C0160
080130
180338
100318
100200
100600
100600
180C00
0C3800
0FF000
03C000
000000
000000
ENDCHAR

STARTCHAR C2454
ENCODING 9300
SWIDTH 1000 0
DWIDTH 24 0
BBX 24 24 0 -4
BITMAP
000000
00001C
000036
00C022
23E036
3E701C
18C100
018180
030180
0601C0
040140
0C0160
080130
180338
100318
100200
100600
100600
180C00
0C3800
0FF000
03C000
000000
000000
ENDCHAR

STARTCHAR C2455
ENCODING 9301
SWIDTH 1000 0
DWIDTH 24 0
BBX 24 24 0 -4
BITMAP
000000
000000
002000
003000
001C00
000600
000600
000C00
001000
002000
004000
004000
006000
0030C0
001830
000C18
01060C
26060C
3C0600
180E00
01FC00
003000
000000
000000
ENDCHAR

STARTCHAR C2456
ENCODING 9302
SWIDTH 1000 0
DWIDTH 24 0
BBX 24 24 0 -4
BITMAP
000000
000000
002018
00300C
001C64
000630
000610
000C00
001000
002000
004000
004000
006000
0030C0
001830
000C18
01060C
26060C
3C0600
180E00
01FC00
003000
000000
000000
ENDCHAR

STARTCHAR C2457
ENCODING 9303
SWIDTH 1000 0
DWIDTH 24 0
BBX 24 24 0 -4
BITMAP
000000
000000
002038
00306C
001C44
00066C
000638
000C00
001000
002000
004000
004000
006000
0030C0
001830
000C18
01060C
26060C
3C0600
180E00
01FC00
003000
000000
000000
ENDCHAR

STARTCHAR C2458
ENCODING 9304
SWIDTH 1000 0
DWIDTH 24 0
BBX 24 24 0 -4
BITMAP
000000
000000
000000
000000
000000
000000
000000
00E000
01B000
031800
060C00
3C0600
180300
000180
0000C0
000070
000038
00001C
00000C
000000
000000
000000
000000
000000
ENDCHAR

STARTCHAR C2459
ENCODING 9305
SWIDTH 1000 0
DWIDTH 24 0
BBX 24 24 0 -4
BITMAP
000000
000000
000000
000000
000018
0000CC
000064
00E020
01B000
031800
060C00
3C0600
180300
000180
0000C0
000070
000038
00001C
00000C
000000
000000
000000
000000
000000
ENDCHAR

STARTCHAR C245a
ENCODING 9306
SWIDTH 1000 0
DWIDTH 24 0
BBX 24 24 0 -4
BITMAP
000000
000000
000000
000000
000070
0000D8
000088
00E0D8
01B070
031800
060C00
3C0600
180300
000180
0000C0
000070
000038
00001C
00000C
000000
000000
000000
000000
000000
ENDCHAR

STARTCHAR C245b
ENCODING 9307
SWIDTH 1000 0
DWIDTH 24 0
BBX 24 24 0 -4
BITMAP
000000
000000
100000
183070
1C1FE0
1C0200
180300
180100
180180
30419C
3061F8
303F80
300180
200180
200180
220180
223F80
2661E0
3441B8
14631C
1C3E0C
080000
000000
000000
ENDCHAR

STARTCHAR C245c
ENCODING 9308
SWIDTH 1000 0
DWIDTH 24 0
BBX 24 24 0 -4
BITMAP
000000
000000
10000C
1831C6
1C1FB2
1C0218
180308
180100
180180
30419C
3061F8
303F80
300180
200180
200180
220180
223F80
2661E0
3441B8
14631C
1C3E0C
080000
000000
000000
ENDCHAR

STARTCHAR C245d
ENCODING 9309
SWIDTH 1000 0
DWIDTH 24 0
BBX 24 24 0 -4
BITMAP
000000
000000
10001C
1863B6
1C3F22
1C0436
18061C
180200
180300
308338
30C3F0
307F00
300300
200300
200300
220300
227F00
26C3C0
348370
14C638
1C7C18
080000
000000
000000
ENDCHAR

STARTCHAR C245e
ENCODING 9310
SWIDTH 1000 0
DWIDTH 24 0
BBX 24 24 0 -4
BITMAP
000000
000000
003800
001C00
000C38
180FF0
0FFC00
030C00
000C00
000C70
060FE0
03FC00
000C00
000C00
000C00
000C00
01FC00
070F00
0C0DE0
080C78
0C3818
07E000
000000
000000
ENDCHAR

STARTCHAR C245f
ENCODING 9311
SWIDTH 1000 0
DWIDTH 24 0
BBX 24 24 0 -4
BITMAP
000000
000000
000C00
047E00
07CE00
030C00
000C20
001838
001830
003030
003030
006060
03FC60
0EC7C0
1880E0
1181B8
21019C
23030C
360600
1C0C00
001800
006000
000000
000000
ENDCHAR

STARTCHAR C2460
ENCODING 9312
SWIDTH 1000 0
DWIDTH 24 0
BBX 24 24 0 -4
BITMAP
000000
000000
060000
030000
018000
219C40
3FF830
198018
01800C
01803C
01800C
078000
1D8000
318020
218020
210020
330020
1E0030
020030
030070
01FFE0
007F80
000000
000000
ENDCHAR

STARTCHAR C2461
ENCODING 9313
SWIDTH 1000 0
DWIDTH 24 0
BBX 24 24 0 -4
BITMAP
000000
000000
000C00
000700
080600
0C0600
060600
060600
037F80
03CCE0
070C30
0F1818
199818
11B00C
30B00C
20E00C
20C01C
21E018
333038
1E1070
0C01C0
000700
000000
000000
ENDCHAR

STARTCHAR C2462
ENCODING 9314
SWIDTH 1000 0
DWIDTH 24 0
BBX 24 24 0 -4
BITMAP
000000
000000
00C000
006000
006000
006000
086000
0C6E00
07FC00
006000
00C040
10C060
18CE20
0FFC30
00C030
00C030
008030
008030
00C060
0060E0
007FC0
001F00
000000
000000
ENDCHAR

STARTCHAR C2463
ENCODING 9315
SWIDTH 1000 0
DWIDTH 24 0
BBX 24 24 0 -4
BITMAP
000000
000000
000000
000000
000000
000800
000C00
000600
019E00
030000
0303C0
018E30
01B818
18E018
0FC018
066030
0060E0
003380
003000
001800
001800
001800
000000
000000
ENDCHAR

STARTCHAR C2464
ENCODING 9316
SWIDTH 1000 0
DWIDTH 24 0
BBX 24 24 0 -4
BITMAP
000000
000000
003000
001800
067C00
0C0C00
0C0000
0607E0
061C38
03700C
03C00C
07800C
3D801C
18C078
00C3E0
006000
006000
006000
003000
003000
003000
001000
000000
000000
ENDCHAR

STARTCHAR C2465
ENCODING 9317
SWIDTH 1000 0
DWIDTH 24 0
BBX 24 24 0 -4
BITMAP
000000
000000
000000
000000
000000
000000
001800
0C0C00
060600
060600
040780
0C1EE0
0C7630
08C618
098618
090418
0A4C18
0A6C30
0C38E0
041F80
003000
006000
000000
000000
ENDCHAR

STARTCHAR C2466
ENCODING 9318
SWIDTH 1000 0
DWIDTH 24 0
BBX 24 24 0 -4
BITMAP
000000
000000
001800
100C00
180600
0C0600
0C0600
181FC0
187670
18C618
318618
31060C
33060C
22060C
264618
244C18
346C30
3C38E0
181F80
103000
00E000
038000
000000
000000
ENDCHAR

STARTCHAR C2467
ENCODING 9319
SWIDTH 1000 0
DWIDTH 24 0
BBX 24 24 0 -4
BITMAP
000000
000000
000000
000000
000000
000000
006000
003800
001800
001800
0018E0
001FC0
001800
001800
001800
001800
01F800
071E00
0C1B80
0818E0
0C7060
07C000
000000
000000
ENDCHAR

STARTCHAR C2468
ENCODING 9320
SWIDTH 1000 0
DWIDTH 24 0
BBX 24 24 0 -4
BITMAP
000000
000000
006000
003800
001C00
001800
001800
001838
001FF0
001800
001800
001800
001800
001800
001800
03F800
0E1E00
181B80
1018E0
103070
18E030
0F8000
000000
000000
ENDCHAR

STARTCHAR C2469
ENCODING 9321
SWIDTH 1000 0
DWIDTH 24 0
BBX 24 24 0 -4
BITMAP
000000
000000
01C000
007C00
000F00
003800
030000
060000
040000
0C0000
0C1F00
0C71C0
0DC060
0F0030
0E0030
0C0030
1C0030
180060
1000C0
000380
000E00
007800
000000
000000
ENDCHAR

STARTCHAR C246a
ENCODING 9322
SWIDTH 1000 0
DWIDTH 24 0
BBX 24 24 0 -4
BITMAP
000000
000000
030000
018000
018700
010D80
030880
0310C0
0210C0
0620C0
0620C0
0440C0
0440C0
04C0C0
0680C0
038180
038180
010300
000600
000C00
003800
00E000
000000
000000
ENDCHAR

STARTCHAR C246b
ENCODING 9323
SWIDTH 1000 0
DWIDTH 24 0
BBX 24 24 0 -4
BITMAP
000000
000000
000300
000FC0
187BC0
0FC700
060C00
001800
003000
006000
00DF80
01F0E0
078030
0E0030
1C0018
180018
00F818
018C38
010670
0106E0
018F80
00FC00
000000
000000
ENDCHAR

STARTCHAR C246c
ENCODING 9324
SWIDTH 1000 0
DWIDTH 24 0
BBX 24 24 0 -4
BITMAP
000000
000000
060000
038000
018300
018780
01CCC0
21D8C0
3FB0C0
19E0C0
01C0C0
0380C0
0280C0
06C0C0
0CC180
08C184
18C184
18C184
34C18C
36C0C8
03C0F8
018070
000000
000000
ENDCHAR

STARTCHAR C246d
ENCODING 9325
SWIDTH 1000 0
DWIDTH 24 0
BBX 24 24 0 -4
BITMAP
000000
000000
000600
063F00
03E380
018700
000C00
001800
003000
006000
00DFC0
01F0F0
038038
0E0018
1C000C
38000C
30000C
00001C
000038
0000F0
0007C0
00FC00
000000
000000
ENDCHAR

STARTCHAR C246e
ENCODING 9326
SWIDTH 1000 0
DWIDTH 24 0
BBX 24 24 0 -4
BITMAP
000000
000000
000000
000000
000000
000000
000000
018000
00C000
004000
007000
08E000
0FC7C0
04DC70
00F018
01C018
034018
064018
0C4038
084070
03C1C0
018F00
000000
000000
ENDCHAR

STARTCHAR C246f
ENCODING 9327
SWIDTH 1000 0
DWIDTH 24 0
BBX 24 24 0 -4
BITMAP
000000
000000
060000
030000
018000
018000
01E000
01C000
018FC0
27B870
3DE018
11C018
03800C
03800C
06800C
06800C
0C800C
188018
308018
288030
0780E0
030380
000000
000000
ENDCHAR

STARTCHAR C2470
ENCODING 9328
SWIDTH 1000 0
DWIDTH 24 0
BBX 24 24 0 -4
BITMAP
000000
000000
001C00
08FE00
0FCE00
060C00
000C00
001800
001800
001F80
00F0E0
03B030
062018
0C6018
18400C
10C00C
30800C
219E18
213318
232130
3631E0
1C1F80
000000
000000
ENDCHAR

STARTCHAR C2471
ENCODING 9329
SWIDTH 1000 0
DWIDTH 24 0
BBX 24 24 0 -4
BITMAP
000000
000000
000300
043F00
07CC00
031800
003000
007E00
01C380
0300C0
060060
0C7860
08CC60
0084C0
00CF80
007C00
00E000
038000
0601F0
1F0718
39CC0C
30781C
000000
000000
ENDCHAR

STARTCHAR C2472
ENCODING 9330
SWIDTH 1000 0
DWIDTH 24 0
BBX 24 24 0 -4
BITMAP
000000
000000
006000
003000
1031C0
187F80
0FE000
00C000
018000
01F018
039878
0609C0
0C0F00
181C00
387C00
30CC00
018C00
010000
010000
018000
00FFF0
003FF8
000000
000000
ENDCHAR

STARTCHAR C2473
ENCODING 9331
SWIDTH 1000 0
DWIDTH 24 0
BBX 24 24 0 -4
BITMAP
000000
000000
003000
001800
003800
003000
006000
006000
00C000
00C000
018000
01B800
034C00
038604
070604
060604
0C060C
0C0608
180618
180330
3003E0
3001C0
000000
000000
ENDCHAR

STARTCHAR C2474
ENCODING 9332
SWIDTH 1000 0
DWIDTH 24 0
BBX 24 24 0 -4
BITMAP
000000
000000
000000
000000
000000
000000
000000
000000
000000
000000
000000
000000
000000
000000
000000
000000
000000
000000
000000
000000
000000
000000
000000
000000
ENDCHAR

STARTCHAR C2475
ENCODING 9333
SWIDTH 1000 0
DWIDTH 24 0
BBX 24 24 0 -4
BITMAP
000000
000000
000000
000000
000000
000000
000000
000000
000000
000000
000000
000000
000000
000000
000000
000000
000000
000000
000000
000000
000000
000000
000000
000000
ENDCHAR

STARTCHAR C2476
ENCODING 9334
SWIDTH 1000 0
DWIDTH 24 0
BBX 24 24 0 -4
BITMAP
000000
000000
000000
000000
000000
000000
000000
000000
000000
000000
000000
000000
000000
000000
000000
000000
000000
000000
000000
000000
000000
000000
000000
000000
ENDCHAR

STARTCHAR C2477
ENCODING 9335
SWIDTH 1000 0
DWIDTH 24 0
BBX 24 24 0 -4
BITMAP
000000
000000
000000
000000
000000
000000
000000
000000
000000
000000
000000
000000
000000
000000
000000
000000
000000
000000
000000
000000
000000
000000
000000
000000
ENDCHAR

STARTCHAR C2478
ENCODING 9336
SWIDTH 1000 0
DWIDTH 24 0
BBX 24 24 0 -4
BITMAP
000000
000000
000000
000000
000000
000000
000000
000000
000000
000000
000000
000000
000000
000000
000000
000000
000000
000000
000000
000000
000000
000000
000000
000000
ENDCHAR

STARTCHAR C2479
ENCODING 9337
SWIDTH 1000 0
DWIDTH 24 0
BBX 24 24 0 -4
BITMAP
000000
000000
000000
000000
000000
000000
000000
000000
000000
000000
000000
000000
000000
000000
000000
000000
000000
000000
000000
000000
000000
000000
000000
000000
ENDCHAR

STARTCHAR C247a
ENCODING 9338
SWIDTH 1000 0
DWIDTH 24 0
BBX 24 24 0 -4
BITMAP
000000
000000
000000
000000
000000
000000
000000
000000
000000
000000
000000
000000
000000
000000
000000
000000
000000
000000
000000
000000
000000
000000
000000
000000
ENDCHAR

STARTCHAR C247b
ENCODING 9339
SWIDTH 1000 0
DWIDTH 24 0
BBX 24 24 0 -4
BITMAP
000000
000000
000000
000000
000000
000000
000000
000000
000000
000000
000000
000000
000000
000000
000000
000000
000000
000000
000000
000000
000000
000000
000000
000000
ENDCHAR

STARTCHAR C247c
ENCODING 9340
SWIDTH 1000 0
DWIDTH 24 0
BBX 24 24 0 -4
BITMAP
000000
000000
000000
000000
000000
000000
000000
000000
000000
000000
000000
000000
000000
000000
000000
000000
000000
000000
000000
000000
000000
000000
000000
000000
ENDCHAR

STARTCHAR C247d
ENCODING 9341
SWIDTH 1000 0
DWIDTH 24 0
BBX 24 24 0 -4
BITMAP
000000
000000
000000
000000
000000
000000
000000
000000
000000
000000
000000
000000
000000
000000
000000
000000
000000
000000
000000
000000
000000
000000
000000
000000
ENDCHAR

STARTCHAR C247e
ENCODING 9342
SWIDTH 1000 0
DWIDTH 24 0
BBX 24 24 0 -4
BITMAP
000000
000000
000000
000000
000000
000000
000000
000000
000000
000000
000000
000000
000000
000000
000000
000000
000000
000000
000000
000000
000000
000000
000000
000000
ENDCHAR

STARTCHAR C2521
ENCODING 9505
SWIDTH 1000 0
DWIDTH 24 0
BBX 24 24 0 -4
BITMAP
000000
000000
000000
000000
000000
000000
0000C0
081FE0
0FF070
0600F0
0001C0
003300
001E00
001800
001800
003000
003000
006000
006000
00C000
018000
030000
000000
000000
ENDCHAR

STARTCHAR C2522
ENCODING 9506
SWIDTH 1000 0
DWIDTH 24 0
BBX 24 24 0 -4
BITMAP
000000
000000
000000
000000
000070
301FF8
1FF03C
0C0070
0000E0
003180
001B00
001E00
001800
001800
003000
003000
006000
006000
00C000
018000
030000
060000
000000
000000
ENDCHAR

STARTCHAR C2523
ENCODING 9507
SWIDTH 1000 0
DWIDTH 24 0
BBX 24 24 0 -4
BITMAP
000000
000000
000000
000000
000000
000000
000200
000300
000780
000700
000E00
001C00
003800
006C00
00CC00
038C00
060C00
000C00
000C00
000C00
000C00
000800
000000
000000
ENDCHAR

STARTCHAR C2524
ENCODING 9508
SWIDTH 1000 0
DWIDTH 24 0
BBX 24 24 0 -4
BITMAP
000000
000000
000180
0000C0
0000E0
0001E0
000380
000700
000E00
001C00
003800
006C00
00CE00
018C00
070C00
0C0C00
180C00
000C00
000C00
000C00
000C00
000800
000000
000000
ENDCHAR

STARTCHAR C2525
ENCODING 9509
SWIDTH 1000 0
DWIDTH 24 0
BBX 24 24 0 -4
BITMAP
000000
000000
000000
000000
000000
000000
000000
003000
001800
001800
041880
07FFC0
0200E0
0200C0
0200C0
060180
060180
000300
000600
000C00
001800
006000
000000
000000
ENDCHAR

STARTCHAR C2526
ENCODING 9510
SWIDTH 1000 0
DWIDTH 24 0
BBX 24 24 0 -4
BITMAP
000000
000000
003000
001C00
001800
001800
181860
0FFFF0
0F0038
0C0030
0C0070
0C0060
0C00E0
0C00C0
000180
000180
000300
000600
000C00
001800
007000
00C000
000000
000000
ENDCHAR

STARTCHAR C2527
ENCODING 9511
SWIDTH 1000 0
DWIDTH 24 0
BBX 24 24 0 -4
BITMAP
000000
000000
000000
000000
000000
000000
000000
000000
000000
000000
040180
07FFC0
031000
001800
001C00
001800
001800
001800
181060
0FFFF0
030000
000000
000000
000000
ENDCHAR

STARTCHAR C2528
ENCODING 9512
SWIDTH 1000 0
DWIDTH 24 0
BBX 24 24 0 -4
BITMAP
000000
000000
000000
000000
000000
000000
0800E0
0FFFF0
061000
001800
001C00
001800
001800
001800
001800
001800
001800
301038
1FFFFC
070000
000000
000000
000000
000000
ENDCHAR

STARTCHAR C2529
ENCODING 9513
SWIDTH 1000 0
DWIDTH 24 0
BBX 24 24 0 -4
BITMAP
000000
000000
000000
000000
000000
000000
000000
001C00
000E00
000C00
000C00
080C60
0FFFF0
061C00
003600
006600
00C600
018600
030600
060600
083E00
000C00
000000
000000
ENDCHAR

STARTCHAR C252a
ENCODING 9514
SWIDTH 1000 0
DWIDTH 24 0
BBX 24 24 0 -4
BITMAP
000000
000000
000E00
000700
000600
000600
000600
000630
3007FC
1FFE00
060E00
001E00
001A00
003300
006300
00C300
018300
030300
0E0300
183F00
000F00
000600
000000
000000
ENDCHAR

STARTCHAR C252b
ENCODING 9515
SWIDTH 1000 0
DWIDTH 24 0
BBX 24 24 0 -4
BITMAP
000000
000000
007000
003800
003000
003000
003060
303FF0
1FF038
063038
006030
006030
006030
00C030
00C030
018030
018060
030060
0618E0
1C0FC0
300780
000300
000000
000000
ENDCHAR

STARTCHAR C252c
ENCODING 9516
SWIDTH 1000 0
DWIDTH 24 0
BBX 24 24 0 -4
BITMAP
000000
000000
00700C
003866
003032
003010
0030C0
303FE0
1FF070
063070
006060
006060
006060
00C060
00C060
018060
0180C0
0300C0
0631C0
1C1F80
300F00
000600
000000
000000
ENDCHAR

STARTCHAR C252d
ENCODING 9517
SWIDTH 1000 0
DWIDTH 24 0
BBX 24 24 0 -4
BITMAP
000000
000000
006000
007800
003000
003000
003060
183FF0
0FF800
061800
001800
001800
001818
301FFC
1FFC00
060C00
000C00
000C00
000C00
000E00
000E00
000C00
000000
000000
ENDCHAR

STARTCHAR C252e
ENCODING 9518
SWIDTH 1000 0
DWIDTH 24 0
BBX 24 24 0 -4
BITMAP
000000
00000C
006066
007832
003010
003000
003060
183FF0
0FF800
061800
001800
001800
001818
301FFC
1FFC00
060C00
000C00
000C00
000C00
000E00
000E00
000C00
000000
000000
ENDCHAR

STARTCHAR C252f
ENCODING 9519
SWIDTH 1000 0
DWIDTH 24 0
BBX 24 24 0 -4
BITMAP
000000
000000
003800
001C00
001800
003800
0030C0
007FE0
00C070
0180E0
0300C0
060180
0C0180
000300
000600
000C00
001800
003000
006000
01C000
030000
0C0000
000000
000000
ENDCHAR

STARTCHAR C2530
ENCODING 9520
SWIDTH 1000 0
DWIDTH 24 0
BBX 24 24 0 -4
BITMAP
000000
00000C
003866
001C32
001810
003800
0030C0
007FE0
00C070
0180E0
0300C0
060180
0C0180
000300
000600
000C00
001800
003000
006000
01C000
030000
0C0000
000000
000000
ENDCHAR

STARTCHAR C2531
ENCODING 9521
SWIDTH 1000 0
DWIDTH 24 0
BBX 24 24 0 -4
BITMAP
000000
000000
01C000
00E000
00C000
01C000
018000
038000
030038
07FFFC
060C00
0C0600
180700
300600
000C00
000C00
001800
001800
003000
006000
01C000
030000
000000
000000
ENDCHAR

STARTCHAR C2532
ENCODING 9522
SWIDTH 1000 0
DWIDTH 24 0
BBX 24 24 0 -4
BITMAP
000000
000000
01C018
00E0CC
00C064
01C020
018000
038000
030038
07FFFC
060C00
0C0600
180700
300600
000C00
000C00
001800
001800
003000
006000
01C000
030000
000000
000000
ENDCHAR

STARTCHAR C2533
ENCODING 9523
SWIDTH 1000 0
DWIDTH 24 0
BBX 24 24 0 -4
BITMAP
000000
000000
000000
000000
000030
1801F8
0FFFFC
038038
000030
000030
000030
000030
000060
000060
000060
000060
000040
1803F0
0FFFF8
038000
000000
000000
000000
000000
ENDCHAR

STARTCHAR C2534
ENCODING 9524
SWIDTH 1000 0
DWIDTH 24 0
BBX 24 24 0 -4
BITMAP
000000
00000C
000006
000032
000018
000008
000060
1803F0
0FFFF8
038070
000060
000060
000060
0000C0
0000C0
0000C0
0000C0
000080
1807E0
0FFFF0
038000
000000
000000
000000
ENDCHAR

STARTCHAR C2535
ENCODING 9525
SWIDTH 1000 0
DWIDTH 24 0
BBX 24 24 0 -4
BITMAP
000000
000000
000380
01C1C0
00E180
00C180
00C180
00C198
30C1FC
1FFF80
0CC180
00C180
00C180
00C180
00C180
008180
000300
000300
000600
000C00
001800
006000
000000
000000
ENDCHAR

STARTCHAR C2536
ENCODING 9526
SWIDTH 1000 0
DWIDTH 24 0
BBX 24 24 0 -4
BITMAP
000000
00000C
000386
01C1DA
00E18C
00C184
00C180
00C198
30C1FC
1FFF80
0CC180
00C180
00C180
00C180
00C180
008180
000300
000300
000600
000C00
001800
006000
000000
000000
ENDCHAR

STARTCHAR C2537
ENCODING 9527
SWIDTH 1000 0
DWIDTH 24 0
BBX 24 24 0 -4
BITMAP
000000
000000
000000
018000
00E000
007000
003000
000004
00000C
180008
0E0018
070030
030060
0000C0
000180
000300
000600
040C00
063800
03F000
01E000
00C000
000000
000000
ENDCHAR

STARTCHAR C2538
ENCODING 9528
SWIDTH 1000 0
DWIDTH 24 0
BBX 24 24 0 -4
BITMAP
000000
000000
000030
018018
00E188
0070C0
003040
000004
00000C
180008
0E0018
070030
030060
0000C0
000180
000300
000600
040C00
063800
03F000
01E000
00C000
000000
000000
ENDCHAR

STARTCHAR C2539
ENCODING 9529
SWIDTH 1000 0
DWIDTH 24 0
BBX 24 24 0 -4
BITMAP
000000
000000
000000
000180
0C07C0
07FFE0
01C1C0
000180
000300
000300
000600
000600
000C00
001E00
003300
0061C0
00C0E0
018070
030038
060018
180000
000000
000000
000000
ENDCHAR

STARTCHAR C253a
ENCODING 9530
SWIDTH 1000 0
DWIDTH 24 0
BBX 24 24 0 -4
BITMAP
000000
00000C
000006
000332
180F98
0FFFC8
038380
000300
000600
000600
000C00
000C00
001800
003C00
006600
00C380
0181C0
0300E0
060070
0C0030
100000
000000
000000
000000
ENDCHAR

STARTCHAR C253b
ENCODING 9531
SWIDTH 1000 0
DWIDTH 24 0
BBX 24 24 0 -4
BITMAP
000000
000000
00E000
007000
006000
006000
006010
206078
307FFC
1FE030
066060
0060C0
006180
006000
006000
006000
006000
006000
007000
003FF8
000FFC
000000
000000
000000
ENDCHAR

STARTCHAR C253c
ENCODING 9532
SWIDTH 1000 0
DWIDTH 24 0
BBX 24 24 0 -4
BITMAP
000000
000000
000018
00E0CC
007064
006020
006000
006010
206078
307FFC
1FE030
066060
0060C0
006180
006000
006000
006000
006000
006000
007000
003FF8
000FFC
000000
000000
ENDCHAR

STARTCHAR C253d
ENCODING 9533
SWIDTH 1000 0
DWIDTH 24 0
BBX 24 24 0 -4
BITMAP
000000
000000
000060
180030
0C0038
060038
030030
038070
018060
0180E0
0000C0
0001C0
000180
000300
000300
000600
000C00
001800
003000
006000
01C000
030000
000000
000000
ENDCHAR

STARTCHAR C253e
ENCODING 9534
SWIDTH 1000 0
DWIDTH 24 0
BBX 24 24 0 -4
BITMAP
000000
00000C
000066
000032
180010
0C00C0
060060
030070
038060
0180E0
0180C0
0001C0
000180
000380
000300
000600
000600
000C00
001800
003000
00E000
018000
000000
000000
ENDCHAR

STARTCHAR C253f
ENCODING 9535
SWIDTH 1000 0
DWIDTH 24 0
BBX 24 24 0 -4
BITMAP
000000
000000
003800
001C00
001800
003800
0030C0
007FE0
00C070
0180E0
0300C0
066180
0C3980
000F00
000600
000F00
001B80
003180
006000
01C000
070000
1C0000
000000
000000
ENDCHAR

STARTCHAR C2540
ENCODING 9536
SWIDTH 1000 0
DWIDTH 24 0
BBX 24 24 0 -4
BITMAP
000000
00000C
003806
001C32
001818
003808
0030C0
007FE0
00C070
0180E0
0300C0
066180
0C3980
000F00
000600
000F00
001B80
003180
006000
01C000
070000
1C0000
000000
000000
ENDCHAR

STARTCHAR C2541
ENCODING 9537
SWIDTH 1000 0
DWIDTH 24 0
BBX 24 24 0 -4
BITMAP
000000
000000
000000
0000E0
000FF0
01FF00
1F8C00
000C00
000C00
000C30
200FFC
3FFC00
0C0C00
001800
001800
003000
003000
006000
00C000
018000
030000
0C0000
000000
000000
ENDCHAR

STARTCHAR C2542
ENCODING 9538
SWIDTH 1000 0
DWIDTH 24 0
BBX 24 24 0 -4
BITMAP
000000
000000
00000C
0000C6
000FE2
01FF0C
1F8C06
000C02
000C00
000C30
200FFC
3FFC00
0C0C00
001800
001800
003000
003000
006000
00C000
018000
030000
0C0000
000000
000000
ENDCHAR

STARTCHAR C2543
ENCODING 9539
SWIDTH 1000 0
DWIDTH 24 0
BBX 24 24 0 -4
BITMAP
000000
000000
000000
000000
000000
000000
000000
000000
000000
0060C0
0C3070
061860
0318C0
0300C0
000180
000180
000300
000600
000C00
001800
003000
00C000
000000
000000
ENDCHAR

STARTCHAR C2544
ENCODING 9540
SWIDTH 1000 0
DWIDTH 24 0
BBX 24 24 0 -4
BITMAP
000000
000000
000000
006000
003030
301818
181C1C
0C0C1C
0E0C18
060030
060030
000060
000060
0000C0
000180
000300
000600
000C00
001800
007000
01C000
000000
000000
000000
ENDCHAR

STARTCHAR C2545
ENCODING 9541
SWIDTH 1000 0
DWIDTH 24 0
BBX 24 24 0 -4
BITMAP
000000
00000C
000006
000032
00C018
006008
3030C0
183860
0C1870
0E1870
060060
0600C0
0000C0
000180
000180
000300
000600
000C00
001800
003000
00E000
038000
000000
000000
ENDCHAR

STARTCHAR C2546
ENCODING 9542
SWIDTH 1000 0
DWIDTH 24 0
BBX 24 24 0 -4
BITMAP
000000
000000
000000
060380
03FFE0
018000
000000
000000
300070
1FFFFC
070800
000E00
000C00
000C00
001800
001800
003000
006000
00C000
018000
070000
0C0000
000000
000000
ENDCHAR

STARTCHAR C2547
ENCODING 9543
SWIDTH 1000 0
DWIDTH 24 0
BBX 24 24 0 -4
BITMAP
000000
00000C
000006
0603B2
03FFD8
018008
000000
000000
300070
1FFFFC
070800
000E00
000C00
000C00
001800
001800
003000
006000
00C000
018000
070000
0C0000
000000
000000
ENDCHAR

STARTCHAR C2548
ENCODING 9544
SWIDTH 1000 0
DWIDTH 24 0
BBX 24 24 0 -4
BITMAP
000000
000000
00E000
007000
006000
006000
006000
006000
006000
007C00
006F00
0063C0
0060E0
006060
006000
006000
006000
006000
006000
006000
006000
004000
000000
000000
ENDCHAR

STARTCHAR C2549
ENCODING 9545
SWIDTH 1000 0
DWIDTH 24 0
BBX 24 24 0 -4
BITMAP
000000
000000
00E000
007018
0060CC
006064
006020
006000
006000
007C00
006F00
0063C0
0060E0
006060
006000
006000
006000
006000
006000
006000
006000
004000
000000
000000
ENDCHAR

STARTCHAR C254a
ENCODING 9546
SWIDTH 1000 0
DWIDTH 24 0
BBX 24 24 0 -4
BITMAP
000000
000000
001800
000C00
000E00
000C00
000C00
000C00
200C30
300FFC
1FFC00
060C00
000C00
000C00
001800
001800
003000
003000
006000
00C000
038000
060000
000000
000000
ENDCHAR

STARTCHAR C254b
ENCODING 9547
SWIDTH 1000 0
DWIDTH 24 0
BBX 24 24 0 -4
BITMAP
000000
000000
000000
000000
000000
000000
080180
0FFFE0
038000
000000
000000
000000
000000
000000
000000
000000
300070
1FFFFC
070000
000000
000000
000000
000000
000000
ENDCHAR

STARTCHAR C254c
ENCODING 9548
SWIDTH 1000 0
DWIDTH 24 0
BBX 24 24 0 -4
BITMAP
000000
000000
000000
000020
0C00F0
07FFF8
01C070
0000E0
0000C0
00C180
007300
001E00
000E00
001F00
003380
0061C0
00C0E0
018070
030030
0E0000
180000
000000
000000
000000
ENDCHAR

STARTCHAR C254d
ENCODING 9549
SWIDTH 1000 0
DWIDTH 24 0
BBX 24 24 0 -4
BITMAP
000000
000000
003000
001C00
000C00
000080
0403C0
07FFE0
01C180
000300
000600
000C00
001800
003F00
006DC0
00CC70
018C38
070C18
0C0C00
000C00
000C00
000800
000000
000000
ENDCHAR

STARTCHAR C254e
ENCODING 9550
SWIDTH 1000 0
DWIDTH 24 0
BBX 24 24 0 -4
BITMAP
000000
000000
000000
000180
0000C0
0000E0
0000E0
0001C0
000180
000380
000300
000600
000600
000C00
001800
003000
006000
00C000
018000
070000
0C0000
000000
000000
000000
ENDCHAR

STARTCHAR C254f
ENCODING 9551
SWIDTH 1000 0
DWIDTH 24 0
BBX 24 24 0 -4
BITMAP
000000
000000
000000
000000
000000
000000
018300
00C180
00E0C0
00C060
018030
018030
030018
030018
06000C
0C000C
180008
200000
000000
000000
000000
000000
000000
000000
ENDCHAR

STARTCHAR C2550
ENCODING 9552
SWIDTH 1000 0
DWIDTH 24 0
BBX 24 24 0 -4
BITMAP
000000
000000
000018
00000C
000064
000030
018310
00C180
00E0C0
00C060
018030
018030
030018
030018
06000C
0C000C
180008
200000
000000
000000
000000
000000
000000
000000
ENDCHAR

STARTCHAR C2551
ENCODING 9553
SWIDTH 1000 0
DWIDTH 24 0
BBX 24 24 0 -4
BITMAP
000000
00001C
000036
000022
000036
00001C
018300
00C180
00E0C0
00C060
018030
018030
030018
030018
06000C
0C000C
180008
200000
000000
000000
000000
000000
000000
000000
ENDCHAR

STARTCHAR C2552
ENCODING 9554
SWIDTH 1000 0
DWIDTH 24 0
BBX 24 24 0 -4
BITMAP
000000
000000
000000
0C0000
060000
070000
060000
060000
0600C0
0607E0
063F00
07F000
060000
060000
060000
060000
060000
060000
070000
03FFF0
00FFF8
000000
000000
000000
ENDCHAR

STARTCHAR C2553
ENCODING 9555
SWIDTH 1000 0
DWIDTH 24 0
BBX 24 24 0 -4
BITMAP
000000
000000
000018
18000C
0C0064
0E0030
0C0010
0C0000
0C0180
0C0FC0
0C7E00
0FE000
0C0000
0C0000
0C0000
0C0000
0C0000
0C0000
0E0000
07FFE0
01FFF0
000000
000000
000000
ENDCHAR

STARTCHAR C2554
ENCODING 9556
SWIDTH 1000 0
DWIDTH 24 0
BBX 24 24 0 -4
BITMAP
000000
000000
000038
18006C
0C0044
0E006C
0C0038
0C0000
0C0180
0C0FC0
0C7E00
0FE000
0C0000
0C0000
0C0000
0C0000
0C0000
0C0000
0E0000
07FFE0
01FFF0
000000
000000
000000
ENDCHAR

STARTCHAR C2555
ENCODING 9557
SWIDTH 1000 0
DWIDTH 24 0
BBX 24 24 0 -4
BITMAP
000000
000000
000000
000000
0800E0
0FFFF0
038038
000030
000060
000060
0000C0
0000C0
000180
000300
000600
000C00
001800
007000
01C000
070000
000000
000000
000000
000000
ENDCHAR

STARTCHAR C2556
ENCODING 9558
SWIDTH 1000 0
DWIDTH 24 0
BBX 24 24 0 -4
BITMAP
000000
00000C
000066
000032
000010
1001C0
1FFFE0
070070
000060
0000C0
0000C0
000180
000180
000300
000600
000C00
001800
003000
00E000
038000
0E0000
000000
000000
000000
ENDCHAR

STARTCHAR C2557
ENCODING 9559
SWIDTH 1000 0
DWIDTH 24 0
BBX 24 24 0 -4
BITMAP
000000
00001C
000036
000022
000036
10039C
1FFFC0
0700E0
0000C0
000180
000180
000300
000300
000600
000C00
001800
003000
006000
01C000
070000
1C0000
000000
000000
000000
ENDCHAR

STARTCHAR C2558
ENCODING 9560
SWIDTH 1000 0
DWIDTH 24 0
BBX 24 24 0 -4
BITMAP
000000
000000
000000
000000
000000
000000
000000
00E000
01B000
031800
060C00
3C0600
180300
000180
0000C0
000070
000038
00001C
00000C
000000
000000
000000
000000
000000
ENDCHAR

STARTCHAR C2559
ENCODING 9561
SWIDTH 1000 0
DWIDTH 24 0
BBX 24 24 0 -4
BITMAP
000000
000000
000000
000000
000030
000018
0000C8
00E060
01B020
031800
060C00
3C0600
180300
000180
0000C0
000070
000038
00001C
00000C
000000
000000
000000
000000
000000
ENDCHAR

STARTCHAR C255a
ENCODING 9562
SWIDTH 1000 0
DWIDTH 24 0
BBX 24 24 0 -4
BITMAP
000000
000000
000000
000070
0000D8
000088
0000D8
00E070
01B000
031800
060C00
3C0600
180300
000180
0000C0
000070
000038
00001C
00000C
000000
000000
000000
000000
000000
ENDCHAR

STARTCHAR C255b
ENCODING 9563
SWIDTH 1000 0
DWIDTH 24 0
BBX 24 24 0 -4
BITMAP
000000
000000
003000
001C00
001800
001800
001870
301FFC
1FF800
061800
001800
001800
0018C0
021860
061830
0C1818
38181C
30180C
01980C
00F800
007800
003000
000000
000000
ENDCHAR

STARTCHAR C255c
ENCODING 9564
SWIDTH 1000 0
DWIDTH 24 0
BBX 24 24 0 -4
BITMAP
000000
00000C
000006
003032
001C18
001808
001800
001870
301FFC
1FF800
061800
001800
0018C0
021860
061830
0C1818
38181C
30180C
01980C
00F800
007800
003000
000000
000000
ENDCHAR

STARTCHAR C255d
ENCODING 9565
SWIDTH 1000 0
DWIDTH 24 0
BBX 24 24 0 -4
BITMAP
000000
00001C
000036
003022
001C36
00181C
001800
001870
301FFC
1FF800
061800
001800
0018C0
021860
061830
0C1818
38181C
30180C
01980C
00F800
007800
003000
000000
000000
ENDCHAR

STARTCHAR C255e
ENCODING 9566
SWIDTH 1000 0
DWIDTH 24 0
BBX 24 24 0 -4
BITMAP
000000
000000
000000
000000
000000
000030
201FF8
3FF03C
180070
0000C0
000180
000300
000600
01CC00
007800
001C00
000E00
000700
000300
000000
000000
000000
000000
000000
ENDCHAR

STARTCHAR C255f
ENCODING 9567
SWIDTH 1000 0
DWIDTH 24 0
BBX 24 24 0 -4
BITMAP
000000
000000
00E000
003C00
000F00
000380
000180
000000
000000
01C000
007800
001E00
000700
000300
000000
000000
038000
00F000
003C00
000F00
000380
000180
000000
000000
ENDCHAR

STARTCHAR C2560
ENCODING 9568
SWIDTH 1000 0
DWIDTH 24 0
BBX 24 24 0 -4
BITMAP
000000
000000
006000
003000
003800
003800
003000
007000
006000
006000
00C000
00C300
018180
0180C0
030060
030070
020038
0607F8
3FFC1C
3F000C
18000C
000000
000000
000000
ENDCHAR

STARTCHAR C2561
ENCODING 9569
SWIDTH 1000 0
DWIDTH 24 0
BBX 24 24 0 -4
BITMAP
000000
000000
000000
000180
0000C0
0000E0
0000E0
0000C0
0001C0
006180
003B00
000E00
000700
000F80
0019C0
0030C0
006000
00C000
018000
070000
0C0000
000000
000000
000000
ENDCHAR

STARTCHAR C2562
ENCODING 9570
SWIDTH 1000 0
DWIDTH 24 0
BBX 24 24 0 -4
BITMAP
000000
000000
000000
000000
0C01C0
07FFE0
033000
003800
003000
003000
003030
303FF8
1FF000
0C3000
003000
003000
003000
003000
003000
001FF8
0007FC
000000
000000
000000
ENDCHAR

STARTCHAR C2563
ENCODING 9571
SWIDTH 1000 0
DWIDTH 24 0
BBX 24 24 0 -4
BITMAP
000000
000000
000000
000000
000000
000000
000000
00C000
007000
006000
0060C0
187FE0
0FF070
0630C0
003180
003300
003000
001800
001800
001800
001800
001800
000000
000000
ENDCHAR

STARTCHAR C2564
ENCODING 9572
SWIDTH 1000 0
DWIDTH 24 0
BBX 24 24 0 -4
BITMAP
000000
000000
01C000
00E000
00C000
00C000
006038
0061FC
007F1C
21F038
3F3030
183060
003040
001800
001800
001800
001800
001800
000C00
000C00
000C00
000C00
000000
000000
ENDCHAR

STARTCHAR C2565
ENCODING 9573
SWIDTH 1000 0
DWIDTH 24 0
BBX 24 24 0 -4
BITMAP
000000
000000
000000
000000
000000
000000
000000
000000
000000
020300
03FF80
01C1C0
0001C0
000180
000180
000180
000300
000300
0C0330
07FFF8
018000
000000
000000
000000
ENDCHAR

STARTCHAR C2566
ENCODING 9574
SWIDTH 1000 0
DWIDTH 24 0
BBX 24 24 0 -4
BITMAP
000000
000000
000000
000000
000000
000000
080180
0FFFC0
0701E0
0001C0
000180
000180
000180
000180
000300
000300
000300
300338
1FFFFC
070000
000000
000000
000000
000000
ENDCHAR

STARTCHAR C2567
ENCODING 9575
SWIDTH 1000 0
DWIDTH 24 0
BBX 24 24 0 -4
BITMAP
000000
000000
000000
000000
000000
000000
000000
000000
0600C0
03FFE0
00C070
000070
000060
020360
03FFC0
00C0C0
0000C0
0000C0
000180
060180
03FFE0
00C000
000000
000000
ENDCHAR

STARTCHAR C2568
ENCODING 9576
SWIDTH 1000 0
DWIDTH 24 0
BBX 24 24 0 -4
BITMAP
000000
000000
000000
000000
180060
0FFFF0
030078
000070
000060
000060
0C0360
07FFE0
0180C0
0000C0
0000C0
0000C0
0000C0
3000F0
1FFFF8
070000
000000
000000
000000
000000
ENDCHAR

STARTCHAR C2569
ENCODING 9577
SWIDTH 1000 0
DWIDTH 24 0
BBX 24 24 0 -4
BITMAP
000000
000000
060700
03FFC0
00C000
000000
000000
000030
300FF8
1FF83C
070070
0000E0
0001C0
000380
000700
000E00
001C00
003000
00E000
018000
070000
0C0000
000000
000000
ENDCHAR

STARTCHAR C256a
ENCODING 9578
SWIDTH 1000 0
DWIDTH 24 0
BBX 24 24 0 -4
BITMAP
000000
000000
030300
01C1C0
018180
018180
018180
018180
018180
018180
018180
018180
018180
018180
018180
010180
000300
000300
000600
000C00
003800
006000
000000
000000
ENDCHAR

STARTCHAR C256b
ENCODING 9579
SWIDTH 1000 0
DWIDTH 24 0
BBX 24 24 0 -4
BITMAP
000000
000000
003000
001C00
061800
039800
031800
031800
031800
031800
031800
031800
031804
06180C
061818
061830
041860
0C19C0
081F80
181E00
101800
200000
000000
000000
ENDCHAR

STARTCHAR C256c
ENCODING 9580
SWIDTH 1000 0
DWIDTH 24 0
BBX 24 24 0 -4
BITMAP
000000
000000
000000
0C0000
060000
070000
070000
060000
060008
060018
060030
060060
0600C0
060180
060300
060600
061C00
067800
07E000
07C000
030000
000000
000000
000000
ENDCHAR

STARTCHAR C256d
ENCODING 9581
SWIDTH 1000 0
DWIDTH 24 0
BBX 24 24 0 -4
BITMAP
000000
000000
000000
000000
000000
180060
0E01F0
0FFFF8
060070
060060
060060
060060
060060
060060
0600C0
0300C0
0300C0
03FFE0
030070
020000
000000
000000
000000
000000
ENDCHAR

STARTCHAR C256e
ENCODING 9582
SWIDTH 1000 0
DWIDTH 24 0
BBX 24 24 0 -4
BITMAP
000000
000000
000000
000000
000000
000000
000000
0C0080
0603C0
07FFE0
0600C0
0600C0
0600C0
060180
040180
000300
000300
000600
000C00
001800
003000
004000
000000
000000
ENDCHAR

STARTCHAR C256f
ENCODING 9583
SWIDTH 1000 0
DWIDTH 24 0
BBX 24 24 0 -4
BITMAP
000000
000000
000000
180020
0C00F0
0FFFF8
0E0030
0C0030
0C0030
0C0060
0C0060
0C0060
0800C0
0000C0
000180
000180
000300
000200
000600
000C00
001800
002000
000000
000000
ENDCHAR

STARTCHAR C2570
ENCODING 9584
SWIDTH 1000 0
DWIDTH 24 0
BBX 24 24 0 -4
BITMAP
000000
000000
001800
000C00
000E00
000C00
100C00
180CE0
0FFFF0
030C00
030C00
030C00
030C00
330C38
1FFFFC
060C00
000C00
000C00
000C00
000C00
000C00
000800
000000
000000
ENDCHAR

STARTCHAR C2571
ENCODING 9585
SWIDTH 1000 0
DWIDTH 24 0
BBX 24 24 0 -4
BITMAP
000000
000000
000000
000000
000000
000080
1003C0
1FFFE0
0E0070
0001C0
000700
003C00
001800
001800
001800
001800
001800
301838
1FFFFC
070000
000000
000000
000000
000000
ENDCHAR

STARTCHAR C2572
ENCODING 9586
SWIDTH 1000 0
DWIDTH 24 0
BBX 24 24 0 -4
BITMAP
000000
000000
000000
000020
1800F0
0FFFF8
030030
000030
000060
0C07E0
07FCC0
018180
000180
000300
000600
000C00
001800
003000
006000
00C000
038000
060000
000000
000000
ENDCHAR

STARTCHAR C2573
ENCODING 9587
SWIDTH 1000 0
DWIDTH 24 0
BBX 24 24 0 -4
BITMAP
000000
000000
000000
180000
0C0000
060000
030000
038008
018018
018030
000060
0000C0
000180
000300
000600
000C00
003800
007000
19C000
0F8000
060000
000000
000000
000000
ENDCHAR

STARTCHAR C2574
ENCODING 9588
SWIDTH 1000 0
DWIDTH 24 0
BBX 24 24 0 -4
BITMAP
000000
000018
0030CC
001C64
001820
001800
181860
0FFFF0
0F0038
0C0038
0C0070
0C0060
0C00E0
0800C0
000180
000180
000300
000600
000C00
001800
007000
00C000
000000
000000
ENDCHAR

STARTCHAR C2575
ENCODING 9589
SWIDTH 1000 0
DWIDTH 24 0
BBX 24 24 0 -4
BITMAP
000000
000000
000000
000000
000000
000000
000000
003800
001800
001800
0018C0
061FE0
03F870
001860
003060
003060
006060
006060
00C0C0
018CC0
0707C0
0C0380
000000
000000
ENDCHAR

STARTCHAR C2576
ENCODING 9590
SWIDTH 1000 0
DWIDTH 24 0
BBX 24 24 0 -4
BITMAP
000000
000000
000000
000000
000000
000000
000000
018000
00C000
00C000
018000
0180E0
03FFF0
030600
060600
0C0C00
180C00
001800
001800
003000
006000
00C000
000000
000000
ENDCHAR

STARTCHAR C2577
ENCODING 9591
SWIDTH 1000 0
DWIDTH 24 0
BBX 24 24 0 -4
BITMAP
000000
000000
000000
000000
000000
000000
000000
000000
000000
000000
000000
000000
000000
000000
000000
000000
000000
000000
000000
000000
000000
000000
000000
000000
ENDCHAR

STARTCHAR C2578
ENCODING 9592
SWIDTH 1000 0
DWIDTH 24 0
BBX 24 24 0 -4
BITMAP
000000
000000
000000
000000
000000
000000
000000
000000
000000
000000
000000
000000
000000
000000
000000
000000
000000
000000
000000
000000
000000
000000
000000
000000
ENDCHAR

STARTCHAR C2579
ENCODING 9593
SWIDTH 1000 0
DWIDTH 24 0
BBX 24 24 0 -4
BITMAP
000000
000000
000000
000000
000000
000000
000000
000000
000000
000000
000000
000000
000000
000000
000000
000000
000000
000000
000000
000000
000000
000000
000000
000000
ENDCHAR

STARTCHAR C257a
ENCODING 9594
SWIDTH 1000 0
DWIDTH 24 0
BBX 24 24 0 -4
BITMAP
000000
000000
000000
000000
000000
000000
000000
000000
000000
000000
000000
000000
000000
000000
000000
000000
000000
000000
000000
000000
000000
000000
000000
000000
ENDCHAR

STARTCHAR C257b
ENCODING 9595
SWIDTH 1000 0
DWIDTH 24 0
BBX 24 24 0 -4
BITMAP
000000
000000
000000
000000
000000
000000
000000
000000
000000
000000
000000
000000
000000
000000
000000
000000
000000
000000
000000
000000
000000
000000
000000
000000
ENDCHAR

STARTCHAR C257c
ENCODING 9596
SWIDTH 1000 0
DWIDTH 24 0
BBX 24 24 0 -4
BITMAP
000000
000000
000000
000000
000000
000000
000000
000000
000000
000000
000000
000000
000000
000000
000000
000000
000000
000000
000000
000000
000000
000000
000000
000000
ENDCHAR

STARTCHAR C257d
ENCODING 9597
SWIDTH 1000 0
DWIDTH 24 0
BBX 24 24 0 -4
BITMAP
000000
000000
000000
000000
000000
000000
000000
000000
000000
000000
000000
000000
000000
000000
000000
000000
000000
000000
000000
000000
000000
000000
000000
000000
ENDCHAR

STARTCHAR C257e
ENCODING 9598
SWIDTH 1000 0
DWIDTH 24 0
BBX 24 24 0 -4
BITMAP
000000
000000
000000
000000
000000
000000
000000
000000
000000
000000
000000
000000
000000
000000
000000
000000
000000
000000
000000
000000
000000
000000
000000
000000
ENDCHAR

STARTCHAR C2621
ENCODING 9761
SWIDTH 1000 0
DWIDTH 24 0
BBX 24 24 0 -4
BITMAP
000000
000000
000000
000000
000800
000800
001C00
001C00
003600
002600
006300
004300
00C180
008180
01FFC0
0100C0
030060
020060
060030
040030
1F00FC
000000
000000
000000
ENDCHAR

STARTCHAR C2622
ENCODING 9762
SWIDTH 1000 0
DWIDTH 24 0
BBX 24 24 0 -4
BITMAP
000000
000000
000000
000000
07FF00
0183C0
0180E0
018060
018060
018060
0180C0
018380
01FF00
0181C0
018060
018030
018030
018030
018070
0181E0
07FF80
000000
000000
000000
ENDCHAR

STARTCHAR C2623
ENCODING 9763
SWIDTH 1000 0
DWIDTH 24 0
BBX 24 24 0 -4
BITMAP
000000
000000
000000
000000
07FFC0
0180C0
018040
018040
018000
018000
018000
018000
018000
018000
018000
018000
018000
018000
018000
018000
07E000
000000
000000
000000
ENDCHAR

STARTCHAR C2624
ENCODING 9764
SWIDTH 1000 0
DWIDTH 24 0
BBX 24 24 0 -4
BITMAP
000000
000000
000000
000000
000800
000800
001800
001C00
003C00
002E00
006600
004700
00C300
008380
018180
0101C0
0300C0
0200E0
060060
07FFF0
07FFF0
000000
000000
000000
ENDCHAR

STARTCHAR C2625
ENCODING 9765
SWIDTH 1000 0
DWIDTH 24 0
BBX 24 24 0 -4
BITMAP
000000
000000
000000
000000
07FFE0
018060
018020
018020
018000
018100
018100
018300
01FF00
018300
018100
018100
018000
018020
018020
018060
07FFE0
000000
000000
000000
ENDCHAR

STARTCHAR C2626
ENCODING 9766
SWIDTH 1000 0
DWIDTH 24 0
BBX 24 24 0 -4
BITMAP
000000
000000
000000
000000
03FFE0
030060
0200E0
0201C0
020380
000300
000600
000E00
001C00
003800
003000
006000
00E020
01C020
038020
030060
03FFE0
000000
000000
000000
ENDCHAR

STARTCHAR C2627
ENCODING 9767
SWIDTH 1000 0
DWIDTH 24 0
BBX 24 24 0 -4
BITMAP
000000
000000
000000
000000
0FE3F0
0300C0
0300C0
0300C0
0300C0
0300C0
0300C0
0300C0
03FFC0
0300C0
0300C0
0300C0
0300C0
0300C0
0300C0
0300C0
0FC3F0
000000
000000
000000
ENDCHAR

STARTCHAR C2628
ENCODING 9768
SWIDTH 1000 0
DWIDTH 24 0
BBX 24 24 0 -4
BITMAP
000000
000000
000000
000000
007E00
01C380
0300C0
060060
060060
0C4230
0C4230
0C4230
0C7E30
0C4230
0C4230
0C4230
060060
060060
0300C0
01C380
007E00
000000
000000
000000
ENDCHAR

STARTCHAR C2629
ENCODING 9769
SWIDTH 1000 0
DWIDTH 24 0
BBX 24 24 0 -4
BITMAP
000000
000000
000000
000000
007E00
001800
001800
001800
001800
001800
001800
001800
001800
001800
001800
001800
001800
001800
001800
001800
007E00
000000
000000
000000
ENDCHAR

STARTCHAR C262a
ENCODING 9770
SWIDTH 1000 0
DWIDTH 24 0
BBX 24 24 0 -4
BITMAP
000000
000000
000000
000000
0FC7E0
030180
030300
030600
030C00
031800
033000
036000
03F000
03B800
031C00
030E00
030700
030380
0301C0
0300E0
0FE3F0
000000
000000
000000
ENDCHAR

STARTCHAR C262b
ENCODING 9771
SWIDTH 1000 0
DWIDTH 24 0
BBX 24 24 0 -4
BITMAP
000000
000000
000000
000000
000800
000800
001C00
001C00
003E00
002600
006700
004300
00C380
008180
0181C0
0100C0
0300E0
020060
060070
040030
1F00FC
000000
000000
000000
ENDCHAR

STARTCHAR C262c
ENCODING 9772
SWIDTH 1000 0
DWIDTH 24 0
BBX 24 24 0 -4
BITMAP
000000
000000
000000
000000
7E00FC
1700B0
1300B0
1301B0
138130
118130
118330
11C230
10C230
10C630
10E430
106430
106C30
107830
103830
103030
7C11FC
000000
000000
000000
ENDCHAR

STARTCHAR C262d
ENCODING 9773
SWIDTH 1000 0
DWIDTH 24 0
BBX 24 24 0 -4
BITMAP
000000
000000
000000
000000
0E01F0
030040
038040
038040
02C040
02E040
027040
023840
021840
021C40
020E40
020740
0203C0
0201C0
0200C0
0200C0
0F8040
000000
000000
000000
ENDCHAR

STARTCHAR C262e
ENCODING 9774
SWIDTH 1000 0
DWIDTH 24 0
BBX 24 24 0 -4
BITMAP
000000
000000
000000
020010
03FFF0
07FFE0
040020
000000
000000
000000
010040
01FFC0
03FF80
020080
000000
000000
000000
040010
07FFF0
0FFFE0
080020
000000
000000
000000
ENDCHAR

STARTCHAR C262f
ENCODING 9775
SWIDTH 1000 0
DWIDTH 24 0
BBX 24 24 0 -4
BITMAP
000000
000000
000000
000000
007E00
01C380
0300C0
060060
060060
0C0030
0C0030
0C0030
0C0030
0C0030
0C0030
0C0030
060060
060060
0300C0
01C380
007E00
000000
000000
000000
ENDCHAR

STARTCHAR C2630
ENCODING 9776
SWIDTH 1000 0
DWIDTH 24 0
BBX 24 24 0 -4
BITMAP
000000
000000
000000
000000
07FFF0
0180C0
0180C0
0180C0
0180C0
0180C0
0180C0
0180C0
0180C0
0180C0
0180C0
0180C0
0180C0
0180C0
0180C0
0180C0
07E3F0
000000
000000
000000
ENDCHAR

STARTCHAR C2631
ENCODING 9777
SWIDTH 1000 0
DWIDTH 24 0
BBX 24 24 0 -4
BITMAP
000000
000000
000000
000000
07FE00
018380
0180C0
018060
018060
018060
018060
0180C0
018380
01FE00
018000
018000
018000
018000
018000
018000
07E000
000000
000000
000000
ENDCHAR

STARTCHAR C2632
ENCODING 9778
SWIDTH 1000 0
DWIDTH 24 0
BBX 24 24 0 -4
BITMAP
000000
000000
000000
0000C0
07FFC0
070060
038020
01C020
00E000
007000
003800
001C00
000E00
000C00
001800
003000
006000
00C010
018010
030030
07FFE0
000060
000000
000000
ENDCHAR

STARTCHAR C2633
ENCODING 9779
SWIDTH 1000 0
DWIDTH 24 0
BBX 24 24 0 -4
BITMAP
000000
000000
000000
000000
0FFFF0
0C1830
081810
081810
081810
001800
001800
001800
001800
001800
001800
001800
001800
001800
001800
001800
007E00
000000
000000
000000
ENDCHAR

STARTCHAR C2634
ENCODING 9780
SWIDTH 1000 0
DWIDTH 24 0
BBX 24 24 0 -4
BITMAP
000000
000000
000000
000000
070070
0F80F8
0981C8
08C188
00C300
006300
006200
003600
003400
001C00
001800
001800
001800
001800
001800
001800
00FF00
000000
000000
000000
ENDCHAR

STARTCHAR C2635
ENCODING 9781
SWIDTH 1000 0
DWIDTH 24 0
BBX 24 24 0 -4
BITMAP
000000
000000
000000
000000
00FF00
001800
001800
00FF00
0399C0
061860
061860
0C1830
0C1830
0C1830
061860
061860
0399C0
00FF00
001800
001800
00FF00
000000
000000
000000
ENDCHAR

STARTCHAR C2636
ENCODING 9782
SWIDTH 1000 0
DWIDTH 24 0
BBX 24 24 0 -4
BITMAP
000000
000000
000000
000000
0FE3F0
0380C0
018180
01C300
00E200
006600
007C00
003800
001800
003C00
006E00
004700
00C300
018380
0101C0
0300C0
0FC3F0
000000
000000
000000
ENDCHAR

STARTCHAR C2637
ENCODING 9783
SWIDTH 1000 0
DWIDTH 24 0
BBX 24 24 0 -4
BITMAP
000000
000000
000000
000000
007E00
001800
001800
0C1830
1E1878
161868
061860
061860
0318C0
0318C0
01DB80
007E00
001800
001800
001800
001800
007E00
000000
000000
000000
ENDCHAR

STARTCHAR C2638
ENCODING 9784
SWIDTH 1000 0
DWIDTH 24 0
BBX 24 24 0 -4
BITMAP
000000
000000
000000
000000
007E00
01C380
0300C0
0300C0
060060
060060
060060
060060
060060
060060
0300C0
0300C0
010080
098190
088110
0FC3F0
0FC3F0
000000
000000
000000
ENDCHAR

STARTCHAR C2639
ENCODING 9785
SWIDTH 1000 0
DWIDTH 24 0
BBX 24 24 0 -4
BITMAP
000000
000000
000000
000000
000000
000000
000000
000000
000000
000000
000000
000000
000000
000000
000000
000000
000000
000000
000000
000000
000000
000000
000000
000000
ENDCHAR

STARTCHAR C263a
ENCODING 9786
SWIDTH 1000 0
DWIDTH 24 0
BBX 24 24 0 -4
BITMAP
000000
000000
000000
000000
000000
000000
000000
000000
000000
000000
000000
000000
000000
000000
000000
000000
000000
000000
000000
000000
000000
000000
000000
000000
ENDCHAR

STARTCHAR C263b
ENCODING 9787
SWIDTH 1000 0
DWIDTH 24 0
BBX 24 24 0 -4
BITMAP
000000
000000
000000
000000
000000
000000
000000
000000
000000
000000
000000
000000
000000
000000
000000
000000
000000
000000
000000
000000
000000
000000
000000
000000
ENDCHAR

STARTCHAR C263c
ENCODING 9788
SWIDTH 1000 0
DWIDTH 24 0
BBX 24 24 0 -4
BITMAP
000000
000000
000000
000000
000000
000000
000000
000000
000000
000000
000000
000000
000000
000000
000000
000000
000000
000000
000000
000000
000000
000000
000000
000000
ENDCHAR

STARTCHAR C263d
ENCODING 9789
SWIDTH 1000 0
DWIDTH 24 0
BBX 24 24 0 -4
BITMAP
000000
000000
000000
000000
000000
000000
000000
000000
000000
000000
000000
000000
000000
000000
000000
000000
000000
000000
000000
000000
000000
000000
000000
000000
ENDCHAR

STARTCHAR C263e
ENCODING 9790
SWIDTH 1000 0
DWIDTH 24 0
BBX 24 24 0 -4
BITMAP
000000
000000
000000
000000
000000
000000
000000
000000
000000
000000
000000
000000
000000
000000
000000
000000
000000
000000
000000
000000
000000
000000
000000
000000
ENDCHAR

STARTCHAR C263f
ENCODING 9791
SWIDTH 1000 0
DWIDTH 24 0
BBX 24 24 0 -4
BITMAP
000000
000000
000000
000000
000000
000000
000000
000000
000000
000000
000000
000000
000000
000000
000000
000000
000000
000000
000000
000000
000000
000000
000000
000000
ENDCHAR

STARTCHAR C2640
ENCODING 9792
SWIDTH 1000 0
DWIDTH 24 0
BBX 24 24 0 -4
BITMAP
000000
000000
000000
000000
000000
000000
000000
000000
000000
000000
000000
000000
000000
000000
000000
000000
000000
000000
000000
000000
000000
000000
000000
000000
ENDCHAR

STARTCHAR C2641
ENCODING 9793
SWIDTH 1000 0
DWIDTH 24 0
BBX 24 24 0 -4
BITMAP
000000
000000
000000
000000
000000
000000
000000
000000
000000
003C30
00E630
018260
030260
0302C0
0602C0
060380
060380
060700
060D00
033980
01E0E0
000000
000000
000000
ENDCHAR

STARTCHAR C2642
ENCODING 9794
SWIDTH 1000 0
DWIDTH 24 0
BBX 24 24 0 -4
BITMAP
000000
000000
000000
000000
003E00
006300
00C180
00C180
018180
018180
018300
031E00
030600
030300
030180
060180
060180
060380
06C700
067C00
060000
060000
060000
000000
ENDCHAR

STARTCHAR C2643
ENCODING 9795
SWIDTH 1000 0
DWIDTH 24 0
BBX 24 24 0 -4
BITMAP
000000
000000
000000
000000
000000
000000
000000
000000
000000
01E030
033070
0610C0
061980
000B00
000E00
000C00
000C00
001800
001800
003000
003000
006000
006000
000000
ENDCHAR

STARTCHAR C2644
ENCODING 9796
SWIDTH 1000 0
DWIDTH 24 0
BBX 24 24 0 -4
BITMAP
000000
000000
000000
000000
003C00
006600
004300
004180
006180
003000
001800
000C00
001E00
006300
00C100
00C180
018180
018180
018300
00C600
007C00
000000
000000
000000
ENDCHAR

STARTCHAR C2645
ENCODING 9797
SWIDTH 1000 0
DWIDTH 24 0
BBX 24 24 0 -4
BITMAP
000000
000000
000000
000000
000000
000000
000000
000000
000000
001F00
007180
00E080
00C000
006000
003F00
00E600
01C000
018000
01C080
00F180
003F00
000000
000000
000000
ENDCHAR

STARTCHAR C2646
ENCODING 9798
SWIDTH 1000 0
DWIDTH 24 0
BBX 24 24 0 -4
BITMAP
000000
000000
000000
000000
003180
006780
007F00
003C00
001800
003000
006000
004000
00C000
008000
018000
018000
018000
01C000
00F800
001E00
00C700
00C300
007E00
000000
ENDCHAR

STARTCHAR C2647
ENCODING 9799
SWIDTH 1000 0
DWIDTH 24 0
BBX 24 24 0 -4
BITMAP
000000
000000
000000
000000
000000
000000
000000
000000
000000
03C700
066980
0430C0
0030C0
0030C0
0060C0
006180
006180
00C180
00C180
00C300
000300
000300
000300
000000
ENDCHAR

STARTCHAR C2648
ENCODING 9800
SWIDTH 1000 0
DWIDTH 24 0
BBX 24 24 0 -4
BITMAP
000000
000000
000000
000000
000000
000F00
001980
003080
0030C0
0060C0
0060C0
00C0C0
00FF80
00C180
018180
018300
018300
018600
008600
00CC00
007800
000000
000000
000000
ENDCHAR

STARTCHAR C2649
ENCODING 9801
SWIDTH 1000 0
DWIDTH 24 0
BBX 24 24 0 -4
BITMAP
000000
000000
000000
000000
000000
000000
000000
000000
000000
000C00
000C00
001C00
001C00
001800
001800
003000
003000
002100
006300
006600
003C00
000000
000000
000000
ENDCHAR

STARTCHAR C264a
ENCODING 9802
SWIDTH 1000 0
DWIDTH 24 0
BBX 24 24 0 -4
BITMAP
000000
000000
000000
000000
000000
000000
000000
000000
000000
018180
00C380
00C600
00CC00
00D800
01F000
019800
019800
018C40
030CC0
030780
030300
000000
000000
000000
ENDCHAR

STARTCHAR C264b
ENCODING 9803
SWIDTH 1000 0
DWIDTH 24 0
BBX 24 24 0 -4
BITMAP
000000
000000
000000
000000
006000
007000
001800
000800
000C00
000400
000400
000400
000C00
001C00
003400
006400
00C400
018400
018600
0303C0
0301C0
000000
000000
000000
ENDCHAR

STARTCHAR C264c
ENCODING 9804
SWIDTH 1000 0
DWIDTH 24 0
BBX 24 24 0 -4
BITMAP
000000
000000
000000
000000
000000
000000
000000
000000
000000
004080
00E1C0
00E1C0
00C180
01C380
018300
018300
010200
018620
03CF60
0379C0
020000
060000
060000
000000
ENDCHAR

STARTCHAR C264d
ENCODING 9805
SWIDTH 1000 0
DWIDTH 24 0
BBX 24 24 0 -4
BITMAP
000000
000000
000000
000000
000000
000000
000000
000000
000000
00C040
00E040
0060C0
006080
006180
004100
00C300
008600
008C00
01B800
01E000
018000
000000
000000
000000
ENDCHAR

STARTCHAR C264e
ENCODING 9806
SWIDTH 1000 0
DWIDTH 24 0
BBX 24 24 0 -4
BITMAP
000000
000C00
001E00
003000
002380
001FC0
007000
00E000
00C000
00C000
006F00
003F80
00F000
018000
030000
030000
01C000
00F800
001E00
000300
010300
018600
00FC00
000000
ENDCHAR

STARTCHAR C264f
ENCODING 9807
SWIDTH 1000 0
DWIDTH 24 0
BBX 24 24 0 -4
BITMAP
000000
000000
000000
000000
000000
000000
000000
000000
000000
003E00
006300
00C180
00C180
018180
018180
018180
018180
018300
018300
00C600
007C00
000000
000000
000000
ENDCHAR

STARTCHAR C2650
ENCODING 9808
SWIDTH 1000 0
DWIDTH 24 0
BBX 24 24 0 -4
BITMAP
000000
000000
000000
000000
000000
000000
000000
000000
000000
00FFF0
03FFE0
062200
002200
006200
004200
00C600
008400
018440
0186C0
030780
030300
000000
000000
000000
ENDCHAR

STARTCHAR C2651
ENCODING 9809
SWIDTH 1000 0
DWIDTH 24 0
BBX 24 24 0 -4
BITMAP
000000
000000
000000
000000
000000
000000
000000
000000
000000
003E00
006300
00C180
00C180
018180
018180
018180
018180
01C300
034300
036600
033C00
030000
030000
000000
ENDCHAR

STARTCHAR C2652
ENCODING 9810
SWIDTH 1000 0
DWIDTH 24 0
BBX 24 24 0 -4
BITMAP
000000
000000
000000
000000
000000
000000
000000
000000
000000
001FE0
007FC0
00C600
018300
018300
030300
030300
030300
030600
030600
018C00
00F800
000000
000000
000000
ENDCHAR

STARTCHAR C2653
ENCODING 9811
SWIDTH 1000 0
DWIDTH 24 0
BBX 24 24 0 -4
BITMAP
000000
000000
000000
000000
000000
000000
000000
000000
000000
007F80
01FF00
039000
001000
003000
002000
002000
006000
006000
006400
007C00
003800
000000
000000
000000
ENDCHAR

STARTCHAR C2654
ENCODING 9812
SWIDTH 1000 0
DWIDTH 24 0
BBX 24 24 0 -4
BITMAP
000000
000000
000000
000000
000000
000000
000000
000000
000000
00C200
00E300
00E100
00C180
00C180
018180
018380
010300
010700
018E00
00DC00
007000
000000
000000
000000
ENDCHAR

STARTCHAR C2655
ENCODING 9813
SWIDTH 1000 0
DWIDTH 24 0
BBX 24 24 0 -4
BITMAP
000000
000000
000000
000000
000300
000700
000600
000600
003F00
00E580
018CC0
0308C0
0208C0
0618C0
061080
061180
063300
032600
01FC00
006000
006000
00E000
00C000
000000
ENDCHAR

STARTCHAR C2656
ENCODING 9814
SWIDTH 1000 0
DWIDTH 24 0
BBX 24 24 0 -4
BITMAP
000000
000000
000000
000000
000000
000000
000000
00E180
01F180
033300
021300
001600
001600
001C00
001C00
001800
001800
003800
006800
006800
00CC80
018780
018300
000000
ENDCHAR

STARTCHAR C2657
ENCODING 9815
SWIDTH 1000 0
DWIDTH 24 0
BBX 24 24 0 -4
BITMAP
000000
000000
000000
000000
000600
000600
000600
000600
00CCC0
018CE0
030C60
030860
060860
061860
061040
0610C0
063080
032180
03A700
01FC00
006000
00C000
00C000
000000
ENDCHAR

STARTCHAR C2658
ENCODING 9816
SWIDTH 1000 0
DWIDTH 24 0
BBX 24 24 0 -4
BITMAP
000000
000000
000000
000000
000000
000000
000000
000000
000000
000000
00C0C0
018060
030820
061C30
061C30
0C1830
0C1860
0C1060
0E30C0
067980
03CF00
000000
000000
000000
ENDCHAR

STARTCHAR C2659
ENCODING 9817
SWIDTH 1000 0
DWIDTH 24 0
BBX 24 24 0 -4
BITMAP
000000
000000
000000
000000
000000
000000
000000
000000
000000
000000
000000
000000
000000
000000
000000
000000
000000
000000
000000
000000
000000
000000
000000
000000
ENDCHAR

STARTCHAR C265a
ENCODING 9818
SWIDTH 1000 0
DWIDTH 24 0
BBX 24 24 0 -4
BITMAP
000000
000000
000000
000000
000000
000000
000000
000000
000000
000000
000000
000000
000000
000000
000000
000000
000000
000000
000000
000000
000000
000000
000000
000000
ENDCHAR

STARTCHAR C265b
ENCODING 9819
SWIDTH 1000 0
DWIDTH 24 0
BBX 24 24 0 -4
BITMAP
000000
000000
000000
000000
000000
000000
000000
000000
000000
000000
000000
000000
000000
000000
000000
000000
000000
000000
000000
000000
000000
000000
000000
000000
ENDCHAR

STARTCHAR C265c
ENCODING 9820
SWIDTH 1000 0
DWIDTH 24 0
BBX 24 24 0 -4
BITMAP
000000
000000
000000
000000
000000
000000
000000
000000
000000
000000
000000
000000
000000
000000
000000
000000
000000
000000
000000
000000
000000
000000
000000
000000
ENDCHAR

STARTCHAR C265d
ENCODING 9821
SWIDTH 1000 0
DWIDTH 24 0
BBX 24 24 0 -4
BITMAP
000000
000000
000000
000000
000000
000000
000000
000000
000000
000000
000000
000000
000000
000000
000000
000000
000000
000000
000000
000000
000000
000000
000000
000000
ENDCHAR

STARTCHAR C265e
ENCODING 9822
SWIDTH 1000 0
DWIDTH 24 0
BBX 24 24 0 -4
BITMAP
000000
000000
000000
000000
000000
000000
000000
000000
000000
000000
000000
000000
000000
000000
000000
000000
000000
000000
000000
000000
000000
000000
000000
000000
ENDCHAR

STARTCHAR C265f
ENCODING 9823
SWIDTH 1000 0
DWIDTH 24 0
BBX 24 24 0 -4
BITMAP
000000
000000
000000
000000
000000
000000
000000
000000
000000
000000
000000
000000
000000
000000
000000
000000
000000
000000
000000
000000
000000
000000
000000
000000
ENDCHAR

STARTCHAR C2660
ENCODING 9824
SWIDTH 1000 0
DWIDTH 24 0
BBX 24 24 0 -4
BITMAP
000000
000000
000000
000000
000000
000000
000000
000000
000000
000000
000000
000000
000000
000000
000000
000000
000000
000000
000000
000000
000000
000000
000000
000000
ENDCHAR

STARTCHAR C2661
ENCODING 9825
SWIDTH 1000 0
DWIDTH 24 0
BBX 24 24 0 -4
BITMAP
000000
000000
000000
000000
000000
000000
000000
000000
000000
000000
000000
000000
000000
000000
000000
000000
000000
000000
000000
000000
000000
000000
000000
000000
ENDCHAR

STARTCHAR C2662
ENCODING 9826
SWIDTH 1000 0
DWIDTH 24 0
BBX 24 24 0 -4
BITMAP
000000
000000
000000
000000
000000
000000
000000
000000
000000
000000
000000
000000
000000
000000
000000
000000
000000
000000
000000
000000
000000
000000
000000
000000
ENDCHAR

STARTCHAR C2663
ENCODING 9827
SWIDTH 1000 0
DWIDTH 24 0
BBX 24 24 0 -4
BITMAP
000000
000000
000000
000000
000000
000000
000000
000000
000000
000000
000000
000000
000000
000000
000000
000000
000000
000000
000000
000000
000000
000000
000000
000000
ENDCHAR

STARTCHAR C2664
ENCODING 9828
SWIDTH 1000 0
DWIDTH 24 0
BBX 24 24 0 -4
BITMAP
000000
000000
000000
000000
000000
000000
000000
000000
000000
000000
000000
000000
000000
000000
000000
000000
000000
000000
000000
000000
000000
000000
000000
000000
ENDCHAR

STARTCHAR C2665
ENCODING 9829
SWIDTH 1000 0
DWIDTH 24 0
BBX 24 24 0 -4
BITMAP
000000
000000
000000
000000
000000
000000
000000
000000
000000
000000
000000
000000
000000
000000
000000
000000
000000
000000
000000
000000
000000
000000
000000
000000
ENDCHAR

STARTCHAR C2666
ENCODING 9830
SWIDTH 1000 0
DWIDTH 24 0
BBX 24 24 0 -4
BITMAP
000000
000000
000000
000000
000000
000000
000000
000000
000000
000000
000000
000000
000000
000000
000000
000000
000000
000000
000000
000000
000000
000000
000000
000000
ENDCHAR

STARTCHAR C2667
ENCODING 9831
SWIDTH 1000 0
DWIDTH 24 0
BBX 24 24 0 -4
BITMAP
000000
000000
000000
000000
000000
000000
000000
000000
000000
000000
000000
000000
000000
000000
000000
000000
000000
000000
000000
000000
000000
000000
000000
000000
ENDCHAR

STARTCHAR C2668
ENCODING 9832
SWIDTH 1000 0
DWIDTH 24 0
BBX 24 24 0 -4
BITMAP
000000
000000
000000
000000
000000
000000
000000
000000
000000
000000
000000
000000
000000
000000
000000
000000
000000
000000
000000
000000
000000
000000
000000
000000
ENDCHAR

STARTCHAR C2669
ENCODING 9833
SWIDTH 1000 0
DWIDTH 24 0
BBX 24 24 0 -4
BITMAP
000000
000000
000000
000000
000000
000000
000000
000000
000000
000000
000000
000000
000000
000000
000000
000000
000000
000000
000000
000000
000000
000000
000000
000000
ENDCHAR

STARTCHAR C266a
ENCODING 9834
SWIDTH 1000 0
DWIDTH 24 0
BBX 24 24 0 -4
BITMAP
000000
000000
000000
000000
000000
000000
000000
000000
000000
000000
000000
000000
000000
000000
000000
000000
000000
000000
000000
000000
000000
000000
000000
000000
ENDCHAR

STARTCHAR C266b
ENCODING 9835
SWIDTH 1000 0
DWIDTH 24 0
BBX 24 24 0 -4
BITMAP
000000
000000
000000
000000
000000
000000
000000
000000
000000
000000
000000
000000
000000
000000
000000
000000
000000
000000
000000
000000
000000
000000
000000
000000
ENDCHAR

STARTCHAR C266c
ENCODING 9836
SWIDTH 1000 0
DWIDTH 24 0
BBX 24 24 0 -4
BITMAP
000000
000000
000000
000000
000000
000000
000000
000000
000000
000000
000000
000000
000000
000000
000000
000000
000000
000000
000000
000000
000000
000000
000000
000000
ENDCHAR

STARTCHAR C266d
ENCODING 9837
SWIDTH 1000 0
DWIDTH 24 0
BBX 24 24 0 -4
BITMAP
000000
000000
000000
000000
000000
000000
000000
000000
000000
000000
000000
000000
000000
000000
000000
000000
000000
000000
000000
000000
000000
000000
000000
000000
ENDCHAR

STARTCHAR C266e
ENCODING 9838
SWIDTH 1000 0
DWIDTH 24 0
BBX 24 24 0 -4
BITMAP
000000
000000
000000
000000
000000
000000
000000
000000
000000
000000
000000
000000
000000
000000
000000
000000
000000
000000
000000
000000
000000
000000
000000
000000
ENDCHAR

STARTCHAR C266f
ENCODING 9839
SWIDTH 1000 0
DWIDTH 24 0
BBX 24 24 0 -4
BITMAP
000000
000000
000000
000000
000000
000000
000000
000000
000000
000000
000000
000000
000000
000000
000000
000000
000000
000000
000000
000000
000000
000000
000000
000000
ENDCHAR

STARTCHAR C2670
ENCODING 9840
SWIDTH 1000 0
DWIDTH 24 0
BBX 24 24 0 -4
BITMAP
000000
000000
000000
000000
000000
000000
000000
000000
000000
000000
000000
000000
000000
000000
000000
000000
000000
000000
000000
000000
000000
000000
000000
000000
ENDCHAR

STARTCHAR C2671
ENCODING 9841
SWIDTH 1000 0
DWIDTH 24 0
BBX 24 24 0 -4
BITMAP
000000
000000
000000
000000
000000
000000
000000
000000
000000
000000
000000
000000
000000
000000
000000
000000
000000
000000
000000
000000
000000
000000
000000
000000
ENDCHAR

STARTCHAR C2672
ENCODING 9842
SWIDTH 1000 0
DWIDTH 24 0
BBX 24 24 0 -4
BITMAP
000000
000000
000000
000000
000000
000000
000000
000000
000000
000000
000000
000000
000000
000000
000000
000000
000000
000000
000000
000000
000000
000000
000000
000000
ENDCHAR

STARTCHAR C2673
ENCODING 9843
SWIDTH 1000 0
DWIDTH 24 0
BBX 24 24 0 -4
BITMAP
000000
000000
000000
000000
000000
000000
000000
000000
000000
000000
000000
000000
000000
000000
000000
000000
000000
000000
000000
000000
000000
000000
000000
000000
ENDCHAR

STARTCHAR C2674
ENCODING 9844
SWIDTH 1000 0
DWIDTH 24 0
BBX 24 24 0 -4
BITMAP
000000
000000
000000
000000
000000
000000
000000
000000
000000
000000
000000
000000
000000
000000
000000
000000
000000
000000
000000
000000
000000
000000
000000
000000
ENDCHAR

STARTCHAR C2675
ENCODING 9845
SWIDTH 1000 0
DWIDTH 24 0
BBX 24 24 0 -4
BITMAP
000000
000000
000000
000000
000000
000000
000000
000000
000000
000000
000000
000000
000000
000000
000000
000000
000000
000000
000000
000000
000000
000000
000000
000000
ENDCHAR

STARTCHAR C2676
ENCODING 9846
SWIDTH 1000 0
DWIDTH 24 0
BBX 24 24 0 -4
BITMAP
000000
000000
000000
000000
000000
000000
000000
000000
000000
000000
000000
000000
000000
000000
000000
000000
000000
000000
000000
000000
000000
000000
000000
000000
ENDCHAR

STARTCHAR C2677
ENCODING 9847
SWIDTH 1000 0
DWIDTH 24 0
BBX 24 24 0 -4
BITMAP
000000
000000
000000
000000
000000
000000
000000
000000
000000
000000
000000
000000
000000
000000
000000
000000
000000
000000
000000
000000
000000
000000
000000
000000
ENDCHAR

STARTCHAR C2678
ENCODING 9848
SWIDTH 1000 0
DWIDTH 24 0
BBX 24 24 0 -4
BITMAP
000000
000000
000000
000000
000000
000000
000000
000000
000000
000000
000000
000000
000000
000000
000000
000000
000000
000000
000000
000000
000000
000000
000000
000000
ENDCHAR

STARTCHAR C2679
ENCODING 9849
SWIDTH 1000 0
DWIDTH 24 0
BBX 24 24 0 -4
BITMAP
000000
000000
000000
000000
000000
000000
000000
000000
000000
000000
000000
000000
000000
000000
000000
000000
000000
000000
000000
000000
000000
000000
000000
000000
ENDCHAR

STARTCHAR C267a
ENCODING 9850
SWIDTH 1000 0
DWIDTH 24 0
BBX 24 24 0 -4
BITMAP
000000
000000
000000
000000
000000
000000
000000
000000
000000
000000
000000
000000
000000
000000
000000
000000
000000
000000
000000
000000
000000
000000
000000
000000
ENDCHAR

STARTCHAR C267b
ENCODING 9851
SWIDTH 1000 0
DWIDTH 24 0
BBX 24 24 0 -4
BITMAP
000000
000000
000000
000000
000000
000000
000000
000000
000000
000000
000000
000000
000000
000000
000000
000000
000000
000000
000000
000000
000000
000000
000000
000000
ENDCHAR

STARTCHAR C267c
ENCODING 9852
SWIDTH 1000 0
DWIDTH 24 0
BBX 24 24 0 -4
BITMAP
000000
000000
000000
000000
000000
000000
000000
000000
000000
000000
000000
000000
000000
000000
000000
000000
000000
000000
000000
000000
000000
000000
000000
000000
ENDCHAR

STARTCHAR C267d
ENCODING 9853
SWIDTH 1000 0
DWIDTH 24 0
BBX 24 24 0 -4
BITMAP
000000
000000
000000
000000
000000
000000
000000
000000
000000
000000
000000
000000
000000
000000
000000
000000
000000
000000
000000
000000
000000
000000
000000
000000
ENDCHAR

STARTCHAR C267e
ENCODING 9854
SWIDTH 1000 0
DWIDTH 24 0
BBX 24 24 0 -4
BITMAP
000000
000000
000000
000000
000000
000000
000000
000000
000000
000000
000000
000000
000000
000000
000000
000000
000000
000000
000000
000000
000000
000000
000000
000000
ENDCHAR

STARTCHAR C2721
ENCODING 10017
SWIDTH 1000 0
DWIDTH 24 0
BBX 24 24 0 -4
BITMAP
000000
000000
000000
000000
003C00
000C00
001C00
001600
003600
002300
006300
004300
00C180
008180
01FFC0
0100C0
0300C0
020060
060060
0F81F8
000000
000000
000000
000000
ENDCHAR

STARTCHAR C2722
ENCODING 10018
SWIDTH 1000 0
DWIDTH 24 0
BBX 24 24 0 -4
BITMAP
000000
000000
000000
000000
03FFC0
00C0C0
00C040
00C040
00C000
00C000
00C000
00FF00
00C1C0
00C0C0
00C060
00C060
00C060
00C0C0
00C1C0
03FF00
000000
000000
000000
000000
ENDCHAR

STARTCHAR C2723
ENCODING 10019
SWIDTH 1000 0
DWIDTH 24 0
BBX 24 24 0 -4
BITMAP
000000
000000
000000
000000
07FE00
018380
0180C0
0180C0
0180C0
018180
018700
01FE00
018380
0180C0
018060
018060
018060
0180C0
018380
07FE00
000000
000000
000000
000000
ENDCHAR

STARTCHAR C2724
ENCODING 10020
SWIDTH 1000 0
DWIDTH 24 0
BBX 24 24 0 -4
BITMAP
000000
000000
000000
000000
03FFE0
00C060
00C020
00C020
00C000
00C000
00C000
00C000
00C000
00C000
00C000
00C000
00C000
00C000
00C000
03F000
000000
000000
000000
000000
ENDCHAR

STARTCHAR C2725
ENCODING 10021
SWIDTH 1000 0
DWIDTH 24 0
BBX 24 24 0 -4
BITMAP
000000
000000
000000
000000
01FFE0
004180
004180
004180
004180
004180
004180
004180
004180
00C180
008180
008180
008180
018180
010180
07FFE0
060060
0C0020
080020
000000
ENDCHAR

STARTCHAR C2726
ENCODING 10022
SWIDTH 1000 0
DWIDTH 24 0
BBX 24 24 0 -4
BITMAP
000000
000000
000000
000000
07FFC0
0180C0
018040
018040
018000
018200
018600
01FE00
018600
018200
018000
018000
018040
018040
0180C0
07FFC0
000000
000000
000000
000000
ENDCHAR

STARTCHAR C2727
ENCODING 10023
SWIDTH 1000 0
DWIDTH 24 0
BBX 24 24 0 -4
BITMAP
000000
00C600
00C600
000000
07FFC0
0180C0
018040
018040
018000
018200
018600
01FE00
018600
018200
018000
018000
018040
018040
0180C0
07FFC0
000000
000000
000000
000000
ENDCHAR

STARTCHAR C2728
ENCODING 10024
SWIDTH 1000 0
DWIDTH 24 0
BBX 24 24 0 -4
BITMAP
000000
000000
000000
000000
1C3C38
36182C
32186C
021840
0318C0
011880
019980
00FF00
019980
0399C0
0318C0
061860
0E1870
0C1830
181818
3E3C7C
000000
000000
000000
000000
ENDCHAR

STARTCHAR C2729
ENCODING 10025
SWIDTH 1000 0
DWIDTH 24 0
BBX 24 24 0 -4
BITMAP
000000
000000
000000
000000
003E00
00E300
01C180
018180
000180
000300
000600
003C00
000700
000180
0000C0
0000C0
0100C0
0181C0
01C380
007E00
000000
000000
000000
000000
ENDCHAR

STARTCHAR C272a
ENCODING 10026
SWIDTH 1000 0
DWIDTH 24 0
BBX 24 24 0 -4
BITMAP
000000
000000
000000
000000
0FC1F8
030060
030060
0300E0
0301E0
030360
030660
030C60
030860
031860
033060
036060
03C060
038060
030060
0FC1F8
000000
000000
000000
000000
ENDCHAR

STARTCHAR C272b
ENCODING 10027
SWIDTH 1000 0
DWIDTH 24 0
BBX 24 24 0 -4
BITMAP
000000
00C180
00E380
003E00
0F80F8
030060
030060
0300E0
0301E0
030360
030660
030C60
030860
031860
033060
036060
03C060
038060
030060
0FC1F8
000000
000000
000000
000000
ENDCHAR

STARTCHAR C272c
ENCODING 10028
SWIDTH 1000 0
DWIDTH 24 0
BBX 24 24 0 -4
BITMAP
000000
000000
000000
000000
07E3C0
018660
018460
018400
018400
018400
018C00
018800
01F800
018C00
018600
018600
018300
018300
018180
07E3E0
000000
000000
000000
000000
ENDCHAR

STARTCHAR C272d
ENCODING 10029
SWIDTH 1000 0
DWIDTH 24 0
BBX 24 24 0 -4
BITMAP
000000
000000
000000
000000
00FFE0
002180
002180
002180
002180
002180
002180
002180
002180
002180
002180
066180
064180
044180
06C180
0387E0
000000
000000
000000
000000
ENDCHAR

STARTCHAR C272e
ENCODING 10030
SWIDTH 1000 0
DWIDTH 24 0
BBX 24 24 0 -4
BITMAP
000000
000000
000000
000000
078070
018040
0180C0
01C0C0
03C1E0
02C160
026160
026360
026260
023260
063630
043C30
041C30
041830
041830
1F00FC
000000
000000
000000
000000
ENDCHAR

STARTCHAR C272f
ENCODING 10031
SWIDTH 1000 0
DWIDTH 24 0
BBX 24 24 0 -4
BITMAP
000000
000000
000000
000000
0FC3F0
0300C0
0300C0
0300C0
0300C0
0300C0
0300C0
03FFC0
0300C0
0300C0
0300C0
0300C0
0300C0
0300C0
0300C0
0FC3F0
000000
000000
000000
000000
ENDCHAR

STARTCHAR C2730
ENCODING 10032
SWIDTH 1000 0
DWIDTH 24 0
BBX 24 24 0 -4
BITMAP
000000
000000
000000
000000
003E00
00E380
0180C0
030060
030060
060030
060030
060030
060030
060030
060030
030060
030060
0180C0
00E380
003E00
000000
000000
000000
000000
ENDCHAR

STARTCHAR C2731
ENCODING 10033
SWIDTH 1000 0
DWIDTH 24 0
BBX 24 24 0 -4
BITMAP
000000
000000
000000
000000
07FFF0
0180C0
0180C0
0180C0
0180C0
0180C0
0180C0
0180C0
0180C0
0180C0
0180C0
0180C0
0180C0
0180C0
0180C0
07E3F0
000000
000000
000000
000000
ENDCHAR

STARTCHAR C2732
ENCODING 10034
SWIDTH 1000 0
DWIDTH 24 0
BBX 24 24 0 -4
BITMAP
000000
000000
000000
000000
07FF00
0181C0
0180C0
018060
018060
018060
0180C0
0181C0
01FF00
018000
018000
018000
018000
018000
018000
07F000
000000
000000
000000
000000
ENDCHAR

STARTCHAR C2733
ENCODING 10035
SWIDTH 1000 0
DWIDTH 24 0
BBX 24 24 0 -4
BITMAP
000000
000000
000000
000000
003E00
00E380
0180C0
030060
030060
060000
060000
060000
060000
060000
060000
030020
030020
018060
00E1E0
003F20
000000
000000
000000
000000
ENDCHAR

STARTCHAR C2734
ENCODING 10036
SWIDTH 1000 0
DWIDTH 24 0
BBX 24 24 0 -4
BITMAP
000000
000000
000000
000000
07FFE0
061860
0C1830
081810
001800
001800
001800
001800
001800
001800
001800
001800
001800
001800
001800
007E00
000000
000000
000000
000000
ENDCHAR

STARTCHAR C2735
ENCODING 10037
SWIDTH 1000 0
DWIDTH 24 0
BBX 24 24 0 -4
BITMAP
000000
000000
000000
000000
07E1F0
0180C0
00C080
00C080
006180
006100
003100
003300
001A00
001A00
000E00
018C00
018C00
010800
019800
00F000
000000
000000
000000
000000
ENDCHAR

STARTCHAR C2736
ENCODING 10038
SWIDTH 1000 0
DWIDTH 24 0
BBX 24 24 0 -4
BITMAP
000000
000000
000000
000000
007E00
001800
00FF00
0399C0
061860
041820
0C1830
0C1830
0C1830
0C1830
041820
061860
0399C0
00FF00
001800
007E00
000000
000000
000000
000000
ENDCHAR

STARTCHAR C2737
ENCODING 10039
SWIDTH 1000 0
DWIDTH 24 0
BBX 24 24 0 -4
BITMAP
000000
000000
000000
000000
0F83F0
0300C0
038180
01C100
00E300
006600
007C00
003800
001C00
003E00
006600
00C700
008380
0181C0
0300C0
0F81F0
000000
000000
000000
000000
ENDCHAR

STARTCHAR C2738
ENCODING 10040
SWIDTH 1000 0
DWIDTH 24 0
BBX 24 24 0 -4
BITMAP
000000
000000
000000
000000
0FC7E0
030180
030180
030180
030180
030180
030180
030180
030180
030180
030180
030180
030180
030180
030180
0FFFF0
000030
000010
000010
000000
ENDCHAR

STARTCHAR C2739
ENCODING 10041
SWIDTH 1000 0
DWIDTH 24 0
BBX 24 24 0 -4
BITMAP
000000
000000
000000
000000
0FC7E0
030180
030180
030180
030180
030180
030180
030180
018780
00FD80
000180
000180
000180
000180
000180
0007E0
000000
000000
000000
000000
ENDCHAR

STARTCHAR C273a
ENCODING 10042
SWIDTH 1000 0
DWIDTH 24 0
BBX 24 24 0 -4
BITMAP
000000
000000
000000
000000
3F7EFC
0C1830
0C1830
0C1830
0C1830
0C1830
0C1830
0C1830
0C1830
0C1830
0C1830
0C1830
0C1830
0C1830
0C1830
3FFFFC
000000
000000
000000
000000
ENDCHAR

STARTCHAR C273b
ENCODING 10043
SWIDTH 1000 0
DWIDTH 24 0
BBX 24 24 0 -4
BITMAP
000000
000000
000000
000000
3F7EFC
0C1830
0C1830
0C1830
0C1830
0C1830
0C1830
0C1830
0C1830
0C1830
0C1830
0C1830
0C1830
0C1830
0C1830
3FFFFC
00000C
000004
000004
000000
ENDCHAR

STARTCHAR C273c
ENCODING 10044
SWIDTH 1000 0
DWIDTH 24 0
BBX 24 24 0 -4
BITMAP
000000
000000
000000
000000
0FF800
0C6000
086000
086000
006000
006000
006000
007F80
0060E0
006060
006030
006030
006030
006060
0060E0
01FF80
000000
000000
000000
000000
ENDCHAR

STARTCHAR C273d
ENCODING 10045
SWIDTH 1000 0
DWIDTH 24 0
BBX 24 24 0 -4
BITMAP
000000
000000
000000
000000
3F00FC
0C0030
0C0030
0C0030
0C0030
0C0030
0C0030
0FF030
0C1C30
0C0C30
0C0630
0C0630
0C0630
0C0C30
0C1C30
3FF0FC
000000
000000
000000
000000
ENDCHAR

STARTCHAR C273e
ENCODING 10046
SWIDTH 1000 0
DWIDTH 24 0
BBX 24 24 0 -4
BITMAP
000000
000000
000000
000000
07E000
018000
018000
018000
018000
018000
018000
01FF00
0181C0
0180C0
018060
018060
018060
0180C0
0181C0
07FF00
000000
000000
000000
000000
ENDCHAR

STARTCHAR C273f
ENCODING 10047
SWIDTH 1000 0
DWIDTH 24 0
BBX 24 24 0 -4
BITMAP
000000
000000
000000
000000
00F800
038E00
070300
060180
060180
0000C0
0000C0
0070C0
00FFC0
008EC0
0000C0
000180
060180
060300
070E00
03F800
000000
000000
000000
000000
ENDCHAR

STARTCHAR C2740
ENCODING 10048
SWIDTH 1000 0
DWIDTH 24 0
BBX 24 24 0 -4
BITMAP
000000
000000
000000
000000
3F0780
0C1CE0
0C3030
0C6018
0C6018
0CC00C
0CC00C
0FC00C
0CC00C
0CC00C
0CC00C
0C6018
0C6018
0C3030
0C1CE0
3F0780
000000
000000
000000
000000
ENDCHAR

STARTCHAR C2741
ENCODING 10049
SWIDTH 1000 0
DWIDTH 24 0
BBX 24 24 0 -4
BITMAP
000000
000000
000000
000000
00FFE0
038180
030180
060180
060180
060180
030180
038180
00FF80
006180
006180
00C180
00C180
018180
030180
0607E0
000000
000000
000000
000000
ENDCHAR

STARTCHAR C2742
ENCODING 10050
SWIDTH 1000 0
DWIDTH 24 0
BBX 24 24 0 -4
BITMAP
000000
000000
000000
000000
000000
000000
000000
000000
000000
000000
000000
000000
000000
000000
000000
000000
000000
000000
000000
000000
000000
000000
000000
000000
ENDCHAR

STARTCHAR C2743
ENCODING 10051
SWIDTH 1000 0
DWIDTH 24 0
BBX 24 24 0 -4
BITMAP
000000
000000
000000
000000
000000
000000
000000
000000
000000
000000
000000
000000
000000
000000
000000
000000
000000
000000
000000
000000
000000
000000
000000
000000
ENDCHAR

STARTCHAR C2744
ENCODING 10052
SWIDTH 1000 0
DWIDTH 24 0
BBX 24 24 0 -4
BITMAP
000000
000000
000000
000000
000000
000000
000000
000000
000000
000000
000000
000000
000000
000000
000000
000000
000000
000000
000000
000000
000000
000000
000000
000000
ENDCHAR

STARTCHAR C2745
ENCODING 10053
SWIDTH 1000 0
DWIDTH 24 0
BBX 24 24 0 -4
BITMAP
000000
000000
000000
000000
000000
000000
000000
000000
000000
000000
000000
000000
000000
000000
000000
000000
000000
000000
000000
000000
000000
000000
000000
000000
ENDCHAR

STARTCHAR C2746
ENCODING 10054
SWIDTH 1000 0
DWIDTH 24 0
BBX 24 24 0 -4
BITMAP
000000
000000
000000
000000
000000
000000
000000
000000
000000
000000
000000
000000
000000
000000
000000
000000
000000
000000
000000
000000
000000
000000
000000
000000
ENDCHAR

STARTCHAR C2747
ENCODING 10055
SWIDTH 1000 0
DWIDTH 24 0
BBX 24 24 0 -4
BITMAP
000000
000000
000000
000000
000000
000000
000000
000000
000000
000000
000000
000000
000000
000000
000000
000000
000000
000000
000000
000000
000000
000000
000000
000000
ENDCHAR

STARTCHAR C2748
ENCODING 10056
SWIDTH 1000 0
DWIDTH 24 0
BBX 24 24 0 -4
BITMAP
000000
000000
000000
000000
000000
000000
000000
000000
000000
000000
000000
000000
000000
000000
000000
000000
000000
000000
000000
000000
000000
000000
000000
000000
ENDCHAR

STARTCHAR C2749
ENCODING 10057
SWIDTH 1000 0
DWIDTH 24 0
BBX 24 24 0 -4
BITMAP
000000
000000
000000
000000
000000
000000
000000
000000
000000
000000
000000
000000
000000
000000
000000
000000
000000
000000
000000
000000
000000
000000
000000
000000
ENDCHAR

STARTCHAR C274a
ENCODING 10058
SWIDTH 1000 0
DWIDTH 24 0
BBX 24 24 0 -4
BITMAP
000000
000000
000000
000000
000000
000000
000000
000000
000000
000000
000000
000000
000000
000000
000000
000000
000000
000000
000000
000000
000000
000000
000000
000000
ENDCHAR

STARTCHAR C274b
ENCODING 10059
SWIDTH 1000 0
DWIDTH 24 0
BBX 24 24 0 -4
BITMAP
000000
000000
000000
000000
000000
000000
000000
000000
000000
000000
000000
000000
000000
000000
000000
000000
000000
000000
000000
000000
000000
000000
000000
000000
ENDCHAR

STARTCHAR C274c
ENCODING 10060
SWIDTH 1000 0
DWIDTH 24 0
BBX 24 24 0 -4
BITMAP
000000
000000
000000
000000
000000
000000
000000
000000
000000
000000
000000
000000
000000
000000
000000
000000
000000
000000
000000
000000
000000
000000
000000
000000
ENDCHAR

STARTCHAR C274d
ENCODING 10061
SWIDTH 1000 0
DWIDTH 24 0
BBX 24 24 0 -4
BITMAP
000000
000000
000000
000000
000000
000000
000000
000000
000000
000000
000000
000000
000000
000000
000000
000000
000000
000000
000000
000000
000000
000000
000000
000000
ENDCHAR

STARTCHAR C274e
ENCODING 10062
SWIDTH 1000 0
DWIDTH 24 0
BBX 24 24 0 -4
BITMAP
000000
000000
000000
000000
000000
000000
000000
000000
000000
000000
000000
000000
000000
000000
000000
000000
000000
000000
000000
000000
000000
000000
000000
000000
ENDCHAR

STARTCHAR C274f
ENCODING 10063
SWIDTH 1000 0
DWIDTH 24 0
BBX 24 24 0 -4
BITMAP
000000
000000
000000
000000
000000
000000
000000
000000
000000
000000
000000
000000
000000
000000
000000
000000
000000
000000
000000
000000
000000
000000
000000
000000
ENDCHAR

STARTCHAR C2750
ENCODING 10064
SWIDTH 1000 0
DWIDTH 24 0
BBX 24 24 0 -4
BITMAP
000000
000000
000000
000000
000000
000000
000000
000000
000000
000000
000000
000000
000000
000000
000000
000000
000000
000000
000000
000000
000000
000000
000000
000000
ENDCHAR

STARTCHAR C2751
ENCODING 10065
SWIDTH 1000 0
DWIDTH 24 0
BBX 24 24 0 -4
BITMAP
000000
000000
000000
000000
000000
000000
000000
000000
003E00
00E300
01C180
018180
018180
000F80
003980
00E180
01C180
018380
0187C0
00FE60
000000
000000
000000
000000
ENDCHAR

STARTCHAR C2752
ENCODING 10066
SWIDTH 1000 0
DWIDTH 24 0
BBX 24 24 0 -4
BITMAP
000000
000000
000000
000100
000700
001E00
007800
00C000
008000
01BC00
01C700
018300
018180
018180
018180
018180
018180
00C300
00E700
003C00
000000
000000
000000
000000
ENDCHAR

STARTCHAR C2753
ENCODING 10067
SWIDTH 1000 0
DWIDTH 24 0
BBX 24 24 0 -4
BITMAP
000000
000000
000000
000000
000000
000000
000000
000000
01FF00
00C180
00C0C0
00C0C0
00C180
00FF00
00C180
00C0C0
00C0C0
00C0C0
00C180
01FF00
000000
000000
000000
000000
ENDCHAR

STARTCHAR C2754
ENCODING 10068
SWIDTH 1000 0
DWIDTH 24 0
BBX 24 24 0 -4
BITMAP
000000
000000
000000
000000
000000
000000
000000
000000
01FF80
00C180
00C080
00C080
00C000
00C000
00C000
00C000
00C000
00C000
00C000
01E000
000000
000000
000000
000000
ENDCHAR

STARTCHAR C2755
ENCODING 10069
SWIDTH 1000 0
DWIDTH 24 0
BBX 24 24 0 -4
BITMAP
000000
000000
000000
000000
000000
000000
000000
000000
00FF80
004300
004300
004300
004300
004300
004300
004300
00C300
008300
008300
03FFC0
0200C0
020040
000000
000000
ENDCHAR

STARTCHAR C2756
ENCODING 10070
SWIDTH 1000 0
DWIDTH 24 0
BBX 24 24 0 -4
BITMAP
000000
000000
000000
000000
000000
000000
000000
000000
003C00
00E700
00C100
018180
018180
01FF80
018000
018000
018080
00C180
00E700
003C00
000000
000000
000000
000000
ENDCHAR

STARTCHAR C2757
ENCODING 10071
SWIDTH 1000 0
DWIDTH 24 0
BBX 24 24 0 -4
BITMAP
000000
000000
000000
000000
000000
006300
006300
000000
003C00
00E700
00C300
018180
018180
01FF80
018000
018000
018080
00C180
00E300
003E00
000000
000000
000000
000000
ENDCHAR

STARTCHAR C2758
ENCODING 10072
SWIDTH 1000 0
DWIDTH 24 0
BBX 24 24 0 -4
BITMAP
000000
000000
000000
000000
000000
000000
000000
000000
0C78C0
1E31E0
1A3160
033300
013200
01FE00
013200
033300
023100
063180
0C30C0
1E79E0
000000
000000
000000
000000
ENDCHAR

STARTCHAR C2759
ENCODING 10073
SWIDTH 1000 0
DWIDTH 24 0
BBX 24 24 0 -4
BITMAP
000000
000000
000000
000000
000000
000000
000000
000000
007E00
00C300
008180
000180
000700
001E00
000700
000180
000180
008180
00C300
007E00
000000
000000
000000
000000
ENDCHAR

STARTCHAR C275a
ENCODING 10074
SWIDTH 1000 0
DWIDTH 24 0
BBX 24 24 0 -4
BITMAP
000000
000000
000000
000000
000000
000000
000000
000000
01E3C0
00C180
00C180
00C380
00C780
00CD80
00D980
00F180
00E180
00C180
00C180
01E3C0
000000
000000
000000
000000
ENDCHAR

STARTCHAR C275b
ENCODING 10075
SWIDTH 1000 0
DWIDTH 24 0
BBX 24 24 0 -4
BITMAP
000000
000000
000000
000000
006300
006300
003E00
000000
01E3C0
00C180
00C180
00C380
00C780
00CD80
00D980
00F180
00E180
00C180
00C180
01E3C0
000000
000000
000000
000000
ENDCHAR

STARTCHAR C275c
ENCODING 10076
SWIDTH 1000 0
DWIDTH 24 0
BBX 24 24 0 -4
BITMAP
000000
000000
000000
000000
000000
000000
000000
000000
00F180
0063C0
0062C0
006200
006600
007C00
006600
006300
006300
006180
006180
00F3C0
000000
000000
000000
000000
ENDCHAR

STARTCHAR C275d
ENCODING 10077
SWIDTH 1000 0
DWIDTH 24 0
BBX 24 24 0 -4
BITMAP
000000
000000
000000
000000
000000
000000
000000
000000
007FC0
001180
001180
001180
001180
001180
001180
001180
003180
032180
036180
01C3C0
000000
000000
000000
000000
ENDCHAR

STARTCHAR C275e
ENCODING 10078
SWIDTH 1000 0
DWIDTH 24 0
BBX 24 24 0 -4
BITMAP
000000
000000
000000
000000
000000
000000
000000
000000
0780E0
0381C0
02C1C0
02C3C0
02C2C0
0266C0
0264C0
026CC0
0238C0
0238C0
0210C0
0711E0
000000
000000
000000
000000
ENDCHAR

STARTCHAR C275f
ENCODING 10079
SWIDTH 1000 0
DWIDTH 24 0
BBX 24 24 0 -4
BITMAP
000000
000000
000000
000000
000000
000000
000000
000000
01E3C0
00C180
00C180
00C180
00C180
00FF80
00C180
00C180
00C180
00C180
00C180
01E3C0
000000
000000
000000
000000
ENDCHAR

STARTCHAR C2760
ENCODING 10080
SWIDTH 1000 0
DWIDTH 24 0
BBX 24 24 0 -4
BITMAP
000000
000000
000000
000000
000000
000000
000000
000000
003C00
00E700
00C300
018180
018180
018180
018180
018180
018180
00C300
00E700
003C00
000000
000000
000000
000000
ENDCHAR

STARTCHAR C2761
ENCODING 10081
SWIDTH 1000 0
DWIDTH 24 0
BBX 24 24 0 -4
BITMAP
000000
000000
000000
000000
000000
000000
000000
000000
01FFC0
00C180
00C180
00C180
00C180
00C180
00C180
00C180
00C180
00C180
00C180
01E3C0
000000
000000
000000
000000
ENDCHAR

STARTCHAR C2762
ENCODING 10082
SWIDTH 1000 0
DWIDTH 24 0
BBX 24 24 0 -4
BITMAP
000000
000000
000000
000000
000000
000000
000000
000000
01DE00
00E380
00C180
00C0C0
00C0C0
00C0C0
00C0C0
00C0C0
00C0C0
00C180
00E380
00DE00
00C000
00C000
01E000
000000
ENDCHAR

STARTCHAR C2763
ENCODING 10083
SWIDTH 1000 0
DWIDTH 24 0
BBX 24 24 0 -4
BITMAP
000000
000000
000000
000000
000000
000000
000000
000000
003E00
00E300
00C180
018180
018000
018000
018000
018000
018000
00C180
00E300
003E00
000000
000000
000000
000000
ENDCHAR

STARTCHAR C2764
ENCODING 10084
SWIDTH 1000 0
DWIDTH 24 0
BBX 24 24 0 -4
BITMAP
000000
000000
000000
000000
000000
000000
000000
000000
01FF80
011880
011880
001800
001800
001800
001800
001800
001800
001800
001800
003C00
000000
000000
000000
000000
ENDCHAR

STARTCHAR C2765
ENCODING 10085
SWIDTH 1000 0
DWIDTH 24 0
BBX 24 24 0 -4
BITMAP
000000
000000
000000
000000
000000
000000
000000
000000
01E3C0
00C180
00C100
006300
006200
006200
003600
003400
003400
001C00
001800
001800
019000
01B000
00E000
000000
ENDCHAR

STARTCHAR C2766
ENCODING 10086
SWIDTH 1000 0
DWIDTH 24 0
BBX 24 24 0 -4
BITMAP
000000
000000
000000
000000
001800
007800
001800
001800
01DB80
033CC0
061860
061860
061860
061860
061860
061860
061860
061860
033CC0
01DB80
001800
001800
003C00
000000
ENDCHAR

STARTCHAR C2767
ENCODING 10087
SWIDTH 1000 0
DWIDTH 24 0
BBX 24 24 0 -4
BITMAP
000000
000000
000000
000000
000000
000000
000000
000000
07C3C0
038180
01C300
00E600
007C00
003800
003800
006C00
00CE00
018700
030380
0787C0
000000
000000
000000
000000
ENDCHAR

STARTCHAR C2768
ENCODING 10088
SWIDTH 1000 0
DWIDTH 24 0
BBX 24 24 0 -4
BITMAP
000000
000000
000000
000000
000000
000000
000000
000000
03C780
018300
018300
018300
018300
018300
018300
018300
018300
018300
018300
03FFC0
0000C0
000040
000000
000000
ENDCHAR

STARTCHAR C2769
ENCODING 10089
SWIDTH 1000 0
DWIDTH 24 0
BBX 24 24 0 -4
BITMAP
000000
000000
000000
000000
000000
000000
000000
000000
03C780
018300
018300
018300
018300
018300
01C700
00FB00
000300
000300
000300
000780
000000
000000
000000
000000
ENDCHAR

STARTCHAR C276a
ENCODING 10090
SWIDTH 1000 0
DWIDTH 24 0
BBX 24 24 0 -4
BITMAP
000000
000000
000000
000000
000000
000000
000000
000000
1E3C78
0C1830
0C1830
0C1830
0C1830
0C1830
0C1830
0C1830
0C1830
0C1830
0C1830
1FFFF8
000000
000000
000000
000000
ENDCHAR

STARTCHAR C276b
ENCODING 10091
SWIDTH 1000 0
DWIDTH 24 0
BBX 24 24 0 -4
BITMAP
000000
000000
000000
000000
000000
000000
000000
000000
1E3C78
0C1830
0C1830
0C1830
0C1830
0C1830
0C1830
0C1830
0C1830
0C1830
0C1830
1FFFFC
00000C
000004
000000
000000
ENDCHAR

STARTCHAR C276c
ENCODING 10092
SWIDTH 1000 0
DWIDTH 24 0
BBX 24 24 0 -4
BITMAP
000000
000000
000000
000000
000000
000000
000000
000000
03F000
036000
026000
006000
006000
007F00
006180
0060C0
0060C0
0060C0
006180
00FF00
000000
000000
000000
000000
ENDCHAR

STARTCHAR C276d
ENCODING 10093
SWIDTH 1000 0
DWIDTH 24 0
BBX 24 24 0 -4
BITMAP
000000
000000
000000
000000
000000
000000
000000
000000
0F00F0
060060
060060
060060
07F060
061860
060C60
060C60
060C60
060C60
061860
0FF0F0
000000
000000
000000
000000
ENDCHAR

STARTCHAR C276e
ENCODING 10094
SWIDTH 1000 0
DWIDTH 24 0
BBX 24 24 0 -4
BITMAP
000000
000000
000000
000000
000000
000000
000000
000000
01E000
00C000
00C000
00C000
00C000
00FE00
00C380
00C0C0
00C0C0
00C0C0
00C380
01FE00
000000
000000
000000
000000
ENDCHAR

STARTCHAR C276f
ENCODING 10095
SWIDTH 1000 0
DWIDTH 24 0
BBX 24 24 0 -4
BITMAP
000000
000000
000000
000000
000000
000000
000000
000000
00FC00
018700
010300
000180
000180
003180
007F80
000D80
000180
010300
018700
00FC00
000000
000000
000000
000000
ENDCHAR

STARTCHAR C2770
ENCODING 10096
SWIDTH 1000 0
DWIDTH 24 0
BBX 24 24 0 -4
BITMAP
000000
000000
000000
000000
000000
000000
000000
000000
0787C0
030C60
031830
031830
031830
03F830
031830
031830
031830
031830
030C60
0787C0
000000
000000
000000
000000
ENDCHAR

STARTCHAR C2771
ENCODING 10097
SWIDTH 1000 0
DWIDTH 24 0
BBX 24 24 0 -4
BITMAP
000000
000000
000000
000000
000000
000000
000000
000000
003FC0
00E180
018180
018180
018180
00E180
003F80
001980
003180
006180
00C180
0183C0
000000
000000
000000
000000
ENDCHAR

STARTCHAR C2772
ENCODING 10098
SWIDTH 1000 0
DWIDTH 24 0
BBX 24 24 0 -4
BITMAP
000000
000000
000000
000000
000000
000000
000000
000000
000000
000000
000000
000000
000000
000000
000000
000000
000000
000000
000000
000000
000000
000000
000000
000000
ENDCHAR

STARTCHAR C2773
ENCODING 10099
SWIDTH 1000 0
DWIDTH 24 0
BBX 24 24 0 -4
BITMAP
000000
000000
000000
000000
000000
000000
000000
000000
000000
000000
000000
000000
000000
000000
000000
000000
000000
000000
000000
000000
000000
000000
000000
000000
ENDCHAR

STARTCHAR C2774
ENCODING 10100
SWIDTH 1000 0
DWIDTH 24 0
BBX 24 24 0 -4
BITMAP
000000
000000
000000
000000
000000
000000
000000
000000
000000
000000
000000
000000
000000
000000
000000
000000
000000
000000
000000
000000
000000
000000
000000
000000
ENDCHAR

STARTCHAR C2775
ENCODING 10101
SWIDTH 1000 0
DWIDTH 24 0
BBX 24 24 0 -4
BITMAP
000000
000000
000000
000000
000000
000000
000000
000000
000000
000000
000000
000000
000000
000000
000000
000000
000000
000000
000000
000000
000000
000000
000000
000000
ENDCHAR

STARTCHAR C2776
ENCODING 10102
SWIDTH 1000 0
DWIDTH 24 0
BBX 24 24 0 -4
BITMAP
000000
000000
000000
000000
000000
000000
000000
000000
000000
000000
000000
000000
000000
000000
000000
000000
000000
000000
000000
000000
000000
000000
000000
000000
ENDCHAR

STARTCHAR C2777
ENCODING 10103
SWIDTH 1000 0
DWIDTH 24 0
BBX 24 24 0 -4
BITMAP
000000
000000
000000
000000
000000
000000
000000
000000
000000
000000
000000
000000
000000
000000
000000
000000
000000
000000
000000
000000
000000
000000
000000
000000
ENDCHAR

STARTCHAR C2778
ENCODING 10104
SWIDTH 1000 0
DWIDTH 24 0
BBX 24 24 0 -4
BITMAP
000000
000000
000000
000000
000000
000000
000000
000000
000000
000000
000000
000000
000000
000000
000000
000000
000000
000000
000000
000000
000000
000000
000000
000000
ENDCHAR

STARTCHAR C2779
ENCODING 10105
SWIDTH 1000 0
DWIDTH 24 0
BBX 24 24 0 -4
BITMAP
000000
000000
000000
000000
000000
000000
000000
000000
000000
000000
000000
000000
000000
000000
000000
000000
000000
000000
000000
000000
000000
000000
000000
000000
ENDCHAR

STARTCHAR C277a
ENCODING 10106
SWIDTH 1000 0
DWIDTH 24 0
BBX 24 24 0 -4
BITMAP
000000
000000
000000
000000
000000
000000
000000
000000
000000
000000
000000
000000
000000
000000
000000
000000
000000
000000
000000
000000
000000
000000
000000
000000
ENDCHAR

STARTCHAR C277b
ENCODING 10107
SWIDTH 1000 0
DWIDTH 24 0
BBX 24 24 0 -4
BITMAP
000000
000000
000000
000000
000000
000000
000000
000000
000000
000000
000000
000000
000000
000000
000000
000000
000000
000000
000000
000000
000000
000000
000000
000000
ENDCHAR

STARTCHAR C277c
ENCODING 10108
SWIDTH 1000 0
DWIDTH 24 0
BBX 24 24 0 -4
BITMAP
000000
000000
000000
000000
000000
000000
000000
000000
000000
000000
000000
000000
000000
000000
000000
000000
000000
000000
000000
000000
000000
000000
000000
000000
ENDCHAR

STARTCHAR C277d
ENCODING 10109
SWIDTH 1000 0
DWIDTH 24 0
BBX 24 24 0 -4
BITMAP
000000
000000
000000
000000
000000
000000
000000
000000
000000
000000
000000
000000
000000
000000
000000
000000
000000
000000
000000
000000
000000
000000
000000
000000
ENDCHAR

STARTCHAR C277e
ENCODING 10110
SWIDTH 1000 0
DWIDTH 24 0
BBX 24 24 0 -4
BITMAP
000000
000000
000000
000000
000000
000000
000000
000000
000000
000000
000000
000000
000000
000000
000000
000000
000000
000000
000000
000000
000000
000000
000000
000000
ENDCHAR

STARTCHAR C2821
ENCODING 10273
SWIDTH 1000 0
DWIDTH 24 0
BBX 24 24 0 -4
BITMAP
000000
000000
000000
000000
000000
000000
000000
000000
000000
000000
000000
FFFFFF
000000
000000
000000
000000
000000
000000
000000
000000
000000
000000
000000
000000
ENDCHAR

STARTCHAR C2822
ENCODING 10274
SWIDTH 1000 0
DWIDTH 24 0
BBX 24 24 0 -4
BITMAP
001000
001000
001000
001000
001000
001000
001000
001000
001000
001000
001000
001000
001000
001000
001000
001000
001000
001000
001000
001000
001000
001000
001000
001000
ENDCHAR

STARTCHAR C2823
ENCODING 10275
SWIDTH 1000 0
DWIDTH 24 0
BBX 24 24 0 -4
BITMAP
000000
000000
000000
000000
000000
000000
000000
000000
000000
000000
000000
001FFF
001000
001000
001000
001000
001000
001000
001000
001000
001000
001000
001000
001000
ENDCHAR

STARTCHAR C2824
ENCODING 10276
SWIDTH 1000 0
DWIDTH 24 0
BBX 24 24 0 -4
BITMAP
000000
000000
000000
000000
000000
000000
000000
000000
000000
000000
000000
FFF000
001000
001000
001000
001000
001000
001000
001000
001000
001000
001000
001000
001000
ENDCHAR

STARTCHAR C2825
ENCODING 10277
SWIDTH 1000 0
DWIDTH 24 0
BBX 24 24 0 -4
BITMAP
001000
001000
001000
001000
001000
001000
001000
001000
001000
001000
001000
FFF000
000000
000000
000000
000000
000000
000000
000000
000000
000000
000000
000000
000000
ENDCHAR

STARTCHAR C2826
ENCODING 10278
SWIDTH 1000 0
DWIDTH 24 0
BBX 24 24 0 -4
BITMAP
001000
001000
001000
001000
001000
001000
001000
001000
001000
001000
001000
001FFF
000000
000000
000000
000000
000000
000000
000000
000000
000000
000000
000000
000000
ENDCHAR

STARTCHAR C2827
ENCODING 10279
SWIDTH 1000 0
DWIDTH 24 0
BBX 24 24 0 -4
BITMAP
001000
001000
001000
001000
001000
001000
001000
001000
001000
001000
001000
001FFF
001000
001000
001000
001000
001000
001000
001000
001000
001000
001000
001000
001000
ENDCHAR

STARTCHAR C2828
ENCODING 10280
SWIDTH 1000 0
DWIDTH 24 0
BBX 24 24 0 -4
BITMAP
000000
000000
000000
000000
000000
000000
000000
000000
000000
000000
000000
FFFFFF
001000
001000
001000
001000
001000
001000
001000
001000
001000
001000
001000
001000
ENDCHAR

STARTCHAR C2829
ENCODING 10281
SWIDTH 1000 0
DWIDTH 24 0
BBX 24 24 0 -4
BITMAP
001000
001000
001000
001000
001000
001000
001000
001000
001000
001000
001000
FFF000
001000
001000
001000
001000
001000
001000
001000
001000
001000
001000
001000
001000
ENDCHAR

STARTCHAR C282a
ENCODING 10282
SWIDTH 1000 0
DWIDTH 24 0
BBX 24 24 0 -4
BITMAP
001000
001000
001000
001000
001000
001000
001000
001000
001000
001000
001000
FFFFFF
000000
000000
000000
000000
000000
000000
000000
000000
000000
000000
000000
000000
ENDCHAR

STARTCHAR C282b
ENCODING 10283
SWIDTH 1000 0
DWIDTH 24 0
BBX 24 24 0 -4
BITMAP
001000
001000
001000
001000
001000
001000
001000
001000
001000
001000
001000
FFFFFF
001000
001000
001000
001000
001000
001000
001000
001000
001000
001000
001000
001000
ENDCHAR

STARTCHAR C282c
ENCODING 10284
SWIDTH 1000 0
DWIDTH 24 0
BBX 24 24 0 -4
BITMAP
000000
000000
000000
000000
000000
000000
000000
000000
000000
000000
FFFFFF
FFFFFF
FFFFFF
000000
000000
000000
000000
000000
000000
000000
000000
000000
000000
000000
ENDCHAR

STARTCHAR C282d
ENCODING 10285
SWIDTH 1000 0
DWIDTH 24 0
BBX 24 24 0 -4
BITMAP
003800
003800
003800
003800
003800
003800
003800
003800
003800
003800
003800
003800
003800
003800
003800
003800
003800
003800
003800
003800
003800
003800
003800
003800
ENDCHAR

STARTCHAR C282e
ENCODING 10286
SWIDTH 1000 0
DWIDTH 24 0
BBX 24 24 0 -4
BITMAP
000000
000000
000000
000000
000000
000000
000000
000000
000000
000000
003FFF
003FFF
003FFF
003800
003800
003800
003800
003800
003800
003800
003800
003800
003800
003800
ENDCHAR

STARTCHAR C282f
ENCODING 10287
SWIDTH 1000 0
DWIDTH 24 0
BBX 24 24 0 -4
BITMAP
000000
000000
000000
000000
000000
000000
000000
000000
000000
000000
FFF800
FFF800
FFF800
003800
003800
003800
003800
003800
003800
003800
003800
003800
003800
003800
ENDCHAR

STARTCHAR C2830
ENCODING 10288
SWIDTH 1000 0
DWIDTH 24 0
BBX 24 24 0 -4
BITMAP
003800
003800
003800
003800
003800
003800
003800
003800
003800
003800
FFF800
FFF800
FFF800
000000
000000
000000
000000
000000
000000
000000
000000
000000
000000
000000
ENDCHAR

STARTCHAR C2831
ENCODING 10289
SWIDTH 1000 0
DWIDTH 24 0
BBX 24 24 0 -4
BITMAP
003800
003800
003800
003800
003800
003800
003800
003800
003800
003800
003FFF
003FFF
003FFF
000000
000000
000000
000000
000000
000000
000000
000000
000000
000000
000000
ENDCHAR

STARTCHAR C2832
ENCODING 10290
SWIDTH 1000 0
DWIDTH 24 0
BBX 24 24 0 -4
BITMAP
003800
003800
003800
003800
003800
003800
003800
003800
003800
003800
003FFF
003FFF
003FFF
003800
003800
003800
003800
003800
003800
003800
003800
003800
003800
003800
ENDCHAR

STARTCHAR C2833
ENCODING 10291
SWIDTH 1000 0
DWIDTH 24 0
BBX 24 24 0 -4
BITMAP
000000
000000
000000
000000
000000
000000
000000
000000
000000
000000
FFFFFF
FFFFFF
FFFFFF
003800
003800
003800
003800
003800
003800
003800
003800
003800
003800
003800
ENDCHAR

STARTCHAR C2834
ENCODING 10292
SWIDTH 1000 0
DWIDTH 24 0
BBX 24 24 0 -4
BITMAP
003800
003800
003800
003800
003800
003800
003800
003800
003800
003800
FFF800
FFF800
FFF800
003800
003800
003800
003800
003800
003800
003800
003800
003800
003800
003800
ENDCHAR

STARTCHAR C2835
ENCODING 10293
SWIDTH 1000 0
DWIDTH 24 0
BBX 24 24 0 -4
BITMAP
003800
003800
003800
003800
003800
003800
003800
003800
003800
003800
FFFFFF
FFFFFF
FFFFFF
000000
000000
000000
000000
000000
000000
000000
000000
000000
000000
000000
ENDCHAR

STARTCHAR C2836
ENCODING 10294
SWIDTH 1000 0
DWIDTH 24 0
BBX 24 24 0 -4
BITMAP
003800
003800
003800
003800
003800
003800
003800
003800
003800
003800
FFFFFF
FFFFFF
FFFFFF
003800
003800
003800
003800
003800
003800
003800
003800
003800
003800
003800
ENDCHAR

STARTCHAR C2837
ENCODING 10295
SWIDTH 1000 0
DWIDTH 24 0
BBX 24 24 0 -4
BITMAP
003800
003800
003800
003800
003800
003800
003800
003800
003800
003800
003800
003FFF
003800
003800
003800
003800
003800
003800
003800
003800
003800
003800
003800
003800
ENDCHAR

STARTCHAR C2838
ENCODING 10296
SWIDTH 1000 0
DWIDTH 24 0
BBX 24 24 0 -4
BITMAP
000000
000000
000000
000000
000000
000000
000000
000000
000000
000000
FFFFFF
FFFFFF
FFFFFF
001000
001000
001000
001000
001000
001000
001000
001000
001000
001000
001000
ENDCHAR

STARTCHAR C2839
ENCODING 10297
SWIDTH 1000 0
DWIDTH 24 0
BBX 24 24 0 -4
BITMAP
003800
003800
003800
003800
003800
003800
003800
003800
003800
003800
003800
FFF800
003800
003800
003800
003800
003800
003800
003800
003800
003800
003800
003800
003800
ENDCHAR

STARTCHAR C283a
ENCODING 10298
SWIDTH 1000 0
DWIDTH 24 0
BBX 24 24 0 -4
BITMAP
001000
001000
001000
001000
001000
001000
001000
001000
001000
001000
FFFFFF
FFFFFF
FFFFFF
000000
000000
000000
000000
000000
000000
000000
000000
000000
000000
000000
ENDCHAR

STARTCHAR C283b
ENCODING 10299
SWIDTH 1000 0
DWIDTH 24 0
BBX 24 24 0 -4
BITMAP
001000
001000
001000
001000
001000
001000
001000
001000
001000
001000
FFFFFF
FFFFFF
FFFFFF
001000
001000
001000
001000
001000
001000
001000
001000
001000
001000
001000
ENDCHAR

STARTCHAR C283c
ENCODING 10300
SWIDTH 1000 0
DWIDTH 24 0
BBX 24 24 0 -4
BITMAP
001000
001000
001000
001000
001000
001000
001000
001000
001000
001000
001FFF
001FFF
001FFF
001000
001000
001000
001000
001000
001000
001000
001000
001000
001000
001000
ENDCHAR

STARTCHAR C283d
ENCODING 10301
SWIDTH 1000 0
DWIDTH 24 0
BBX 24 24 0 -4
BITMAP
000000
000000
000000
000000
000000
000000
000000
000000
000000
000000
000000
FFFFFF
003800
003800
003800
003800
003800
003800
003800
003800
003800
003800
003800
003800
ENDCHAR

STARTCHAR C283e
ENCODING 10302
SWIDTH 1000 0
DWIDTH 24 0
BBX 24 24 0 -4
BITMAP
001000
001000
001000
001000
001000
001000
001000
001000
001000
001000
FFF000
FFF000
FFF000
001000
001000
001000
001000
001000
001000
001000
001000
001000
001000
001000
ENDCHAR

STARTCHAR C283f
ENCODING 10303
SWIDTH 1000 0
DWIDTH 24 0
BBX 24 24 0 -4
BITMAP
003800
003800
003800
003800
003800
003800
003800
003800
003800
003800
003800
FFFFFF
000000
000000
000000
000000
000000
000000
000000
000000
000000
000000
000000
000000
ENDCHAR

STARTCHAR C2840
ENCODING 10304
SWIDTH 1000 0
DWIDTH 24 0
BBX 24 24 0 -4
BITMAP
003800
003800
003800
003800
003800
003800
003800
003800
003800
003800
003800
FFFFFF
003800
003800
003800
003800
003800
003800
003800
003800
003800
003800
003800
003800
ENDCHAR

STARTCHAR C2841
ENCODING 10305
SWIDTH 1000 0
DWIDTH 24 0
BBX 24 24 0 -4
BITMAP
000000
000000
000000
000000
000000
000000
000000
000000
000000
000000
000000
000000
000000
000000
000000
000000
000000
000000
000000
000000
000000
000000
000000
000000
ENDCHAR

STARTCHAR C2842
ENCODING 10306
SWIDTH 1000 0
DWIDTH 24 0
BBX 24 24 0 -4
BITMAP
000000
000000
000000
000000
000000
000000
000000
000000
000000
000000
000000
000000
000000
000000
000000
000000
000000
000000
000000
000000
000000
000000
000000
000000
ENDCHAR

STARTCHAR C2843
ENCODING 10307
SWIDTH 1000 0
DWIDTH 24 0
BBX 24 24 0 -4
BITMAP
000000
000000
000000
000000
000000
000000
000000
000000
000000
000000
000000
000000
000000
000000
000000
000000
000000
000000
000000
000000
000000
000000
000000
000000
ENDCHAR

STARTCHAR C2844
ENCODING 10308
SWIDTH 1000 0
DWIDTH 24 0
BBX 24 24 0 -4
BITMAP
000000
000000
000000
000000
000000
000000
000000
000000
000000
000000
000000
000000
000000
000000
000000
000000
000000
000000
000000
000000
000000
000000
000000
000000
ENDCHAR

STARTCHAR C2845
ENCODING 10309
SWIDTH 1000 0
DWIDTH 24 0
BBX 24 24 0 -4
BITMAP
000000
000000
000000
000000
000000
000000
000000
000000
000000
000000
000000
000000
000000
000000
000000
000000
000000
000000
000000
000000
000000
000000
000000
000000
ENDCHAR

STARTCHAR C2846
ENCODING 10310
SWIDTH 1000 0
DWIDTH 24 0
BBX 24 24 0 -4
BITMAP
000000
000000
000000
000000
000000
000000
000000
000000
000000
000000
000000
000000
000000
000000
000000
000000
000000
000000
000000
000000
000000
000000
000000
000000
ENDCHAR

STARTCHAR C2847
ENCODING 10311
SWIDTH 1000 0
DWIDTH 24 0
BBX 24 24 0 -4
BITMAP
000000
000000
000000
000000
000000
000000
000000
000000
000000
000000
000000
000000
000000
000000
000000
000000
000000
000000
000000
000000
000000
000000
000000
000000
ENDCHAR

STARTCHAR C2848
ENCODING 10312
SWIDTH 1000 0
DWIDTH 24 0
BBX 24 24 0 -4
BITMAP
000000
000000
000000
000000
000000
000000
000000
000000
000000
000000
000000
000000
000000
000000
000000
000000
000000
000000
000000
000000
000000
000000
000000
000000
ENDCHAR

STARTCHAR C2849
ENCODING 10313
SWIDTH 1000 0
DWIDTH 24 0
BBX 24 24 0 -4
BITMAP
000000
000000
000000
000000
000000
000000
000000
000000
000000
000000
000000
000000
000000
000000
000000
000000
000000
000000
000000
000000
000000
000000
000000
000000
ENDCHAR

STARTCHAR C284a
ENCODING 10314
SWIDTH 1000 0
DWIDTH 24 0
BBX 24 24 0 -4
BITMAP
000000
000000
000000
000000
000000
000000
000000
000000
000000
000000
000000
000000
000000
000000
000000
000000
000000
000000
000000
000000
000000
000000
000000
000000
ENDCHAR

STARTCHAR C284b
ENCODING 10315
SWIDTH 1000 0
DWIDTH 24 0
BBX 24 24 0 -4
BITMAP
000000
000000
000000
000000
000000
000000
000000
000000
000000
000000
000000
000000
000000
000000
000000
000000
000000
000000
000000
000000
000000
000000
000000
000000
ENDCHAR

STARTCHAR C284c
ENCODING 10316
SWIDTH 1000 0
DWIDTH 24 0
BBX 24 24 0 -4
BITMAP
000000
000000
000000
000000
000000
000000
000000
000000
000000
000000
000000
000000
000000
000000
000000
000000
000000
000000
000000
000000
000000
000000
000000
000000
ENDCHAR

STARTCHAR C284d
ENCODING 10317
SWIDTH 1000 0
DWIDTH 24 0
BBX 24 24 0 -4
BITMAP
000000
000000
000000
000000
000000
000000
000000
000000
000000
000000
000000
000000
000000
000000
000000
000000
000000
000000
000000
000000
000000
000000
000000
000000
ENDCHAR

STARTCHAR C284e
ENCODING 10318
SWIDTH 1000 0
DWIDTH 24 0
BBX 24 24 0 -4
BITMAP
000000
000000
000000
000000
000000
000000
000000
000000
000000
000000
000000
000000
000000
000000
000000
000000
000000
000000
000000
000000
000000
000000
000000
000000
ENDCHAR

STARTCHAR C284f
ENCODING 10319
SWIDTH 1000 0
DWIDTH 24 0
BBX 24 24 0 -4
BITMAP
000000
000000
000000
000000
000000
000000
000000
000000
000000
000000
000000
000000
000000
000000
000000
000000
000000
000000
000000
000000
000000
000000
000000
000000
ENDCHAR

STARTCHAR C2850
ENCODING 10320
SWIDTH 1000 0
DWIDTH 24 0
BBX 24 24 0 -4
BITMAP
000000
000000
000000
000000
000000
000000
000000
000000
000000
000000
000000
000000
000000
000000
000000
000000
000000
000000
000000
000000
000000
000000
000000
000000
ENDCHAR

STARTCHAR C2851
ENCODING 10321
SWIDTH 1000 0
DWIDTH 24 0
BBX 24 24 0 -4
BITMAP
000000
000000
000000
000000
000000
000000
000000
000000
000000
000000
000000
000000
000000
000000
000000
000000
000000
000000
000000
000000
000000
000000
000000
000000
ENDCHAR

STARTCHAR C2852
ENCODING 10322
SWIDTH 1000 0
DWIDTH 24 0
BBX 24 24 0 -4
BITMAP
000000
000000
000000
000000
000000
000000
000000
000000
000000
000000
000000
000000
000000
000000
000000
000000
000000
000000
000000
000000
000000
000000
000000
000000
ENDCHAR

STARTCHAR C2853
ENCODING 10323
SWIDTH 1000 0
DWIDTH 24 0
BBX 24 24 0 -4
BITMAP
000000
000000
000000
000000
000000
000000
000000
000000
000000
000000
000000
000000
000000
000000
000000
000000
000000
000000
000000
000000
000000
000000
000000
000000
ENDCHAR

STARTCHAR C2854
ENCODING 10324
SWIDTH 1000 0
DWIDTH 24 0
BBX 24 24 0 -4
BITMAP
000000
000000
000000
000000
000000
000000
000000
000000
000000
000000
000000
000000
000000
000000
000000
000000
000000
000000
000000
000000
000000
000000
000000
000000
ENDCHAR

STARTCHAR C2855
ENCODING 10325
SWIDTH 1000 0
DWIDTH 24 0
BBX 24 24 0 -4
BITMAP
000000
000000
000000
000000
000000
000000
000000
000000
000000
000000
000000
000000
000000
000000
000000
000000
000000
000000
000000
000000
000000
000000
000000
000000
ENDCHAR

STARTCHAR C2856
ENCODING 10326
SWIDTH 1000 0
DWIDTH 24 0
BBX 24 24 0 -4
BITMAP
000000
000000
000000
000000
000000
000000
000000
000000
000000
000000
000000
000000
000000
000000
000000
000000
000000
000000
000000
000000
000000
000000
000000
000000
ENDCHAR

STARTCHAR C2857
ENCODING 10327
SWIDTH 1000 0
DWIDTH 24 0
BBX 24 24 0 -4
BITMAP
000000
000000
000000
000000
000000
000000
000000
000000
000000
000000
000000
000000
000000
000000
000000
000000
000000
000000
000000
000000
000000
000000
000000
000000
ENDCHAR

STARTCHAR C2858
ENCODING 10328
SWIDTH 1000 0
DWIDTH 24 0
BBX 24 24 0 -4
BITMAP
000000
000000
000000
000000
000000
000000
000000
000000
000000
000000
000000
000000
000000
000000
000000
000000
000000
000000
000000
000000
000000
000000
000000
000000
ENDCHAR

STARTCHAR C2859
ENCODING 10329
SWIDTH 1000 0
DWIDTH 24 0
BBX 24 24 0 -4
BITMAP
000000
000000
000000
000000
000000
000000
000000
000000
000000
000000
000000
000000
000000
000000
000000
000000
000000
000000
000000
000000
000000
000000
000000
000000
ENDCHAR

STARTCHAR C285a
ENCODING 10330
SWIDTH 1000 0
DWIDTH 24 0
BBX 24 24 0 -4
BITMAP
000000
000000
000000
000000
000000
000000
000000
000000
000000
000000
000000
000000
000000
000000
000000
000000
000000
000000
000000
000000
000000
000000
000000
000000
ENDCHAR

STARTCHAR C285b
ENCODING 10331
SWIDTH 1000 0
DWIDTH 24 0
BBX 24 24 0 -4
BITMAP
000000
000000
000000
000000
000000
000000
000000
000000
000000
000000
000000
000000
000000
000000
000000
000000
000000
000000
000000
000000
000000
000000
000000
000000
ENDCHAR

STARTCHAR C285c
ENCODING 10332
SWIDTH 1000 0
DWIDTH 24 0
BBX 24 24 0 -4
BITMAP
000000
000000
000000
000000
000000
000000
000000
000000
000000
000000
000000
000000
000000
000000
000000
000000
000000
000000
000000
000000
000000
000000
000000
000000
ENDCHAR

STARTCHAR C285d
ENCODING 10333
SWIDTH 1000 0
DWIDTH 24 0
BBX 24 24 0 -4
BITMAP
000000
000000
000000
000000
000000
000000
000000
000000
000000
000000
000000
000000
000000
000000
000000
000000
000000
000000
000000
000000
000000
000000
000000
000000
ENDCHAR

STARTCHAR C285e
ENCODING 10334
SWIDTH 1000 0
DWIDTH 24 0
BBX 24 24 0 -4
BITMAP
000000
000000
000000
000000
000000
000000
000000
000000
000000
000000
000000
000000
000000
000000
000000
000000
000000
000000
000000
000000
000000
000000
000000
000000
ENDCHAR

STARTCHAR C285f
ENCODING 10335
SWIDTH 1000 0
DWIDTH 24 0
BBX 24 24 0 -4
BITMAP
000000
000000
000000
000000
000000
000000
000000
000000
000000
000000
000000
000000
000000
000000
000000
000000
000000
000000
000000
000000
000000
000000
000000
000000
ENDCHAR

STARTCHAR C2860
ENCODING 10336
SWIDTH 1000 0
DWIDTH 24 0
BBX 24 24 0 -4
BITMAP
000000
000000
000000
000000
000000
000000
000000
000000
000000
000000
000000
000000
000000
000000
000000
000000
000000
000000
000000
000000
000000
000000
000000
000000
ENDCHAR

STARTCHAR C2861
ENCODING 10337
SWIDTH 1000 0
DWIDTH 24 0
BBX 24 24 0 -4
BITMAP
000000
000000
000000
000000
000000
000000
000000
000000
000000
000000
000000
000000
000000
000000
000000
000000
000000
000000
000000
000000
000000
000000
000000
000000
ENDCHAR

STARTCHAR C2862
ENCODING 10338
SWIDTH 1000 0
DWIDTH 24 0
BBX 24 24 0 -4
BITMAP
000000
000000
000000
000000
000000
000000
000000
000000
000000
000000
000000
000000
000000
000000
000000
000000
000000
000000
000000
000000
000000
000000
000000
000000
ENDCHAR

STARTCHAR C2863
ENCODING 10339
SWIDTH 1000 0
DWIDTH 24 0
BBX 24 24 0 -4
BITMAP
000000
000000
000000
000000
000000
000000
000000
000000
000000
000000
000000
000000
000000
000000
000000
000000
000000
000000
000000
000000
000000
000000
000000
000000
ENDCHAR

STARTCHAR C2864
ENCODING 10340
SWIDTH 1000 0
DWIDTH 24 0
BBX 24 24 0 -4
BITMAP
000000
000000
000000
000000
000000
000000
000000
000000
000000
000000
000000
000000
000000
000000
000000
000000
000000
000000
000000
000000
000000
000000
000000
000000
ENDCHAR

STARTCHAR C2865
ENCODING 10341
SWIDTH 1000 0
DWIDTH 24 0
BBX 24 24 0 -4
BITMAP
000000
000000
000000
000000
000000
000000
000000
000000
000000
000000
000000
000000
000000
000000
000000
000000
000000
000000
000000
000000
000000
000000
000000
000000
ENDCHAR

STARTCHAR C2866
ENCODING 10342
SWIDTH 1000 0
DWIDTH 24 0
BBX 24 24 0 -4
BITMAP
000000
000000
000000
000000
000000
000000
000000
000000
000000
000000
000000
000000
000000
000000
000000
000000
000000
000000
000000
000000
000000
000000
000000
000000
ENDCHAR

STARTCHAR C2867
ENCODING 10343
SWIDTH 1000 0
DWIDTH 24 0
BBX 24 24 0 -4
BITMAP
000000
000000
000000
000000
000000
000000
000000
000000
000000
000000
000000
000000
000000
000000
000000
000000
000000
000000
000000
000000
000000
000000
000000
000000
ENDCHAR

STARTCHAR C2868
ENCODING 10344
SWIDTH 1000 0
DWIDTH 24 0
BBX 24 24 0 -4
BITMAP
000000
000000
000000
000000
000000
000000
000000
000000
000000
000000
000000
000000
000000
000000
000000
000000
000000
000000
000000
000000
000000
000000
000000
000000
ENDCHAR

STARTCHAR C2869
ENCODING 10345
SWIDTH 1000 0
DWIDTH 24 0
BBX 24 24 0 -4
BITMAP
000000
000000
000000
000000
000000
000000
000000
000000
000000
000000
000000
000000
000000
000000
000000
000000
000000
000000
000000
000000
000000
000000
000000
000000
ENDCHAR

STARTCHAR C286a
ENCODING 10346
SWIDTH 1000 0
DWIDTH 24 0
BBX 24 24 0 -4
BITMAP
000000
000000
000000
000000
000000
000000
000000
000000
000000
000000
000000
000000
000000
000000
000000
000000
000000
000000
000000
000000
000000
000000
000000
000000
ENDCHAR

STARTCHAR C286b
ENCODING 10347
SWIDTH 1000 0
DWIDTH 24 0
BBX 24 24 0 -4
BITMAP
000000
000000
000000
000000
000000
000000
000000
000000
000000
000000
000000
000000
000000
000000
000000
000000
000000
000000
000000
000000
000000
000000
000000
000000
ENDCHAR

STARTCHAR C286c
ENCODING 10348
SWIDTH 1000 0
DWIDTH 24 0
BBX 24 24 0 -4
BITMAP
000000
000000
000000
000000
000000
000000
000000
000000
000000
000000
000000
000000
000000
000000
000000
000000
000000
000000
000000
000000
000000
000000
000000
000000
ENDCHAR

STARTCHAR C286d
ENCODING 10349
SWIDTH 1000 0
DWIDTH 24 0
BBX 24 24 0 -4
BITMAP
000000
000000
000000
000000
000000
000000
000000
000000
000000
000000
000000
000000
000000
000000
000000
000000
000000
000000
000000
000000
000000
000000
000000
000000
ENDCHAR

STARTCHAR C286e
ENCODING 10350
SWIDTH 1000 0
DWIDTH 24 0
BBX 24 24 0 -4
BITMAP
000000
000000
000000
000000
000000
000000
000000
000000
000000
000000
000000
000000
000000
000000
000000
000000
000000
000000
000000
000000
000000
000000
000000
000000
ENDCHAR

STARTCHAR C286f
ENCODING 10351
SWIDTH 1000 0
DWIDTH 24 0
BBX 24 24 0 -4
BITMAP
000000
000000
000000
000000
000000
000000
000000
000000
000000
000000
000000
000000
000000
000000
000000
000000
000000
000000
000000
000000
000000
000000
000000
000000
ENDCHAR

STARTCHAR C2870
ENCODING 10352
SWIDTH 1000 0
DWIDTH 24 0
BBX 24 24 0 -4
BITMAP
000000
000000
000000
000000
000000
000000
000000
000000
000000
000000
000000
000000
000000
000000
000000
000000
000000
000000
000000
000000
000000
000000
000000
000000
ENDCHAR

STARTCHAR C2871
ENCODING 10353
SWIDTH 1000 0
DWIDTH 24 0
BBX 24 24 0 -4
BITMAP
000000
000000
000000
000000
000000
000000
000000
000000
000000
000000
000000
000000
000000
000000
000000
000000
000000
000000
000000
000000
000000
000000
000000
000000
ENDCHAR

STARTCHAR C2872
ENCODING 10354
SWIDTH 1000 0
DWIDTH 24 0
BBX 24 24 0 -4
BITMAP
000000
000000
000000
000000
000000
000000
000000
000000
000000
000000
000000
000000
000000
000000
000000
000000
000000
000000
000000
000000
000000
000000
000000
000000
ENDCHAR

STARTCHAR C2873
ENCODING 10355
SWIDTH 1000 0
DWIDTH 24 0
BBX 24 24 0 -4
BITMAP
000000
000000
000000
000000
000000
000000
000000
000000
000000
000000
000000
000000
000000
000000
000000
000000
000000
000000
000000
000000
000000
000000
000000
000000
ENDCHAR

STARTCHAR C2874
ENCODING 10356
SWIDTH 1000 0
DWIDTH 24 0
BBX 24 24 0 -4
BITMAP
000000
000000
000000
000000
000000
000000
000000
000000
000000
000000
000000
000000
000000
000000
000000
000000
000000
000000
000000
000000
000000
000000
000000
000000
ENDCHAR

STARTCHAR C2875
ENCODING 10357
SWIDTH 1000 0
DWIDTH 24 0
BBX 24 24 0 -4
BITMAP
000000
000000
000000
000000
000000
000000
000000
000000
000000
000000
000000
000000
000000
000000
000000
000000
000000
000000
000000
000000
000000
000000
000000
000000
ENDCHAR

STARTCHAR C2876
ENCODING 10358
SWIDTH 1000 0
DWIDTH 24 0
BBX 24 24 0 -4
BITMAP
000000
000000
000000
000000
000000
000000
000000
000000
000000
000000
000000
000000
000000
000000
000000
000000
000000
000000
000000
000000
000000
000000
000000
000000
ENDCHAR

STARTCHAR C2877
ENCODING 10359
SWIDTH 1000 0
DWIDTH 24 0
BBX 24 24 0 -4
BITMAP
000000
000000
000000
000000
000000
000000
000000
000000
000000
000000
000000
000000
000000
000000
000000
000000
000000
000000
000000
000000
000000
000000
000000
000000
ENDCHAR

STARTCHAR C2878
ENCODING 10360
SWIDTH 1000 0
DWIDTH 24 0
BBX 24 24 0 -4
BITMAP
000000
000000
000000
000000
000000
000000
000000
000000
000000
000000
000000
000000
000000
000000
000000
000000
000000
000000
000000
000000
000000
000000
000000
000000
ENDCHAR

STARTCHAR C2879
ENCODING 10361
SWIDTH 1000 0
DWIDTH 24 0
BBX 24 24 0 -4
BITMAP
000000
000000
000000
000000
000000
000000
000000
000000
000000
000000
000000
000000
000000
000000
000000
000000
000000
000000
000000
000000
000000
000000
000000
000000
ENDCHAR

STARTCHAR C287a
ENCODING 10362
SWIDTH 1000 0
DWIDTH 24 0
BBX 24 24 0 -4
BITMAP
000000
000000
000000
000000
000000
000000
000000
000000
000000
000000
000000
000000
000000
000000
000000
000000
000000
000000
000000
000000
000000
000000
000000
000000
ENDCHAR

STARTCHAR C287b
ENCODING 10363
SWIDTH 1000 0
DWIDTH 24 0
BBX 24 24 0 -4
BITMAP
000000
000000
000000
000000
000000
000000
000000
000000
000000
000000
000000
000000
000000
000000
000000
000000
000000
000000
000000
000000
000000
000000
000000
000000
ENDCHAR

STARTCHAR C287c
ENCODING 10364
SWIDTH 1000 0
DWIDTH 24 0
BBX 24 24 0 -4
BITMAP
000000
000000
000000
000000
000000
000000
000000
000000
000000
000000
000000
000000
000000
000000
000000
000000
000000
000000
000000
000000
000000
000000
000000
000000
ENDCHAR

STARTCHAR C287d
ENCODING 10365
SWIDTH 1000 0
DWIDTH 24 0
BBX 24 24 0 -4
BITMAP
000000
000000
000000
000000
000000
000000
000000
000000
000000
000000
000000
000000
000000
000000
000000
000000
000000
000000
000000
000000
000000
000000
000000
000000
ENDCHAR

STARTCHAR C287e
ENCODING 10366
SWIDTH 1000 0
DWIDTH 24 0
BBX 24 24 0 -4
BITMAP
000000
000000
000000
000000
000000
000000
000000
000000
000000
000000
000000
000000
000000
000000
000000
000000
000000
000000
000000
000000
000000
000000
000000
000000
ENDCHAR

STARTCHAR C2921
ENCODING 10529
SWIDTH 1000 0
DWIDTH 24 0
BBX 24 24 0 -4
BITMAP
000000
000000
000000
000000
000000
000000
000000
000000
000000
000000
000000
000000
000000
000000
000000
000000
000000
000000
000000
000000
000000
000000
000000
000000
ENDCHAR

STARTCHAR C2922
ENCODING 10530
SWIDTH 1000 0
DWIDTH 24 0
BBX 24 24 0 -4
BITMAP
000000
000000
000000
000000
000000
000000
000000
000000
000000
000000
000000
000000
000000
000000
000000
000000
000000
000000
000000
000000
000000
000000
000000
000000
ENDCHAR

STARTCHAR C2923
ENCODING 10531
SWIDTH 1000 0
DWIDTH 24 0
BBX 24 24 0 -4
BITMAP
000000
000000
000000
000000
000000
000000
000000
000000
000000
000000
000000
000000
000000
000000
000000
000000
000000
000000
000000
000000
000000
000000
000000
000000
ENDCHAR

STARTCHAR C2924
ENCODING 10532
SWIDTH 1000 0
DWIDTH 24 0
BBX 24 24 0 -4
BITMAP
000000
000000
000000
000000
000000
000000
000000
000000
000000
000000
000000
000000
000000
000000
000000
000000
000000
000000
000000
000000
000000
000000
000000
000000
ENDCHAR

STARTCHAR C2925
ENCODING 10533
SWIDTH 1000 0
DWIDTH 24 0
BBX 24 24 0 -4
BITMAP
000000
000000
000000
000000
000000
000000
000000
000000
000000
000000
000000
000000
000000
000000
000000
000000
000000
000000
000000
000000
000000
000000
000000
000000
ENDCHAR

STARTCHAR C2926
ENCODING 10534
SWIDTH 1000 0
DWIDTH 24 0
BBX 24 24 0 -4
BITMAP
000000
000000
000000
000000
000000
000000
000000
000000
000000
000000
000000
000000
000000
000000
000000
000000
000000
000000
000000
000000
000000
000000
000000
000000
ENDCHAR

STARTCHAR C2927
ENCODING 10535
SWIDTH 1000 0
DWIDTH 24 0
BBX 24 24 0 -4
BITMAP
000000
000000
000000
000000
000000
000000
000000
000000
000000
000000
000000
000000
000000
000000
000000
000000
000000
000000
000000
000000
000000
000000
000000
000000
ENDCHAR

STARTCHAR C2928
ENCODING 10536
SWIDTH 1000 0
DWIDTH 24 0
BBX 24 24 0 -4
BITMAP
000000
000000
000000
000000
000000
000000
000000
000000
000000
000000
000000
000000
000000
000000
000000
000000
000000
000000
000000
000000
000000
000000
000000
000000
ENDCHAR

STARTCHAR C2929
ENCODING 10537
SWIDTH 1000 0
DWIDTH 24 0
BBX 24 24 0 -4
BITMAP
000000
000000
000000
000000
000000
000000
000000
000000
000000
000000
000000
000000
000000
000000
000000
000000
000000
000000
000000
000000
000000
000000
000000
000000
ENDCHAR

STARTCHAR C292a
ENCODING 10538
SWIDTH 1000 0
DWIDTH 24 0
BBX 24 24 0 -4
BITMAP
000000
000000
000000
000000
000000
000000
000000
000000
000000
000000
000000
000000
000000
000000
000000
000000
000000
000000
000000
000000
000000
000000
000000
000000
ENDCHAR

STARTCHAR C292b
ENCODING 10539
SWIDTH 1000 0
DWIDTH 24 0
BBX 24 24 0 -4
BITMAP
000000
000000
000000
000000
000000
000000
000000
000000
000000
000000
000000
000000
000000
000000
000000
000000
000000
000000
000000
000000
000000
000000
000000
000000
ENDCHAR

STARTCHAR C292c
ENCODING 10540
SWIDTH 1000 0
DWIDTH 24 0
BBX 24 24 0 -4
BITMAP
000000
000000
000000
000000
000000
000000
000000
000000
000000
000000
000000
000000
000000
000000
000000
000000
000000
000000
000000
000000
000000
000000
000000
000000
ENDCHAR

STARTCHAR C292d
ENCODING 10541
SWIDTH 1000 0
DWIDTH 24 0
BBX 24 24 0 -4
BITMAP
000000
000000
000000
000000
000000
000000
000000
000000
000000
000000
000000
000000
000000
000000
000000
000000
000000
000000
000000
000000
000000
000000
000000
000000
ENDCHAR

STARTCHAR C292e
ENCODING 10542
SWIDTH 1000 0
DWIDTH 24 0
BBX 24 24 0 -4
BITMAP
000000
000000
000000
000000
000000
000000
000000
000000
000000
000000
000000
000000
000000
000000
000000
000000
000000
000000
000000
000000
000000
000000
000000
000000
ENDCHAR

STARTCHAR C292f
ENCODING 10543
SWIDTH 1000 0
DWIDTH 24 0
BBX 24 24 0 -4
BITMAP
000000
000000
000000
000000
000000
000000
000000
000000
000000
000000
000000
000000
000000
000000
000000
000000
000000
000000
000000
000000
000000
000000
000000
000000
ENDCHAR

STARTCHAR C2930
ENCODING 10544
SWIDTH 1000 0
DWIDTH 24 0
BBX 24 24 0 -4
BITMAP
000000
000000
000000
000000
000000
000000
000000
000000
000000
000000
000000
000000
000000
000000
000000
000000
000000
000000
000000
000000
000000
000000
000000
000000
ENDCHAR

STARTCHAR C2931
ENCODING 10545
SWIDTH 1000 0
DWIDTH 24 0
BBX 24 24 0 -4
BITMAP
000000
000000
000000
000000
000000
000000
000000
000000
000000
000000
000000
000000
000000
000000
000000
000000
000000
000000
000000
000000
000000
000000
000000
000000
ENDCHAR

STARTCHAR C2932
ENCODING 10546
SWIDTH 1000 0
DWIDTH 24 0
BBX 24 24 0 -4
BITMAP
000000
000000
000000
000000
000000
000000
000000
000000
000000
000000
000000
000000
000000
000000
000000
000000
000000
000000
000000
000000
000000
000000
000000
000000
ENDCHAR

STARTCHAR C2933
ENCODING 10547
SWIDTH 1000 0
DWIDTH 24 0
BBX 24 24 0 -4
BITMAP
000000
000000
000000
000000
000000
000000
000000
000000
000000
000000
000000
000000
000000
000000
000000
000000
000000
000000
000000
000000
000000
000000
000000
000000
ENDCHAR

STARTCHAR C2934
ENCODING 10548
SWIDTH 1000 0
DWIDTH 24 0
BBX 24 24 0 -4
BITMAP
000000
000000
000000
000000
000000
000000
000000
000000
000000
000000
000000
000000
000000
000000
000000
000000
000000
000000
000000
000000
000000
000000
000000
000000
ENDCHAR

STARTCHAR C2935
ENCODING 10549
SWIDTH 1000 0
DWIDTH 24 0
BBX 24 24 0 -4
BITMAP
000000
000000
000000
000000
000000
000000
000000
000000
000000
000000
000000
000000
000000
000000
000000
000000
000000
000000
000000
000000
000000
000000
000000
000000
ENDCHAR

STARTCHAR C2936
ENCODING 10550
SWIDTH 1000 0
DWIDTH 24 0
BBX 24 24 0 -4
BITMAP
000000
000000
000000
000000
000000
000000
000000
000000
000000
000000
000000
000000
000000
000000
000000
000000
000000
000000
000000
000000
000000
000000
000000
000000
ENDCHAR

STARTCHAR C2937
ENCODING 10551
SWIDTH 1000 0
DWIDTH 24 0
BBX 24 24 0 -4
BITMAP
000000
000000
000000
000000
000000
000000
000000
000000
000000
000000
000000
000000
000000
000000
000000
000000
000000
000000
000000
000000
000000
000000
000000
000000
ENDCHAR

STARTCHAR C2938
ENCODING 10552
SWIDTH 1000 0
DWIDTH 24 0
BBX 24 24 0 -4
BITMAP
000000
000000
000000
000000
000000
000000
000000
000000
000000
000000
000000
000000
000000
000000
000000
000000
000000
000000
000000
000000
000000
000000
000000
000000
ENDCHAR

STARTCHAR C2939
ENCODING 10553
SWIDTH 1000 0
DWIDTH 24 0
BBX 24 24 0 -4
BITMAP
000000
000000
000000
000000
000000
000000
000000
000000
000000
000000
000000
000000
000000
000000
000000
000000
000000
000000
000000
000000
000000
000000
000000
000000
ENDCHAR

STARTCHAR C293a
ENCODING 10554
SWIDTH 1000 0
DWIDTH 24 0
BBX 24 24 0 -4
BITMAP
000000
000000
000000
000000
000000
000000
000000
000000
000000
000000
000000
000000
000000
000000
000000
000000
000000
000000
000000
000000
000000
000000
000000
000000
ENDCHAR

STARTCHAR C293b
ENCODING 10555
SWIDTH 1000 0
DWIDTH 24 0
BBX 24 24 0 -4
BITMAP
000000
000000
000000
000000
000000
000000
000000
000000
000000
000000
000000
000000
000000
000000
000000
000000
000000
000000
000000
000000
000000
000000
000000
000000
ENDCHAR

STARTCHAR C293c
ENCODING 10556
SWIDTH 1000 0
DWIDTH 24 0
BBX 24 24 0 -4
BITMAP
000000
000000
000000
000000
000000
000000
000000
000000
000000
000000
000000
000000
000000
000000
000000
000000
000000
000000
000000
000000
000000
000000
000000
000000
ENDCHAR

ENDFONT
